<svg width="20" height="18" viewBox="0 0 20 18" fill="none" xmlns="http://www.w3.org/2000/svg">
<g clip-path="url(#clip0_257_2667)">
<path fill-rule="evenodd" clip-rule="evenodd" d="M20 13.9093V5.72751C19.9987 4.64294 19.5592 3.60315 18.7782 2.83624C17.997 2.06933 16.938 1.63791 15.8333 1.6366H10.3933C10.2644 1.63753 10.137 1.60955 10.0208 1.55479L7.39083 0.258789C7.04366 0.0890536 6.66117 0.000560238 6.27333 0.000244141H4.16667C3.062 0.0015433 2.00297 0.432966 1.22185 1.19988C0.440735 1.96679 0.00132322 3.00658 0 4.09115V13.9093C0.00132322 14.9939 0.440735 16.0337 1.22185 16.8006C2.00297 17.5676 3.062 17.999 4.16667 18.0002H15.8333C16.938 17.999 17.997 17.5676 18.7782 16.8006C19.5592 16.0337 19.9987 14.9939 20 13.9093ZM1.66667 4.90933V4.09115C1.66667 3.44016 1.93006 2.81584 2.3989 2.35552C2.86774 1.89521 3.50362 1.6366 4.16667 1.6366H6.27333C6.40255 1.63696 6.52997 1.66635 6.64583 1.72251L9.27583 3.01442C9.623 3.18416 10.0055 3.27266 10.3933 3.27297H15.8333C16.3486 3.27507 16.8505 3.43341 17.2706 3.72631C17.6907 4.01923 18.0082 4.43241 18.18 4.90933H1.66667ZM18.3333 6.5457V13.9093C18.3333 14.5603 18.0699 15.1847 17.6011 15.645C17.1322 16.1053 16.4963 16.3638 15.8333 16.3638H4.16667C3.50362 16.3638 2.86774 16.1053 2.3989 15.645C1.93006 15.1847 1.66667 14.5603 1.66667 13.9093V6.5457H18.3333Z" fill="#838383"/>
</g>
<defs>
<clipPath id="clip0_257_2667">
<rect width="20" height="18" fill="white"/>
</clipPath>
</defs>
</svg>
