<svg width="42" height="42" viewBox="0 0 42 42" fill="none" xmlns="http://www.w3.org/2000/svg">
<rect x="0.677246" y="0.831543" width="40.8469" height="40.9078" rx="8" fill="#EEEEEE"/>
<path d="M16.6679 10.4976H13.6405C11.9685 10.4976 10.613 11.855 10.613 13.5295V31.7212C10.613 33.3958 11.9685 34.7532 13.6405 34.7532H16.6679M25.7502 10.4976H28.7776C30.4497 10.4976 31.8051 11.855 31.8051 13.5295V16.5615" stroke="#838383" stroke-width="2" stroke-linecap="round" stroke-linejoin="round"/>
<path d="M25.6019 33.744L22.2919 34.4069L22.9538 31.0921C23.0126 30.7986 23.1565 30.529 23.3678 30.3174L29.5345 24.1413L32.562 21.1094L35.5696 24.1215L32.5421 27.1534L26.3754 33.3293C26.1641 33.541 25.895 33.6853 25.6019 33.744Z" stroke="#838383" stroke-width="2" stroke-linecap="round" stroke-linejoin="round"/>
<path d="M16.668 10.4973C16.668 8.82278 18.0234 7.46533 19.6954 7.46533H22.7228C24.3949 7.46533 25.7503 8.82278 25.7503 10.4973V13.5292H16.668V10.4973Z" stroke="#838383" stroke-width="2" stroke-linecap="round" stroke-linejoin="round"/>
</svg>
