<svg width="40" height="40" viewBox="0 0 40 40" fill="none" xmlns="http://www.w3.org/2000/svg">
<g clip-path="url(#clip0_154_547)">
<path d="M15.8333 10H13.3333C12.4493 10 11.6014 10.3512 10.9763 10.9763C10.3512 11.6014 10 12.4493 10 13.3333V15.8333C10 16.7174 10.3512 17.5652 10.9763 18.1904C11.6014 18.8155 12.4493 19.1667 13.3333 19.1667H15.8333C16.7174 19.1667 17.5652 18.8155 18.1904 18.1904C18.8155 17.5652 19.1667 16.7174 19.1667 15.8333V13.3333C19.1667 12.4493 18.8155 11.6014 18.1904 10.9763C17.5652 10.3512 16.7174 10 15.8333 10V10ZM17.5 15.8333C17.5 16.2754 17.3244 16.6993 17.0118 17.0118C16.6993 17.3244 16.2754 17.5 15.8333 17.5H13.3333C12.8913 17.5 12.4674 17.3244 12.1548 17.0118C11.8423 16.6993 11.6667 16.2754 11.6667 15.8333V13.3333C11.6667 12.8913 11.8423 12.4674 12.1548 12.1548C12.4674 11.8423 12.8913 11.6667 13.3333 11.6667H15.8333C16.2754 11.6667 16.6993 11.8423 17.0118 12.1548C17.3244 12.4674 17.5 12.8913 17.5 13.3333V15.8333Z" fill="#838383"/>
<path d="M26.6666 10H24.1666C23.2825 10 22.4347 10.3512 21.8096 10.9763C21.1844 11.6014 20.8333 12.4493 20.8333 13.3333V15.8333C20.8333 16.7174 21.1844 17.5652 21.8096 18.1904C22.4347 18.8155 23.2825 19.1667 24.1666 19.1667H26.6666C27.5506 19.1667 28.3985 18.8155 29.0236 18.1904C29.6487 17.5652 29.9999 16.7174 29.9999 15.8333V13.3333C29.9999 12.4493 29.6487 11.6014 29.0236 10.9763C28.3985 10.3512 27.5506 10 26.6666 10V10ZM28.3332 15.8333C28.3332 16.2754 28.1576 16.6993 27.8451 17.0118C27.5325 17.3244 27.1086 17.5 26.6666 17.5H24.1666C23.7246 17.5 23.3006 17.3244 22.9881 17.0118C22.6755 16.6993 22.4999 16.2754 22.4999 15.8333V13.3333C22.4999 12.8913 22.6755 12.4674 22.9881 12.1548C23.3006 11.8423 23.7246 11.6667 24.1666 11.6667H26.6666C27.1086 11.6667 27.5325 11.8423 27.8451 12.1548C28.1576 12.4674 28.3332 12.8913 28.3332 13.3333V15.8333Z" fill="#838383"/>
<path d="M15.8333 20.8334H13.3333C12.4493 20.8334 11.6014 21.1846 10.9763 21.8097C10.3512 22.4348 10 23.2827 10 24.1667V26.6667C10 27.5508 10.3512 28.3986 10.9763 29.0237C11.6014 29.6489 12.4493 30.0001 13.3333 30.0001H15.8333C16.7174 30.0001 17.5652 29.6489 18.1904 29.0237C18.8155 28.3986 19.1667 27.5508 19.1667 26.6667V24.1667C19.1667 23.2827 18.8155 22.4348 18.1904 21.8097C17.5652 21.1846 16.7174 20.8334 15.8333 20.8334ZM17.5 26.6667C17.5 27.1087 17.3244 27.5327 17.0118 27.8452C16.6993 28.1578 16.2754 28.3334 15.8333 28.3334H13.3333C12.8913 28.3334 12.4674 28.1578 12.1548 27.8452C11.8423 27.5327 11.6667 27.1087 11.6667 26.6667V24.1667C11.6667 23.7247 11.8423 23.3008 12.1548 22.9882C12.4674 22.6756 12.8913 22.5 13.3333 22.5H15.8333C16.2754 22.5 16.6993 22.6756 17.0118 22.9882C17.3244 23.3008 17.5 23.7247 17.5 24.1667V26.6667Z" fill="#838383"/>
<path d="M26.6666 20.8334H24.1666C23.2825 20.8334 22.4347 21.1846 21.8096 21.8097C21.1844 22.4348 20.8333 23.2827 20.8333 24.1667V26.6667C20.8333 27.5508 21.1844 28.3986 21.8096 29.0237C22.4347 29.6489 23.2825 30.0001 24.1666 30.0001H26.6666C27.5506 30.0001 28.3985 29.6489 29.0236 29.0237C29.6487 28.3986 29.9999 27.5508 29.9999 26.6667V24.1667C29.9999 23.2827 29.6487 22.4348 29.0236 21.8097C28.3985 21.1846 27.5506 20.8334 26.6666 20.8334ZM28.3332 26.6667C28.3332 27.1087 28.1576 27.5327 27.8451 27.8452C27.5325 28.1578 27.1086 28.3334 26.6666 28.3334H24.1666C23.7246 28.3334 23.3006 28.1578 22.9881 27.8452C22.6755 27.5327 22.4999 27.1087 22.4999 26.6667V24.1667C22.4999 23.7247 22.6755 23.3008 22.9881 22.9882C23.3006 22.6756 23.7246 22.5 24.1666 22.5H26.6666C27.1086 22.5 27.5325 22.6756 27.8451 22.9882C28.1576 23.3008 28.3332 23.7247 28.3332 24.1667V26.6667Z" fill="#838383"/>
</g>
<defs>
<clipPath id="clip0_154_547">
<rect width="20" height="20" fill="white" transform="translate(10 10)"/>
</clipPath>
</defs>
</svg>
