<svg width="32" height="32" viewBox="0 0 32 32" fill="none" xmlns="http://www.w3.org/2000/svg">
<rect width="32" height="32" rx="16" fill="white"/>
<path d="M17.1001 23.0001C16.9023 22.9992 16.7092 22.9398 16.5452 22.8292C16.3812 22.7187 16.2537 22.5619 16.1788 22.3789C16.1039 22.1959 16.0849 21.9947 16.1243 21.8009C16.1637 21.6071 16.2596 21.4293 16.4001 21.2901L21.0001 16.7101C21.0938 16.6171 21.1682 16.5065 21.219 16.3846C21.2697 16.2628 21.2959 16.1321 21.2959 16.0001C21.2959 15.868 21.2697 15.7373 21.219 15.6155C21.1682 15.4936 21.0938 15.383 21.0001 15.2901L16.4001 10.7101C16.3063 10.6171 16.2319 10.5065 16.1812 10.3846C16.1304 10.2628 16.1043 10.1321 16.1043 10.0001C16.1043 9.86805 16.1304 9.73734 16.1812 9.61548C16.2319 9.49362 16.3063 9.38302 16.4001 9.29006C16.5874 9.10381 16.8409 8.99927 17.1051 8.99927C17.3692 8.99927 17.6227 9.10381 17.8101 9.29006L22.4001 13.8801C22.9619 14.4426 23.2774 15.2051 23.2774 16.0001C23.2774 16.7951 22.9619 17.5576 22.4001 18.1201L17.8101 22.7101C17.7166 22.8027 17.6058 22.8761 17.484 22.9258C17.3621 22.9756 17.2317 23.0008 17.1001 23.0001Z" fill="#4D8EFF"/>
<path d="M10.1001 23.0001C9.90228 22.9992 9.7092 22.9398 9.54521 22.8292C9.38123 22.7187 9.25371 22.5619 9.17879 22.3789C9.10386 22.1959 9.08489 21.9947 9.12428 21.8009C9.16366 21.6071 9.25963 21.4293 9.40006 21.2901L14.6901 16.0001L9.40006 10.7101C9.30633 10.6171 9.23193 10.5065 9.18116 10.3846C9.1304 10.2628 9.10426 10.1321 9.10426 10.0001C9.10426 9.86805 9.1304 9.73734 9.18116 9.61548C9.23193 9.49362 9.30633 9.38302 9.40006 9.29006C9.58742 9.10381 9.84087 8.99927 10.1051 8.99927C10.3692 8.99927 10.6227 9.10381 10.8101 9.29006L16.8101 15.2901C16.9038 15.383 16.9782 15.4936 17.0289 15.6155C17.0797 15.7373 17.1059 15.868 17.1059 16.0001C17.1059 16.1321 17.0797 16.2628 17.0289 16.3846C16.9782 16.5065 16.9038 16.6171 16.8101 16.7101L10.8101 22.7101C10.7166 22.8027 10.6058 22.8761 10.484 22.9258C10.3621 22.9756 10.2317 23.0008 10.1001 23.0001Z" fill="#4D8EFF"/>
</svg>
