<svg width="37" height="37" viewBox="0 0 37 37" fill="none" xmlns="http://www.w3.org/2000/svg">
<rect x="18.4939" width="26.1543" height="26.1543" rx="13.0772" transform="rotate(45 18.4939 0)" fill="#C4C4C4"/>
<path d="M12.0982 16.8589C12.0989 16.6859 12.1541 16.517 12.2568 16.3736C12.3595 16.2301 12.505 16.1185 12.6749 16.053C12.8449 15.9875 13.0316 15.9709 13.2116 16.0053C13.3915 16.0398 13.5566 16.1237 13.6859 16.2466L18.5978 20.8744L23.5096 16.2466C23.596 16.1646 23.6987 16.0995 23.8118 16.0551C23.925 16.0107 24.0463 15.9878 24.1689 15.9878C24.2915 15.9878 24.4128 16.0107 24.526 16.0551C24.6391 16.0995 24.7418 16.1646 24.8281 16.2466C25.0011 16.4105 25.0981 16.6322 25.0981 16.8633C25.0981 17.0944 25.0011 17.3162 24.8281 17.4801L19.257 22.729C19.1707 22.811 19.068 22.8761 18.9549 22.9205C18.8417 22.9649 18.7204 22.9878 18.5978 22.9878C18.4752 22.9878 18.3538 22.9649 18.2407 22.9205C18.1275 22.8761 18.0249 22.811 17.9385 22.729L12.3674 17.4801C12.2814 17.3983 12.2133 17.3014 12.1671 17.1948C12.1209 17.0882 12.0975 16.9741 12.0982 16.8589Z" fill="white"/>
</svg>
