<svg width="24" height="17" viewBox="0 0 24 17" fill="none" xmlns="http://www.w3.org/2000/svg">
<path fill-rule="evenodd" clip-rule="evenodd" d="M0.931443 5.61735C3.67677 2.08946 7.66711 0 12 0C16.3331 0 20.3236 2.08966 23.0689 5.61788C23.7086 6.43767 24 7.49072 24 8.50002C24 9.50942 23.7085 10.5627 23.0686 11.3826C20.3232 14.9105 16.3329 17 12 17C7.6669 17 3.67637 14.9103 0.931033 11.3821C0.291383 10.5623 0 9.50921 0 8.50002C0 7.4905 0.291497 6.43725 0.931443 5.61735ZM12 1.58878C8.29132 1.58878 4.78683 3.37287 2.31528 6.5492L2.31447 6.55026C1.92953 7.04331 1.70859 7.74969 1.70859 8.50002C1.70859 9.25024 1.92953 9.95672 2.31447 10.4497L2.31528 10.4507C4.78683 13.6271 8.29132 15.4112 12 15.4112C15.7087 15.4112 19.2131 13.6271 21.6847 10.4507L21.6855 10.4497C22.0704 9.95672 22.2914 9.25024 22.2914 8.50002C22.2914 7.74969 22.0704 7.04331 21.6855 6.55026L21.6847 6.5492C19.2131 3.37287 15.7087 1.58878 12 1.58878Z" fill="#838383"/>
</svg>
