<svg width="20" height="18" viewBox="0 0 20 18" fill="none" xmlns="http://www.w3.org/2000/svg">
<path fill-rule="evenodd" clip-rule="evenodd" d="M13 7.41139C13.7538 7.41126 14.4874 7.15353 15.0919 6.67652C15.6963 6.19951 16.1393 5.52867 16.355 4.76372H19C19.2652 4.76372 19.5196 4.65214 19.7071 4.45352C19.8946 4.25491 20 3.98553 20 3.70465C20 3.42377 19.8946 3.15439 19.7071 2.95577C19.5196 2.75716 19.2652 2.64558 19 2.64558H16.355C16.139 1.88101 15.6958 1.21064 15.0914 0.734031C14.487 0.257422 13.7536 0 13 0C12.2464 0 11.513 0.257422 10.9086 0.734031C10.3042 1.21064 9.86103 1.88101 9.645 2.64558H1C0.734784 2.64558 0.48043 2.75716 0.292893 2.95577C0.105357 3.15439 0 3.42377 0 3.70465C0 3.98553 0.105357 4.25491 0.292893 4.45352C0.48043 4.65214 0.734784 4.76372 1 4.76372H9.645C9.86068 5.52867 10.3037 6.19951 10.9081 6.67652C11.5126 7.15353 12.2462 7.41126 13 7.41139ZM1 13.2363C0.734784 13.2363 0.48043 13.3479 0.292893 13.5465C0.105357 13.7451 0 14.0145 0 14.2954C0 14.5762 0.105357 14.8456 0.292893 15.0442C0.48043 15.2428 0.734784 15.3544 1 15.3544H3.145C3.36103 16.119 3.80417 16.7894 4.40858 17.266C5.013 17.7426 5.74645 18 6.5 18C7.25355 18 7.987 17.7426 8.59142 17.266C9.19583 16.7894 9.63897 16.119 9.855 15.3544H19C19.2652 15.3544 19.5196 15.2428 19.7071 15.0442C19.8946 14.8456 20 14.5762 20 14.2954C20 14.0145 19.8946 13.7451 19.7071 13.5465C19.5196 13.3479 19.2652 13.2363 19 13.2363H9.855C9.63897 12.4717 9.19583 11.8013 8.59142 11.3247C7.987 10.8481 7.25355 10.5907 6.5 10.5907C5.74645 10.5907 5.013 10.8481 4.40858 11.3247C3.80417 11.8013 3.36103 12.4717 3.145 13.2363H1Z" fill="#5B5B5B"/>
</svg>
