<svg width="40" height="40" viewBox="0 0 40 40" fill="none" xmlns="http://www.w3.org/2000/svg">
<path d="M28.9473 20.4475H26.842C26.5629 20.4475 26.2951 20.5576 26.0977 20.7536C25.9003 20.9495 25.7894 21.2152 25.7894 21.4923C25.7894 21.7694 25.9003 22.0351 26.0977 22.2311C26.2951 22.427 26.5629 22.5371 26.842 22.5371V24.6266H25.5954C25.7202 24.292 25.7858 23.9386 25.7894 23.5818C25.7895 22.8918 25.5602 22.2211 25.137 21.6737C24.7138 21.1263 24.1204 20.7328 23.4489 20.5543C22.7774 20.3757 22.0653 20.4221 21.4231 20.6863C20.7809 20.9504 20.2444 21.4176 19.897 22.0152C19.8272 22.1341 19.7818 22.2655 19.7633 22.4018C19.7448 22.5382 19.7537 22.6768 19.7893 22.8097C19.825 22.9427 19.8867 23.0674 19.971 23.1766C20.0554 23.2858 20.1606 23.3774 20.2807 23.4461C20.4008 23.5148 20.5333 23.5593 20.6708 23.5771C20.8083 23.5948 20.9479 23.5854 21.0817 23.5494C21.2155 23.5134 21.3408 23.4516 21.4505 23.3674C21.5601 23.2832 21.6519 23.1784 21.7206 23.0589C21.8131 22.9004 21.9459 22.7687 22.1057 22.6771C22.2656 22.5855 22.4469 22.5372 22.6314 22.5371C22.9106 22.5371 23.1784 22.6471 23.3758 22.8431C23.5732 23.039 23.6841 23.3047 23.6841 23.5818C23.6841 23.8589 23.5732 24.1246 23.3758 24.3206C23.1784 24.5165 22.9106 24.6266 22.6314 24.6266C22.3523 24.6266 22.0845 24.7366 21.8871 24.9326C21.6897 25.1285 21.5788 25.3942 21.5788 25.6713C21.5788 25.9484 21.6897 26.2141 21.8871 26.4101C22.0845 26.606 22.3523 26.7161 22.6314 26.7161C22.9106 26.7161 23.1784 26.8261 23.3758 27.0221C23.5732 27.218 23.6841 27.4837 23.6841 27.7608C23.6841 28.0379 23.5732 28.3037 23.3758 28.4996C23.1784 28.6955 22.9106 28.8056 22.6314 28.8056C22.4469 28.8054 22.2656 28.7571 22.1057 28.6655C21.9459 28.5739 21.8131 28.4423 21.7206 28.2837C21.6519 28.1642 21.5601 28.0594 21.4505 27.9752C21.3408 27.891 21.2155 27.8292 21.0817 27.7932C20.9479 27.7572 20.8083 27.7478 20.6708 27.7656C20.5333 27.7833 20.4008 27.8278 20.2807 27.8965C20.1606 27.9653 20.0554 28.0569 19.971 28.1661C19.8867 28.2753 19.825 28.3999 19.7893 28.5329C19.7537 28.6658 19.7448 28.8045 19.7633 28.9408C19.7818 29.0772 19.8272 29.2086 19.897 29.3274C20.2444 29.9251 20.7809 30.3922 21.4231 30.6563C22.0653 30.9205 22.7774 30.9669 23.4489 30.7883C24.1204 30.6098 24.7138 30.2163 25.137 29.6689C25.5602 29.1215 25.7895 28.4508 25.7894 27.7608C25.7858 27.4041 25.7202 27.0506 25.5954 26.7161H26.842V29.8503C26.842 30.1274 26.9529 30.3932 27.1504 30.5891C27.3478 30.785 27.6155 30.8951 27.8947 30.8951C28.1739 30.8951 28.4416 30.785 28.639 30.5891C28.8364 30.3932 28.9473 30.1274 28.9473 29.8503V22.5371C29.2265 22.5371 29.4943 22.427 29.6917 22.2311C29.8891 22.0351 30 21.7694 30 21.4923C30 21.2152 29.8891 20.9495 29.6917 20.7536C29.4943 20.5576 29.2265 20.4475 28.9473 20.4475ZM16.3474 19.6563C16.4151 19.925 16.5877 20.156 16.827 20.2985C16.9455 20.369 17.0769 20.4157 17.2136 20.4358C17.3502 20.456 17.4896 20.4492 17.6236 20.4159C17.7577 20.3826 17.8838 20.3234 17.9948 20.2418C18.1058 20.1601 18.1996 20.0575 18.2706 19.9399C18.3417 19.8223 18.3887 19.6919 18.409 19.5563C18.4293 19.4206 18.4225 19.2823 18.389 19.1493L16.5396 11.8049C16.4098 11.2893 16.1101 10.8317 15.6881 10.5047C15.2661 10.1776 14.7461 10 14.2107 10C13.6753 10 13.1553 10.1776 12.7333 10.5047C12.3114 10.8317 12.0117 11.2893 11.8818 11.8049L10.0315 19.1493C9.96373 19.418 10.0063 19.7024 10.1498 19.9399C10.2934 20.1774 10.5261 20.3487 10.7968 20.4159C11.0675 20.4832 11.3541 20.4409 11.5934 20.2985C11.8328 20.156 12.0053 19.925 12.073 19.6563L12.6634 17.3133H15.7574L16.3474 19.6563ZM13.1898 15.2238L13.9234 12.3119C13.9457 12.2542 13.985 12.2045 14.0363 12.1695C14.0876 12.1344 14.1485 12.1157 14.2107 12.1157C14.273 12.1157 14.3338 12.1344 14.3851 12.1695C14.4364 12.2045 14.4758 12.2542 14.4981 12.3119L15.2313 15.2238H13.1898ZM21.5788 15.2238H22.6314C22.9105 15.2241 23.1781 15.3342 23.3755 15.5301C23.5728 15.726 23.6838 15.9915 23.6841 16.2685V17.3133C23.6841 17.5904 23.795 17.8561 23.9924 18.052C24.1898 18.248 24.4576 18.358 24.7367 18.358C25.0159 18.358 25.2837 18.248 25.4811 18.052C25.6785 17.8561 25.7894 17.5904 25.7894 17.3133V16.2685C25.7885 15.4376 25.4555 14.6409 24.8634 14.0533C24.2714 13.4657 23.4687 13.1352 22.6314 13.1343H21.5788C21.2996 13.1343 21.0319 13.2443 20.8344 13.4403C20.637 13.6362 20.5261 13.9019 20.5261 14.179C20.5261 14.4561 20.637 14.7218 20.8344 14.9178C21.0319 15.1137 21.2996 15.2238 21.5788 15.2238ZM17.3682 24.6266H16.3155C16.0364 24.6263 15.7688 24.5161 15.5715 24.3203C15.3741 24.1244 15.2631 23.8588 15.2629 23.5818V22.5371C15.2629 22.26 15.152 21.9942 14.9546 21.7983C14.7571 21.6024 14.4894 21.4923 14.2102 21.4923C13.931 21.4923 13.6633 21.6024 13.4659 21.7983C13.2685 21.9942 13.1576 22.26 13.1576 22.5371V23.5818C13.1585 24.4128 13.4915 25.2095 14.0835 25.7971C14.6756 26.3847 15.4783 26.7152 16.3155 26.7161H17.3682C17.6474 26.7161 17.9151 26.606 18.1125 26.4101C18.3099 26.2141 18.4208 25.9484 18.4208 25.6713C18.4208 25.3942 18.3099 25.1285 18.1125 24.9326C17.9151 24.7366 17.6474 24.6266 17.3682 24.6266Z" fill="#838383"/>
</svg>
