<svg width="382" height="411" viewBox="0 0 382 411" fill="none" xmlns="http://www.w3.org/2000/svg">
<g opacity="0.5">
<path d="M271.594 101.235H212.136V147.227H271.594V101.235Z" fill="#EBEBEB"/>
<path d="M216.746 143.036L233.193 117.835L246.647 133.942L254.821 125.389L266.983 143.036H216.746Z" fill="#F5F5F5"/>
<path d="M249.15 119.367C249.15 121.379 247.519 123.01 245.508 123.01C243.496 123.01 241.865 121.379 241.865 119.367C241.865 117.355 243.496 115.724 245.508 115.724C247.519 115.724 249.15 117.355 249.15 119.367Z" fill="#F5F5F5"/>
<path d="M173.992 165.825L139.822 179.241C137.003 161.569 131.381 145.99 124.116 131.638L155.369 118.196C167.339 132.866 171.714 148.923 173.992 165.825Z" fill="#EBEBEB"/>
<path d="M98.0271 58.835L19.498 60.453L21.608 162.858L100.177 163.211L98.0271 58.835Z" fill="#EBEBEB"/>
<path d="M92.935 62.585L24.219 64L26.132 156.876L94.896 157.78L92.935 62.585Z" fill="#FAFAFA"/>
<path d="M81.249 79.7099L35.614 78.9119L36.951 143.829L82.551 142.889L81.249 79.7099Z" fill="#EBEBEB"/>
<path d="M36.951 143.829L81.864 109.538L35.614 78.9119L36.951 143.829Z" fill="#F5F5F5"/>
<path d="M308.062 0L251.576 1.164L253.093 74.825L309.609 75.079L308.062 0Z" fill="#EBEBEB"/>
<path d="M304.4 2.698L254.972 3.716L256.348 70.522L305.811 71.172L304.4 2.698Z" fill="#FAFAFA"/>
<path d="M295.994 15.0159L263.168 14.4419L264.13 61.1369L296.931 60.4609L295.994 15.0159Z" fill="#EBEBEB"/>
<path d="M264.13 61.1369L296.437 36.4719L263.168 14.4419L264.13 61.1369Z" fill="#F5F5F5"/>
<path d="M131.97 184.1L75.483 185.264L77.001 258.924L133.517 259.178L131.97 184.1Z" fill="#EBEBEB"/>
<path d="M128.308 186.797L78.879 187.815L80.256 254.622L129.718 255.272L128.308 186.797Z" fill="#FAFAFA"/>
<path d="M119.902 199.116L87.076 198.541L88.0381 245.237L120.838 244.561L119.902 199.116Z" fill="#EBEBEB"/>
<path d="M88.0381 245.237L120.344 220.572L87.076 198.541L88.0381 245.237Z" fill="#F5F5F5"/>
<path d="M346.194 156.41L312.385 157.106L313.293 201.196L347.12 201.348L346.194 156.41Z" fill="#EBEBEB"/>
<path d="M344.003 158.024L314.418 158.634L315.241 198.621L344.847 199.009L344.003 158.024Z" fill="#FAFAFA"/>
<path d="M338.971 165.397L319.323 165.054L319.899 193.003L339.532 192.599L338.971 165.397Z" fill="#EBEBEB"/>
<path d="M319.899 193.003L339.236 178.24L319.323 165.054L319.899 193.003Z" fill="#F5F5F5"/>
<path d="M155.782 24.561C155.757 24.586 155.39 24.274 154.74 23.695C154.017 23.046 153.097 22.221 151.999 21.235C150.838 20.202 149.453 18.974 147.875 17.663C147.085 17.01 146.247 16.334 145.354 15.675C144.905 15.35 144.444 15.024 143.962 14.726C143.491 14.447 142.946 14.123 142.488 14.082C142.052 14.097 141.51 14.444 141.054 14.741C140.585 15.057 140.136 15.399 139.703 15.746C138.838 16.442 138.032 17.157 137.272 17.844C135.755 19.225 134.426 20.513 133.314 21.598C132.261 22.632 131.379 23.498 130.686 24.179C130.063 24.786 129.71 25.115 129.684 25.091C129.658 25.067 129.961 24.691 130.539 24.039C131.118 23.388 131.972 22.461 133.052 21.339C134.134 20.218 135.439 18.9 136.948 17.491C137.704 16.789 138.509 16.062 139.384 15.349C139.822 14.993 140.279 14.642 140.767 14.31C141.272 14.004 141.742 13.613 142.502 13.561C143.237 13.644 143.715 13.993 144.233 14.284C144.734 14.596 145.202 14.93 145.657 15.263C146.56 15.939 147.398 16.627 148.184 17.295C149.754 18.634 151.117 19.893 152.248 20.963C153.378 22.036 154.272 22.923 154.88 23.548C155.488 24.173 155.808 24.535 155.782 24.561Z" fill="#E0E0E0"/>
<path d="M115.743 24.6729L116.553 64.5859L168.601 63.5289L168.792 23.5959L115.743 24.6729Z" fill="#EBEBEB"/>
<path d="M117.648 27.262L118.357 62.187L165.562 61.229L166.031 26.2791L117.648 27.262Z" fill="#FAFAFA"/>
<path d="M126.35 33.203L125.937 56.398L158.932 55.728L158.461 32.551L126.35 33.203Z" fill="#EBEBEB"/>
<path d="M153.613 39.177C153.613 39.32 148.511 39.437 142.218 39.437C135.923 39.437 130.822 39.32 130.822 39.177C130.822 39.033 135.924 38.916 142.218 38.916C148.511 38.916 153.613 39.033 153.613 39.177Z" fill="#E0E0E0"/>
<path d="M153.613 42.781C153.613 42.925 148.511 43.042 142.218 43.042C135.923 43.042 130.822 42.925 130.822 42.781C130.822 42.638 135.924 42.521 142.218 42.521C148.511 42.521 153.613 42.637 153.613 42.781Z" fill="#E0E0E0"/>
<path d="M153.613 46.385C153.613 46.529 148.511 46.645 142.218 46.645C135.923 46.645 130.822 46.528 130.822 46.385C130.822 46.241 135.924 46.125 142.218 46.125C148.511 46.124 153.613 46.241 153.613 46.385Z" fill="#E0E0E0"/>
<path d="M138.928 49.988C138.928 50.132 137.113 50.249 134.875 50.249C132.636 50.249 130.822 50.132 130.822 49.988C130.822 49.844 132.636 49.728 134.875 49.728C137.113 49.728 138.928 49.845 138.928 49.988Z" fill="#E0E0E0"/>
<path d="M135.232 37.54C135.185 37.542 135.182 37.204 135.016 36.644C134.852 36.094 134.463 35.296 133.632 34.69C132.828 34.081 131.519 33.75 130.261 34.225C129.013 34.662 127.94 35.991 127.954 37.539C127.94 39.088 129.013 40.417 130.261 40.854C131.519 41.329 132.828 40.998 133.632 40.389C134.464 39.783 134.852 38.985 135.016 38.435C135.182 37.874 135.184 37.538 135.232 37.54C135.255 37.538 135.325 37.877 135.212 38.485C135.1 39.079 134.741 39.973 133.855 40.683C133 41.393 131.538 41.82 130.096 41.306C128.667 40.838 127.415 39.321 127.432 37.539C127.415 35.759 128.668 34.242 130.096 33.774C131.538 33.26 132.999 33.687 133.854 34.397C134.74 35.106 135.1 36 135.212 36.595C135.324 37.202 135.255 37.541 135.232 37.54Z" fill="#E0E0E0"/>
<path d="M155.21 49.378C155.238 49.396 155.124 49.668 154.849 50.131C154.568 50.567 154.112 51.308 153.115 51.655C152.626 51.815 151.983 51.795 151.453 51.415C150.909 51.05 150.649 50.176 151.098 49.514C151.214 49.353 151.362 49.213 151.569 49.127C151.773 49.035 152.074 49.056 152.271 49.212C152.645 49.528 152.701 49.958 152.696 50.334C152.68 51.078 152.394 51.838 151.865 52.427C151.603 52.719 151.281 52.969 150.904 53.118C150.531 53.269 150.073 53.29 149.696 53.124C148.939 52.798 148.553 52.023 148.525 51.34C148.506 50.634 148.651 50.059 148.962 49.481C149.054 49.345 149.218 49.179 149.46 49.169C149.697 49.16 149.878 49.323 149.961 49.453C150.135 49.733 150.174 49.986 150.215 50.245C150.32 51.288 149.815 52.043 149.416 52.405C149.001 52.783 148.678 52.831 148.674 52.809C148.651 52.766 148.935 52.652 149.271 52.264C149.597 51.893 149.987 51.177 149.85 50.296C149.812 50.091 149.745 49.841 149.632 49.686C149.501 49.542 149.456 49.546 149.321 49.723C149.118 50.128 148.961 50.76 149.005 51.307C149.036 51.864 149.365 52.434 149.891 52.653C150.402 52.878 151.049 52.574 151.479 52.08C151.922 51.589 152.169 50.944 152.188 50.323C152.21 50.031 152.116 49.724 151.973 49.611C151.867 49.503 151.637 49.594 151.492 49.793C151.207 50.193 151.333 50.805 151.716 51.071C152.094 51.364 152.605 51.417 153.015 51.302C153.869 51.059 154.365 50.412 154.685 50.017C155.001 49.598 155.177 49.357 155.21 49.378Z" fill="#E0E0E0"/>
<path d="M182.411 107.465L146.342 123.491L145.483 96.008L181.515 78.979L182.411 107.465Z" fill="#EBEBEB"/>
<path d="M361.576 81.455C361.537 81.495 360.974 81.015 359.977 80.126C358.867 79.129 357.456 77.863 355.77 76.35C353.989 74.764 351.862 72.88 349.441 70.868C348.229 69.865 346.942 68.829 345.571 67.815C344.882 67.316 344.174 66.816 343.434 66.358C342.712 65.93 341.875 65.433 341.172 65.37C340.503 65.393 339.671 65.925 338.972 66.381C338.252 66.867 337.563 67.391 336.899 67.925C335.571 68.993 334.334 70.09 333.167 71.146C330.838 73.265 328.798 75.242 327.09 76.908C325.474 78.495 324.121 79.824 323.057 80.869C322.101 81.802 321.56 82.306 321.519 82.268C321.479 82.23 321.944 81.654 322.832 80.654C323.72 79.655 325.03 78.232 326.689 76.509C328.35 74.789 330.353 72.764 332.668 70.603C333.829 69.525 335.063 68.41 336.406 67.315C337.078 66.769 337.78 66.23 338.528 65.72C339.304 65.25 340.025 64.65 341.192 64.571C342.32 64.698 343.053 65.234 343.85 65.68C344.618 66.159 345.337 66.672 346.036 67.184C347.422 68.221 348.708 69.277 349.914 70.303C352.323 72.358 354.416 74.29 356.152 75.933C357.886 77.579 359.259 78.941 360.191 79.9C361.123 80.859 361.615 81.416 361.576 81.455Z" fill="#E0E0E0"/>
<path d="M300.118 81.6281L301.361 142.892L381.252 141.27L381.545 79.9751L300.118 81.6281Z" fill="#EBEBEB"/>
<path d="M303.042 85.601L304.13 139.209L376.587 137.738L377.308 84.094L303.042 85.601Z" fill="#FAFAFA"/>
<path d="M316.399 94.7222L315.766 130.324L366.41 129.295L365.687 93.7212L316.399 94.7222Z" fill="#EBEBEB"/>
<path d="M358.247 103.891C358.247 104.112 350.415 104.291 340.756 104.291C331.093 104.291 323.263 104.112 323.263 103.891C323.263 103.67 331.093 103.492 340.756 103.492C350.415 103.492 358.247 103.67 358.247 103.891Z" fill="#E0E0E0"/>
<path d="M358.247 109.423C358.247 109.644 350.415 109.822 340.756 109.822C331.093 109.822 323.263 109.643 323.263 109.423C323.263 109.203 331.093 109.023 340.756 109.023C350.415 109.023 358.247 109.202 358.247 109.423Z" fill="#E0E0E0"/>
<path d="M358.247 114.954C358.247 115.175 350.415 115.354 340.756 115.354C331.093 115.354 323.263 115.175 323.263 114.954C323.263 114.733 331.093 114.555 340.756 114.555C350.415 114.555 358.247 114.733 358.247 114.954Z" fill="#E0E0E0"/>
<path d="M335.706 120.486C335.706 120.707 332.92 120.886 329.485 120.886C326.049 120.886 323.264 120.707 323.264 120.486C323.264 120.265 326.049 120.086 329.485 120.086C332.92 120.086 335.706 120.265 335.706 120.486Z" fill="#E0E0E0"/>
<path d="M330.032 101.377C329.959 101.38 329.955 100.862 329.7 100.003C329.448 99.1591 328.851 97.9341 327.575 97.0031C326.341 96.0681 324.332 95.5591 322.4 96.2891C320.484 96.9601 318.838 99.0001 318.859 101.376C318.837 103.754 320.484 105.793 322.4 106.465C324.332 107.195 326.341 106.685 327.575 105.751C328.851 104.82 329.447 103.596 329.699 102.752C329.955 101.892 329.959 101.375 330.032 101.377C330.068 101.374 330.175 101.895 330.002 102.828C329.83 103.741 329.279 105.112 327.918 106.201C326.605 107.291 324.362 107.947 322.149 107.158C319.956 106.44 318.033 104.111 318.06 101.377C318.034 98.6441 319.957 96.3151 322.149 95.5971C324.361 94.8081 326.605 95.4641 327.918 96.5541C329.278 97.6431 329.83 99.0141 330.002 99.9271C330.175 100.859 330.068 101.381 330.032 101.377Z" fill="#E0E0E0"/>
<path d="M360.697 119.549C360.739 119.576 360.565 119.994 360.143 120.705C359.711 121.374 359.011 122.512 357.481 123.044C356.731 123.29 355.743 123.259 354.93 122.675C354.096 122.115 353.697 120.774 354.386 119.758C354.564 119.51 354.791 119.296 355.108 119.164C355.422 119.022 355.884 119.056 356.185 119.295C356.759 119.78 356.845 120.441 356.838 121.017C356.814 122.159 356.375 123.327 355.562 124.229C355.16 124.678 354.666 125.062 354.087 125.29C353.515 125.522 352.812 125.554 352.233 125.299C351.071 124.799 350.479 123.61 350.435 122.561C350.406 121.478 350.627 120.594 351.105 119.707C351.247 119.499 351.498 119.244 351.869 119.228C352.233 119.213 352.511 119.464 352.638 119.665C352.906 120.095 352.965 120.483 353.028 120.88C353.189 122.482 352.414 123.64 351.802 124.195C351.165 124.774 350.67 124.849 350.664 124.815C350.629 124.749 351.064 124.574 351.58 123.978C352.08 123.409 352.679 122.31 352.469 120.958C352.41 120.644 352.307 120.26 352.134 120.02C351.932 119.8 351.864 119.806 351.656 120.077C351.344 120.699 351.103 121.668 351.171 122.509C351.219 123.364 351.724 124.238 352.531 124.575C353.315 124.919 354.308 124.453 354.969 123.695C355.649 122.942 356.028 121.952 356.056 120.998C356.09 120.549 355.947 120.079 355.726 119.905C355.563 119.739 355.21 119.879 354.988 120.185C354.551 120.8 354.744 121.739 355.331 122.148C355.912 122.598 356.696 122.679 357.325 122.502C358.635 122.13 359.397 121.137 359.888 120.529C360.378 119.886 360.647 119.517 360.697 119.549Z" fill="#E0E0E0"/>
<path d="M344.335 410.459C344.335 410.603 267.247 410.719 172.176 410.719C77.072 410.719 0 410.603 0 410.459C0 410.314 77.072 410.198 172.176 410.198C267.247 410.199 344.335 410.315 344.335 410.459Z" fill="#263238"/>
<path d="M265.471 356.724C248.587 345.671 244.299 324.511 244.487 305.395C244.519 302.203 244.082 298.85 245.55 296.016C247.019 293.181 250.557 291.184 253.483 292.458C255.909 293.515 257.023 296.244 258.421 298.491C260.28 301.478 263.003 303.924 266.172 305.452C268.255 306.457 270.816 307.04 272.82 305.886C275.57 304.302 275.805 300.495 275.707 297.322C275.525 291.414 275.343 285.504 275.161 279.594C275.063 276.423 274.973 273.187 275.9 270.153C276.825 267.119 278.964 264.27 282 263.352C285.036 262.434 288.859 264.083 289.581 267.171C289.881 268.457 289.647 269.804 289.769 271.118C289.891 272.431 290.549 273.874 291.825 274.211C293.115 274.552 294.379 273.621 295.318 272.671C298.556 269.39 300.705 265.211 302.707 261.059C304.71 256.907 306.648 252.66 309.572 249.095C312.495 245.531 316.591 242.663 321.185 242.296C325.781 241.929 330.752 244.615 332.025 249.046C333.301 253.488 330.768 258.087 327.982 261.775C323.848 267.247 318.917 272.115 313.394 276.18C312.398 276.913 311.319 277.707 310.96 278.891C310.314 281.021 312.396 283.074 314.527 283.718C316.942 284.447 319.535 284.14 322.047 284.371C324.56 284.602 327.301 285.627 328.307 287.941C329.702 291.153 327.038 294.615 324.39 296.904C319.087 301.489 312.993 305.158 306.459 307.698C304.116 308.609 301.648 309.417 299.782 311.101C297.916 312.786 296.836 315.664 298.041 317.869C299.248 320.078 302.222 320.721 304.687 320.209C307.152 319.697 309.335 318.317 311.673 317.383C316.048 315.632 321.758 315.797 324.679 319.495C326.599 321.927 326.847 325.37 325.979 328.344C325.112 331.318 323.268 333.905 321.301 336.297C314.425 344.661 305.526 351.475 295.368 355.226C285.209 358.979 275.741 360.155 265.471 356.724Z" fill="#838383"/>
<path d="M327.275 244.808C327.275 244.808 327.176 244.917 326.967 245.113C326.74 245.32 326.429 245.605 326.029 245.97C325.203 246.723 323.986 247.833 322.46 249.305C319.403 252.241 315.116 256.654 310.492 262.663C308.17 265.658 305.765 269.046 303.249 272.727C300.741 276.415 298.086 280.373 295.454 284.636C292.82 288.898 290.191 293.461 287.852 298.382C286.672 300.837 285.629 303.402 284.566 306.015C283.508 308.628 282.435 311.279 281.349 313.96C277.044 324.705 273.28 335.084 270.649 344.759C267.999 354.425 266.503 363.363 265.94 370.918C265.361 378.478 265.675 384.627 266.097 388.842C266.32 390.949 266.528 392.583 266.709 393.685C266.787 394.22 266.849 394.638 266.894 394.942C266.934 395.226 266.94 395.374 266.94 395.374C266.94 395.374 266.407 393.082 265.911 388.862C265.432 384.645 265.064 378.48 265.603 370.894C266.124 363.313 267.589 354.34 270.222 344.643C272.836 334.938 276.595 324.535 280.903 313.783C281.99 311.1 283.065 308.449 284.124 305.836C285.186 303.229 286.239 300.646 287.428 298.181C289.783 293.242 292.428 288.668 295.078 284.405C297.726 280.138 300.397 276.184 302.922 272.504C305.455 268.829 307.88 265.446 310.225 262.457C314.896 256.459 319.232 252.068 322.332 249.172C323.881 247.719 325.118 246.629 325.966 245.901C326.379 245.55 326.701 245.277 326.935 245.078C327.155 244.893 327.275 244.808 327.275 244.808Z" fill="#263238"/>
<path d="M287.547 298.13C287.515 298.136 287.4 297.655 287.221 296.78C287.038 295.907 286.811 294.635 286.551 293.062C286.029 289.914 285.451 285.544 284.826 280.722C284.201 275.899 283.548 271.549 282.959 268.42C282.669 266.855 282.419 265.59 282.233 264.719C282.052 263.847 281.967 263.361 282 263.352C282.032 263.344 282.178 263.816 282.415 264.676C282.657 265.535 282.958 266.793 283.291 268.354C283.968 271.475 284.675 275.832 285.301 280.66C285.914 285.44 286.468 289.765 286.885 293.012C287.094 294.524 287.27 295.78 287.405 296.75C287.528 297.632 287.58 298.123 287.547 298.13Z" fill="#263238"/>
<path d="M328.672 289.524C328.673 289.541 328.527 289.567 328.249 289.603C327.914 289.64 327.512 289.684 327.028 289.737C325.969 289.848 324.437 290.005 322.549 290.262C318.774 290.744 313.582 291.602 307.898 292.799C302.214 294.008 297.119 295.323 293.463 296.387C291.631 296.906 290.161 297.366 289.143 297.68C288.678 297.821 288.291 297.939 287.968 298.037C287.698 298.114 287.553 298.146 287.547 298.131C287.542 298.115 287.676 298.053 287.936 297.946C288.25 297.826 288.628 297.679 289.083 297.506C290.083 297.137 291.541 296.625 293.365 296.064C297.005 294.917 302.101 293.544 307.799 292.332C313.496 291.131 318.713 290.325 322.509 289.928C324.405 289.714 325.947 289.607 327.012 289.553C327.499 289.535 327.903 289.52 328.24 289.508C328.522 289.501 328.671 289.507 328.672 289.524Z" fill="#263238"/>
<path d="M270.663 343.867C270.648 343.874 270.55 343.704 270.378 343.372C270.187 342.992 269.944 342.508 269.644 341.91C269.011 340.639 268.14 338.776 267.093 336.462C264.995 331.836 262.293 325.358 259.403 318.17C256.511 310.981 253.862 304.49 251.846 299.834C250.846 297.551 250.029 295.685 249.436 294.327C249.169 293.715 248.953 293.218 248.784 292.829C248.64 292.483 248.571 292.299 248.586 292.292C248.601 292.285 248.698 292.455 248.871 292.787C249.061 293.167 249.304 293.651 249.604 294.249C250.237 295.521 251.107 297.383 252.154 299.697C254.253 304.323 256.955 310.801 259.845 317.991C262.736 325.177 265.384 331.668 267.401 336.325C268.4 338.607 269.217 340.474 269.811 341.831C270.078 342.444 270.293 342.941 270.462 343.331C270.609 343.675 270.678 343.86 270.663 343.867Z" fill="#263238"/>
<path d="M325.131 325.094C325.135 325.11 324.948 325.187 324.588 325.319C324.178 325.462 323.652 325.647 323.003 325.874C321.567 326.367 319.586 327.047 317.164 327.878C312.237 329.576 305.459 332.005 297.978 334.706C290.494 337.408 283.694 339.789 278.735 341.405C276.255 342.216 274.244 342.851 272.846 343.264C272.185 343.457 271.65 343.614 271.234 343.735C270.863 343.837 270.667 343.882 270.662 343.867C270.657 343.851 270.844 343.774 271.205 343.642C271.615 343.498 272.14 343.315 272.789 343.087C274.224 342.594 276.205 341.915 278.627 341.084C283.555 339.387 290.332 336.956 297.816 334.254C305.297 331.554 312.098 329.173 317.055 327.556C319.534 326.747 321.547 326.111 322.945 325.697C323.605 325.505 324.14 325.348 324.557 325.227C324.93 325.124 325.126 325.079 325.131 325.094Z" fill="#263238"/>
<path d="M175.942 169.927L173.809 410.459H269.088V173.206L175.942 169.927Z" fill="#B6B6B6"/>
<path d="M178.937 209.898V243.614H224.068V211.491L178.937 209.898Z" fill="#D7D7D7"/>
<path d="M227.272 171.734L226.429 410.459H269.088V173.206L227.272 171.734Z" fill="#D7D7D7"/>
<path d="M178.937 172.894V206.61H224.068V174.487L178.937 172.894Z" fill="#D7D7D7"/>
<path d="M194.496 182.169V187.149H208.303V181.716L194.496 182.169Z" fill="#D7D7D7"/>
<path d="M208.756 191.336H194.496V193.373H208.756V191.336Z" fill="#D7D7D7"/>
<g opacity="0.4">
<path d="M194.496 182.169V187.149H208.303V181.716L194.496 182.169Z" fill="black"/>
<path d="M208.756 191.336H194.496V193.373H208.756V191.336Z" fill="black"/>
</g>
<path d="M178.937 291.042V324.757H224.068V292.635L178.937 291.042Z" fill="#D7D7D7"/>
<path d="M194.496 300.317V305.297H208.303V299.865L194.496 300.317Z" fill="#D7D7D7"/>
<path d="M208.756 309.485H194.496V311.522H208.756V309.485Z" fill="#D7D7D7"/>
<g opacity="0.4">
<path d="M194.496 300.317V305.297H208.303V299.865L194.496 300.317Z" fill="black"/>
<path d="M208.756 309.485H194.496V311.522H208.756V309.485Z" fill="black"/>
</g>
<path d="M178.937 329.042V362.758H224.068V330.635L178.937 329.042Z" fill="#D7D7D7"/>
<path d="M194.496 338.318V343.297H208.303V337.865L194.496 338.318Z" fill="#D7D7D7"/>
<path d="M208.756 347.485H194.496V349.522H208.756V347.485Z" fill="#D7D7D7"/>
<g opacity="0.4">
<path d="M194.496 338.318V343.297H208.303V337.865L194.496 338.318Z" fill="black"/>
<path d="M208.756 347.485H194.496V349.522H208.756V347.485Z" fill="black"/>
</g>
<path d="M178.451 367.042V400.758H223.582V368.635L178.451 367.042Z" fill="#D7D7D7"/>
<path d="M194.009 376.318V381.297H207.817V375.865L194.009 376.318Z" fill="#D7D7D7"/>
<path d="M208.27 385.485H194.009V387.522H208.27V385.485Z" fill="#D7D7D7"/>
<g opacity="0.4">
<path d="M194.009 376.318V381.297H207.817V375.865L194.009 376.318Z" fill="black"/>
<path d="M208.27 385.485H194.009V387.522H208.27V385.485Z" fill="black"/>
</g>
<path d="M178.076 249.641H132.945V283.357H178.076V249.641Z" fill="#B6B6B6"/>
<path d="M148.808 264.836V269.518H161.787V264.412L148.808 264.836Z" fill="#D7D7D7"/>
<path d="M162.213 273.454H148.808V275.369H162.213V273.454Z" fill="#D7D7D7"/>
<g opacity="0.4">
<path d="M148.808 264.836V269.518H161.787V264.412L148.808 264.836Z" fill="black"/>
<path d="M162.213 273.454H148.808V275.369H162.213V273.454Z" fill="black"/>
</g>
<path d="M178.076 249.641L222.561 249.314L221.75 283.357H178.076V249.641Z" fill="#D7D7D7"/>
<path opacity="0.4" d="M178.076 249.641L222.561 249.314L221.75 283.357H178.076V249.641Z" fill="black"/>
<path d="M220.985 219.03H176.5V249.314H220.985V219.03Z" fill="#FAFAFA"/>
<path d="M165.716 223.851L167.958 249.583L220.985 249.314L217.812 224.124C217.676 222.561 216.175 221.414 214.459 221.563L193.065 223.427L189.422 220.727C189.105 220.492 188.698 220.381 188.288 220.417L167.161 222.279C166.295 222.357 165.647 223.06 165.716 223.851Z" fill="#D7D7D7"/>
<path d="M165.716 223.851L167.958 249.583L220.985 249.314L217.812 224.124C217.676 222.561 216.175 221.414 214.459 221.563L193.065 223.427L189.422 220.727C189.105 220.492 188.698 220.381 188.288 220.417L167.161 222.279C166.295 222.357 165.647 223.06 165.716 223.851Z" fill="#838383"/>
<path d="M150.501 242.883L149.388 236.182L198.418 232.944L202.725 249.572L151.472 249.314L150.501 242.883Z" fill="#FAFAFA"/>
<path d="M144.243 239.623L145.111 249.584H197.56L196.34 239.896C196.204 238.332 194.703 237.186 192.987 237.335L171.593 239.199L167.95 236.499C167.633 236.264 167.226 236.153 166.816 236.189L145.69 238.051C144.822 238.128 144.174 238.831 144.243 239.623Z" fill="#838383"/>
<path opacity="0.7" d="M144.243 239.623L145.111 249.584H197.56L196.34 239.896C196.204 238.332 194.703 237.186 192.987 237.335L171.593 239.199L167.95 236.499C167.633 236.264 167.226 236.153 166.816 236.189L145.69 238.051C144.822 238.128 144.174 238.831 144.243 239.623Z" fill="#FAFAFA"/>
<path d="M199.582 237.44H206.546C207.675 237.44 208.511 238.492 208.255 239.592L205.999 249.304H202.724L199.582 237.44Z" fill="#D7D7D7"/>
<path d="M291.31 103.476L260.209 110.163C259.12 110.397 258.054 109.672 257.828 108.543L253.62 87.508C253.394 86.379 254.094 85.274 255.183 85.04L286.284 78.353C287.373 78.119 288.439 78.844 288.665 79.973L292.873 101.008C293.098 102.138 292.398 103.243 291.31 103.476Z" fill="#838383"/>
<path d="M274.105 91.847L278.866 93.4971L275.107 96.946L271.348 100.394L270.346 95.295L269.345 90.196L274.105 91.847Z" fill="#FAFAFA"/>
<path d="M232.371 92.4739C232.371 92.4739 232.471 92.3299 232.686 92.0679C232.903 91.8069 233.217 91.4119 233.613 90.8829C234.399 89.8229 235.517 88.2129 236.588 85.9449C237.12 84.8109 237.642 83.5159 238.082 82.0569C238.513 80.5989 238.859 78.9679 239.289 77.2349C240.129 73.7589 241.083 69.8059 242.139 65.4379C243.2 61.0659 244.361 56.2799 245.608 51.1429C245.919 49.8649 246.215 48.5349 246.703 47.2389C247.182 45.9439 247.804 44.6789 248.549 43.4659C249.307 42.2609 250.186 41.1049 251.202 40.0499C251.707 39.5199 252.248 39.0169 252.812 38.5349L252.865 38.4889L252.891 38.4659C253.096 39.2829 252.929 38.6879 252.966 38.8679L252.832 38.8349L252.564 38.7699L252.026 38.6389L250.946 38.3759C245.17 36.9659 239.107 35.4859 232.822 33.9529C229.68 33.1849 226.482 32.4029 223.237 31.6089C221.614 31.2119 219.98 30.8119 218.335 30.4089C217.513 30.2079 216.687 30.0059 215.859 29.8029L215.704 29.7649L215.625 29.7449C215.579 29.7409 215.881 29.7279 215.736 29.7409L215.699 29.7549L215.406 29.8689L214.819 30.0989C214.441 30.2839 214.047 30.4359 213.681 30.6469C210.687 32.2109 208.272 34.7529 206.855 37.7179C206.107 39.1949 205.727 40.7779 205.374 42.3939C205.004 43.9969 204.638 45.5869 204.274 47.1639C202.818 53.4679 201.414 59.5489 200.076 65.3429C199.737 66.7919 199.402 68.2229 199.072 69.6359C198.713 71.0499 198.266 72.4219 197.733 73.7359C196.67 76.3669 195.291 78.7769 193.701 80.9099C193.306 81.4449 192.894 81.9609 192.471 82.4599L192.313 82.6479L192.234 82.7419C192.019 82.0589 192.191 82.5569 192.151 82.4059L192.18 82.4129L192.239 82.4269L192.709 82.5429L193.642 82.7729C194.88 83.0789 196.096 83.3789 197.287 83.6739C199.669 84.2629 201.956 84.8289 204.139 85.3689C212.85 87.5379 219.906 89.2959 224.807 90.5159C227.227 91.1299 229.115 91.6099 230.42 91.9409C231.044 92.1049 231.528 92.2319 231.877 92.3239C232.207 92.4149 232.371 92.4739 232.371 92.4739C232.371 92.4739 232.198 92.4499 231.866 92.3779C231.514 92.2979 231.027 92.1869 230.397 92.0449C229.086 91.7359 227.191 91.2889 224.761 90.7149C219.85 89.5319 212.78 87.8299 204.053 85.7279C201.867 85.1979 199.578 84.6439 197.193 84.0649C196.001 83.7749 194.784 83.4799 193.544 83.1789L192.61 82.9519L192.14 82.8379L192.081 82.8229L192.052 82.8159C191.994 82.6599 192.139 83.1549 191.915 82.4639L191.992 82.3709L192.146 82.1849C192.562 81.6919 192.966 81.1809 193.354 80.6509C194.915 78.5399 196.267 76.1599 197.307 73.5639C198.393 70.9779 198.935 68.1339 199.608 65.2339C200.937 59.4369 202.332 53.3529 203.777 47.0459C204.139 45.4689 204.504 43.8779 204.872 42.2749C205.218 40.6819 205.618 39.0089 206.388 37.4929C207.85 34.4299 210.345 31.8019 213.438 30.1859C213.816 29.9689 214.223 29.8099 214.614 29.6199L215.22 29.3829L215.523 29.2649L215.561 29.2499C215.441 29.2499 215.768 29.2319 215.748 29.2389L215.826 29.2579L215.981 29.2959C216.809 29.4989 217.634 29.7009 218.457 29.9019C220.102 30.3049 221.736 30.7059 223.359 31.1039C226.604 31.8999 229.8 32.6849 232.942 33.4549C239.224 34.9989 245.284 36.4889 251.058 37.9079L252.137 38.1739L252.674 38.3059L252.942 38.3719L253.076 38.4049C253.124 38.5929 253.015 37.9949 253.193 38.8289L253.167 38.8509L253.116 38.8949C252.563 39.3649 252.034 39.8549 251.538 40.3719C250.542 41.4019 249.68 42.5299 248.935 43.7059C248.203 44.8909 247.591 46.1259 247.118 47.3929C246.638 48.6569 246.344 49.9569 246.025 51.2449C244.756 56.3759 243.574 61.1579 242.495 65.5249C241.412 69.8859 240.432 73.8339 239.57 77.3039C239.127 79.0339 238.768 80.6559 238.318 82.1299C237.86 83.5969 237.32 84.8969 236.77 86.0319C235.663 88.3039 234.51 89.9039 233.695 90.9469C232.871 91.9869 232.371 92.4739 232.371 92.4739Z" fill="#263238"/>
<path d="M239.003 49.5869C238.995 49.6219 238.596 49.5609 237.883 49.4199C237.17 49.2789 236.143 49.0579 234.876 48.7739C232.343 48.2029 228.85 47.3839 225.011 46.4019C221.169 45.4219 217.713 44.4529 215.225 43.7059C213.981 43.3329 212.977 43.0189 212.288 42.7879C211.599 42.5579 211.223 42.4139 211.232 42.3789C211.242 42.3449 211.637 42.4229 212.344 42.5929C213.156 42.7999 214.151 43.0529 215.323 43.3509C217.953 44.0329 221.365 44.9179 225.139 45.8969C228.915 46.8649 232.33 47.7409 234.963 48.4159C236.131 48.7329 237.122 49.0029 237.931 49.2229C238.629 49.4239 239.011 49.5519 239.003 49.5869Z" fill="#263238"/>
<path d="M238.312 53.7729C238.304 53.8079 237.905 53.7469 237.192 53.6049C236.479 53.4639 235.452 53.2429 234.185 52.9589C231.652 52.3879 228.159 51.5689 224.32 50.5869C220.478 49.6079 217.022 48.6379 214.534 47.8909C213.29 47.5179 212.287 47.2039 211.598 46.9729C210.909 46.7429 210.533 46.5989 210.543 46.5639C210.553 46.5289 210.948 46.6069 211.654 46.7779C212.466 46.9849 213.461 47.2379 214.634 47.5359C217.264 48.2179 220.676 49.1029 224.45 50.0819C228.226 51.0499 231.641 51.9259 234.274 52.6009C235.442 52.9179 236.433 53.1879 237.242 53.4079C237.938 53.6099 238.32 53.7379 238.312 53.7729Z" fill="#263238"/>
<path d="M237.341 57.9588C237.332 57.9938 236.934 57.9318 236.221 57.7908C235.508 57.6498 234.481 57.4288 233.214 57.1448C230.681 56.5738 227.188 55.7548 223.348 54.7728C219.507 53.7938 216.05 52.8238 213.562 52.0768C212.318 51.7038 211.315 51.3898 210.626 51.1588C209.937 50.9288 209.561 50.7848 209.57 50.7498C209.58 50.7148 209.975 50.7938 210.681 50.9638C211.494 51.1708 212.488 51.4238 213.661 51.7218C216.291 52.4038 219.703 53.2888 223.477 54.2678C227.253 55.2358 230.667 56.1108 233.301 56.7868C234.469 57.1038 235.46 57.3738 236.269 57.5938C236.967 57.7958 237.349 57.9238 237.341 57.9588Z" fill="#263238"/>
<path d="M236.446 62.1449C236.438 62.1799 236.039 62.1189 235.326 61.9769C234.613 61.8359 233.586 61.6149 232.319 61.3309C229.786 60.7599 226.293 59.9409 222.453 58.9589C218.612 57.9789 215.155 57.0099 212.667 56.2629C211.423 55.8889 210.42 55.5759 209.73 55.3439C209.041 55.1139 208.665 54.9709 208.674 54.9359C208.684 54.9009 209.079 54.9799 209.786 55.1489C210.598 55.3559 211.593 55.6089 212.765 55.9079C215.395 56.5899 218.807 57.4749 222.581 58.4539C226.357 59.4219 229.772 60.2969 232.405 60.9719C233.572 61.2899 234.564 61.5589 235.373 61.7789C236.072 61.9819 236.454 62.1099 236.446 62.1449Z" fill="#263238"/>
<path d="M235.091 66.3308C235.082 66.3658 234.684 66.3048 233.971 66.1638C233.258 66.0228 232.23 65.8018 230.964 65.5178C228.43 64.9468 224.938 64.1278 221.098 63.1458C217.256 62.1658 213.8 61.1968 211.312 60.4498C210.068 60.0768 209.065 59.7628 208.376 59.5318C207.687 59.3018 207.31 59.1578 207.32 59.1228C207.33 59.0888 207.725 59.1668 208.431 59.3368C209.243 59.5428 210.238 59.7968 211.411 60.0948C214.041 60.7768 217.453 61.6618 221.227 62.6408C225.003 63.6088 228.418 64.4848 231.051 65.1598C232.219 65.4768 233.21 65.7468 234.019 65.9668C234.717 66.1678 235.1 66.2958 235.091 66.3308Z" fill="#263238"/>
<path d="M234.113 70.5169C234.105 70.5519 233.707 70.4909 232.994 70.3499C232.281 70.2089 231.253 69.9879 229.987 69.7039C227.453 69.1329 223.961 68.3139 220.121 67.3319C216.279 66.3519 212.823 65.3819 210.335 64.6359C209.091 64.2629 208.088 63.9489 207.399 63.7179C206.71 63.4879 206.334 63.3439 206.344 63.3089C206.354 63.2749 206.749 63.3519 207.455 63.5229C208.267 63.7289 209.262 63.9829 210.435 64.2809C213.065 64.9629 216.477 65.8479 220.251 66.8269C224.027 67.7949 227.442 68.6709 230.075 69.3459C231.243 69.6629 232.234 69.9329 233.043 70.1529C233.74 70.3539 234.122 70.4819 234.113 70.5169Z" fill="#263238"/>
<path d="M232.873 74.86C232.865 74.895 232.466 74.834 231.753 74.693C231.04 74.552 230.013 74.331 228.746 74.047C226.213 73.477 222.72 72.657 218.88 71.676C215.039 70.696 211.582 69.727 209.094 68.98C207.85 68.607 206.846 68.292 206.157 68.061C205.468 67.831 205.092 67.687 205.101 67.653C205.111 67.618 205.506 67.696 206.212 67.866C207.025 68.073 208.02 68.326 209.192 68.625C211.822 69.307 215.234 70.192 219.008 71.171C222.784 72.139 226.199 73.014 228.832 73.69C230 74.007 230.991 74.277 231.8 74.497C232.499 74.697 232.881 74.825 232.873 74.86Z" fill="#263238"/>
<path d="M231.96 79.0239C231.943 79.0939 231.026 78.9379 229.557 78.6309C228.088 78.3199 226.067 77.8709 223.843 77.3089C221.619 76.7259 219.644 76.1169 218.207 75.6809C216.773 75.2369 215.895 74.9309 215.915 74.8599C215.933 74.7919 216.846 74.9719 218.305 75.3259C219.765 75.6709 221.767 76.2269 223.973 76.8049C226.187 77.3649 228.198 77.8719 229.643 78.2739C231.09 78.6719 231.976 78.9549 231.96 79.0239Z" fill="#263238"/>
<path d="M167.539 178.038L133.369 191.454C130.55 173.782 124.928 158.203 117.663 143.851L138.648 134.825C146.739 131.345 156.07 135.431 159.048 143.72C163.082 154.95 165.967 166.38 167.539 178.038Z" fill="#FAFAFA"/>
<path d="M167.539 178.038C167.539 178.038 167.503 177.886 167.455 177.605C167.405 177.304 167.337 176.896 167.251 176.373C167.078 175.299 166.811 173.683 166.437 171.624C165.67 167.504 164.425 161.557 162.312 154.351C161.773 152.553 161.204 150.67 160.553 148.726C159.891 146.794 159.257 144.73 158.399 142.726C157.506 140.742 156.159 138.861 154.371 137.372C152.587 135.886 150.403 134.772 148.016 134.209C145.628 133.647 143.04 133.725 140.571 134.415C139.949 134.571 139.359 134.844 138.745 135.054C138.14 135.315 137.531 135.577 136.92 135.841C135.697 136.368 134.462 136.9 133.216 137.438C128.229 139.585 123.063 141.81 117.766 144.09L117.895 143.734C118.165 144.279 118.458 144.868 118.751 145.459C122.751 153.542 125.99 161.637 128.424 169.417C130.871 177.196 132.496 184.652 133.58 191.42L133.29 191.255C143.603 187.253 152.134 183.943 158.113 181.623C161.09 180.48 163.431 179.581 165.053 178.958C165.84 178.661 166.452 178.43 166.89 178.265C167.309 178.109 167.539 178.038 167.539 178.038C167.539 178.038 167.347 178.132 166.947 178.299C166.521 178.473 165.926 178.716 165.161 179.028C163.557 179.672 161.243 180.601 158.299 181.782C152.313 184.159 143.773 187.552 133.447 191.653L133.2 191.751L133.157 191.487C132.048 184.742 130.405 177.314 127.95 169.565C125.509 161.814 122.273 153.749 118.284 145.688C117.991 145.099 117.7 144.511 117.43 143.968L117.307 143.72L117.56 143.612C122.859 141.335 128.027 139.114 133.015 136.971C134.262 136.436 135.498 135.906 136.722 135.38C137.334 135.117 137.943 134.856 138.549 134.596C139.182 134.379 139.792 134.1 140.435 133.94C142.987 133.232 145.662 133.159 148.124 133.745C150.585 134.331 152.832 135.488 154.664 137.025C156.5 138.565 157.88 140.507 158.79 142.551C159.663 144.618 160.272 146.651 160.932 148.602C161.573 150.554 162.133 152.444 162.662 154.249C164.735 161.483 165.928 167.454 166.635 171.589C166.98 173.662 167.214 175.262 167.356 176.373C167.419 176.905 167.468 177.32 167.505 177.625C167.534 177.903 167.546 178.042 167.539 178.038Z" fill="#263238"/>
<path d="M139.809 134.383C139.809 134.383 144.905 144.846 144.457 145.213C144.043 145.551 157.119 140.329 157.278 140.248C157.278 140.248 150.492 131.112 139.809 134.383Z" fill="#263238"/>
<path d="M137.891 148.489C137.947 148.621 135.877 149.623 133.269 150.725C130.66 151.828 128.5 152.614 128.444 152.481C128.388 152.349 130.457 151.348 133.066 150.245C135.674 149.143 137.835 148.357 137.891 148.489Z" fill="#263238"/>
<path d="M154.858 146.983C154.918 147.114 149.378 149.8 142.485 152.982C135.59 156.165 129.953 158.639 129.893 158.508C129.833 158.377 135.372 155.692 142.267 152.509C149.16 149.327 154.798 146.853 154.858 146.983Z" fill="#263238"/>
<path d="M157.158 153.131C157.219 153.261 151.678 155.947 144.786 159.13C137.891 162.313 132.254 164.787 132.194 164.656C132.133 164.526 137.673 161.84 144.568 158.657C151.46 155.475 157.098 153 157.158 153.131Z" fill="#263238"/>
<path d="M159.508 159.253C159.569 159.383 154.028 162.069 147.136 165.252C140.24 168.435 134.604 170.909 134.544 170.778C134.483 170.648 140.023 167.962 146.918 164.779C153.81 161.597 159.448 159.122 159.508 159.253Z" fill="#263238"/>
<path d="M152.9 170.601C152.929 170.667 152.04 171.129 150.579 171.824C149.119 172.519 147.086 173.446 144.828 174.44C141.285 176 138.24 177.262 137.093 177.658L136.935 177.713L136.97 177.564C137.056 177.2 137.115 177.022 137.145 177.026C137.175 177.031 137.176 177.219 137.145 177.592L137.022 177.497C138.088 176.918 141.076 175.524 144.619 173.964C146.877 172.97 148.933 172.096 150.431 171.488C151.93 170.879 152.871 170.536 152.9 170.601Z" fill="#263238"/>
<path d="M311.173 177.174L273.247 160.749C277.234 157.453 280.357 153.234 282.346 148.458L293.42 121.869C295.549 116.952 300.013 113.439 305.293 112.525L340.472 127.76C336.668 129.971 333.672 133.343 331.923 137.381L319.306 166.514C317.503 170.677 314.712 174.336 311.173 177.174Z" fill="#838383"/>
<path opacity="0.7" d="M311.173 177.174L273.247 160.749C277.234 157.453 280.357 153.234 282.346 148.458L293.42 121.869C295.549 116.952 300.013 113.439 305.293 112.525L340.472 127.76C336.668 129.971 333.672 133.343 331.923 137.381L319.306 166.514C317.503 170.677 314.712 174.336 311.173 177.174Z" fill="#FAFAFA"/>
<path d="M324.843 138.778C324.785 138.91 318.571 136.314 310.964 132.98C303.355 129.645 297.235 126.836 297.293 126.704C297.351 126.573 303.564 129.168 311.173 132.503C318.78 135.836 324.901 138.646 324.843 138.778Z" fill="#263238"/>
<path d="M323.292 144.002C323.234 144.134 316.812 141.446 308.948 138C301.082 134.553 294.755 131.653 294.813 131.521C294.871 131.389 301.292 134.076 309.158 137.523C317.021 140.969 323.35 143.87 323.292 144.002Z" fill="#263238"/>
<path d="M321.268 148.621C321.21 148.753 314.788 146.065 306.925 142.62C299.059 139.173 292.732 136.272 292.789 136.141C292.847 136.009 299.268 138.696 307.134 142.143C314.997 145.588 321.325 148.489 321.268 148.621Z" fill="#263238"/>
<path d="M319.243 153.24C319.185 153.372 312.763 150.684 304.9 147.239C297.034 143.792 290.707 140.891 290.764 140.76C290.822 140.628 297.243 143.315 305.109 146.762C312.972 150.208 319.301 153.108 319.243 153.24Z" fill="#263238"/>
<path d="M317.219 157.859C317.161 157.991 310.739 155.304 302.876 151.858C295.01 148.411 288.683 145.511 288.74 145.379C288.798 145.248 295.219 147.934 303.085 151.381C310.948 154.827 317.277 157.728 317.219 157.859Z" fill="#263238"/>
<path d="M301.503 156.478C301.474 156.544 300.621 156.241 299.264 155.698C297.907 155.155 296.047 154.372 294.006 153.477C291.964 152.582 290.128 151.745 288.808 151.116C287.489 150.487 286.688 150.064 286.717 149.998C286.746 149.932 287.599 150.235 288.956 150.778C290.313 151.321 292.173 152.105 294.215 153C296.257 153.894 298.093 154.731 299.412 155.361C300.73 155.99 301.531 156.412 301.503 156.478Z" fill="#263238"/>
<path d="M311.055 167.139C311.009 167.121 311.164 166.773 311.25 166.118C311.333 165.475 311.298 164.47 310.712 163.459C310.157 162.459 308.948 161.514 307.422 161.433C305.923 161.317 304.199 162.21 303.507 163.829C302.785 165.437 303.297 167.311 304.398 168.334C305.493 169.402 307.006 169.65 308.118 169.38C309.257 169.125 310.02 168.471 310.437 167.973C310.86 167.466 311.011 167.117 311.055 167.139C311.076 167.145 310.99 167.526 310.597 168.098C310.211 168.658 309.436 169.412 308.205 169.739C307.005 170.08 305.314 169.859 304.067 168.682C302.813 167.558 302.211 165.44 303.029 163.621C303.812 161.788 305.777 160.794 307.453 160.955C309.163 161.074 310.473 162.167 311.034 163.281C311.628 164.408 311.599 165.489 311.449 166.152C311.295 166.829 311.074 167.15 311.055 167.139Z" fill="#263238"/>
<path d="M310.534 126.348L299.548 121.533L298.854 123.117L309.84 127.932L310.534 126.348Z" fill="#263238"/>
<path d="M289.222 224.194L248.279 223.236L263.511 202.836H303.464L289.222 224.194Z" fill="#838383"/>
<path d="M254.357 220.179L286.745 221.163L282.246 214.549L275.872 217.278L270.833 208.563L254.357 220.179Z" fill="#838383"/>
<path d="M281.388 208.504C281.388 209.663 280.448 210.604 279.289 210.604C278.13 210.604 277.19 209.663 277.19 208.504C277.19 207.345 278.13 206.404 279.289 206.404C280.448 206.405 281.388 207.345 281.388 208.504Z" fill="#838383"/>
<g opacity="0.7">
<path d="M254.357 220.179L286.745 221.163L282.246 214.549L275.872 217.278L270.833 208.563L254.357 220.179Z" fill="#FAFAFA"/>
<path d="M281.388 208.504C281.388 209.663 280.448 210.604 279.289 210.604C278.13 210.604 277.19 209.663 277.19 208.504C277.19 207.345 278.13 206.404 279.289 206.404C280.448 206.405 281.388 207.345 281.388 208.504Z" fill="#FAFAFA"/>
</g>
<path d="M178.163 104.285L142.094 120.31L141.235 92.8278L177.267 75.7988L178.163 104.285Z" fill="#838383"/>
<path opacity="0.7" d="M178.163 104.285L142.094 120.31L141.235 92.8278L177.267 75.7988L178.163 104.285Z" fill="#FAFAFA"/>
<path d="M143.693 115.472L176.424 100.214L165.787 94.0339L161.695 101.234L149.684 95.4649L143.693 115.472Z" fill="#838383"/>
<path d="M162.234 94.0338C162.234 95.0078 161.444 95.7978 160.47 95.7978C159.496 95.7978 158.706 95.0078 158.706 94.0338C158.706 93.0588 159.496 92.2688 160.47 92.2688C161.445 92.2688 162.234 93.0588 162.234 94.0338Z" fill="#838383"/>
<path d="M155.101 92.219C155.026 92.225 155.101 91.104 154.612 89.192C154.128 87.316 152.874 84.56 150.053 82.43C148.655 81.389 146.896 80.506 144.869 80.153C142.855 79.813 140.585 79.88 138.425 80.705C137.338 81.084 136.29 81.656 135.327 82.378C134.353 83.086 133.469 83.964 132.741 84.982C131.235 86.987 130.386 89.563 130.362 92.218C130.386 94.874 131.234 97.45 132.74 99.456C133.469 100.474 134.353 101.353 135.327 102.061C136.29 102.783 137.338 103.355 138.426 103.734C140.586 104.559 142.857 104.626 144.87 104.286C146.897 103.932 148.657 103.049 150.055 102.009C152.876 99.879 154.13 97.122 154.614 95.247C155.101 93.333 155.026 92.213 155.101 92.219C155.119 92.219 155.123 92.493 155.113 93.019C155.115 93.282 155.102 93.607 155.04 93.987C154.991 94.369 154.944 94.812 154.809 95.295C154.377 97.215 153.153 100.067 150.277 102.301C148.852 103.392 147.045 104.324 144.949 104.71C142.868 105.082 140.512 105.029 138.261 104.185C137.129 103.796 136.035 103.207 135.03 102.46C134.013 101.727 133.09 100.816 132.328 99.758C130.754 97.674 129.863 94.985 129.84 92.217C129.864 89.45 130.755 86.762 132.329 84.678C133.091 83.621 134.014 82.709 135.031 81.977C136.036 81.23 137.129 80.641 138.261 80.252C140.512 79.408 142.866 79.355 144.947 79.727C147.043 80.112 148.851 81.045 150.275 82.136C153.151 84.369 154.377 87.222 154.808 89.142C154.943 89.625 154.99 90.068 155.039 90.45C155.102 90.83 155.114 91.155 155.112 91.419C155.123 91.944 155.119 92.219 155.101 92.219Z" fill="#263238"/>
<path d="M134.335 101.453C134.431 101.561 130.735 104.992 126.083 109.116C121.429 113.242 117.58 116.498 117.484 116.39C117.389 116.283 121.083 112.852 125.737 108.726C130.39 104.603 134.24 101.346 134.335 101.453Z" fill="#263238"/>
<path d="M56.255 149.581C52.811 147.726 47.66 148.864 45.569 152.17C44.142 154.428 43.963 157.261 44.231 159.919C44.5 162.576 45.171 165.189 45.288 167.858C45.351 169.296 45.246 170.766 44.717 172.104C44.188 173.442 43.191 174.64 41.856 175.176C39.802 176.001 37.24 175.203 35.411 176.448C33.704 177.61 33.501 180.338 34.84 181.909C36.178 183.481 38.664 183.804 40.502 182.863C38.578 184.655 38.938 188.105 40.889 189.868C42.84 191.631 45.866 191.826 48.311 190.857C50.756 189.888 52.688 187.935 54.229 185.803C58.064 180.497 59.838 173.86 59.829 167.313C59.82 160.766 58.511 155.462 55.888 149.464" fill="#888888"/>
<path d="M168.567 207.947C167.411 206.088 159.432 210.531 158.728 210.857C158.046 211.173 157.53 210.178 158.18 209.918C159.115 209.544 168.84 205.369 167.722 203.531C167.101 202.513 165.376 203.797 165.376 203.797C165.376 203.797 156.566 208.373 156.066 207.488C155.559 206.59 160.642 203.728 162.425 202.886C164.185 202.052 164.505 200.875 163.488 200.402C162.795 200.08 157.276 202.535 155.533 203.41C153.79 204.285 149.053 206.771 150.391 203.646C151.729 200.52 151.58 197.614 150.993 196.855C150.406 196.096 149.136 196.638 149.164 197.693C149.187 198.546 148.784 199.978 148.438 201.043C148.152 201.921 147.725 202.747 147.162 203.479C146.506 204.332 145.916 205.028 145.399 205.608C140.311 207.386 125.803 211.882 112.244 210.645C111.754 210.6 111.042 209.643 110.217 208.14L91.827 214.055C92.517 215.481 93.265 217.001 94.078 218.624C104.334 239.124 151.891 217.858 151.891 217.858L151.873 217.809C155.818 216.959 160.174 215.934 162.484 215.1C167.245 213.382 167.097 212.952 166.802 212.433C166.009 211.035 158.313 215.138 159.456 213.296C160.6 211.456 169.456 209.374 168.567 207.947Z" fill="#B5B5B5"/>
<path d="M103.869 216.871L137.161 203.897L157.717 216.018L121.303 229.016L103.869 216.871Z" fill="#888888"/>
<path d="M138.107 204.454L141.277 203.604C146.898 206.871 152.576 210.89 157.717 216.017L156.783 215.466L138.107 204.454Z" fill="#FAFAFA"/>
<path d="M157.717 216.018C157.667 216.075 156.752 215.343 155.276 214.162C153.801 212.98 151.756 211.358 149.448 209.632C147.138 207.907 144.999 206.414 143.43 205.362C141.863 204.306 140.879 203.673 140.918 203.606C140.951 203.548 142.003 204.071 143.628 205.051C145.254 206.03 147.439 207.483 149.759 209.215C152.077 210.948 154.094 212.623 155.512 213.881C156.933 215.137 157.763 215.967 157.717 216.018Z" fill="#888888"/>
<path d="M97.984 245.368L96.53 215.359L96.427 214.098L112.261 206.751L107.205 194.363C101.669 173.459 81.749 173.177 81.749 173.177L66.561 171.689L59.713 173.177C59.713 173.177 47.02 175.368 46.545 193.456C46.07 211.544 53.403 225.354 53.403 225.354L58.052 222.926C57.936 225.917 57.223 228.781 55.485 231.179C53.506 233.912 52.215 237.186 51.393 240.561L97.984 245.368Z" fill="#838383"/>
<path d="M63.37 189.565C63.455 189.56 63.571 191.048 63.926 193.424C64.278 195.8 64.924 199.062 66.016 202.558C67.116 206.053 68.447 209.1 69.515 211.251C70.581 213.404 71.334 214.692 71.262 214.736C71.231 214.756 71.012 214.452 70.641 213.886C70.265 213.323 69.766 212.482 69.188 211.419C68.029 209.297 66.629 206.241 65.52 202.712C64.417 199.182 63.822 195.875 63.562 193.471C63.43 192.268 63.36 191.292 63.347 190.616C63.327 189.941 63.334 189.567 63.37 189.565Z" fill="#888888"/>
<path d="M94.42 208.03C94.357 207.93 95.808 207.657 97.213 206.029C97.889 205.226 98.459 204.036 98.436 202.644C98.442 201.276 97.812 199.726 96.473 198.864C95.479 198.205 94.263 197.995 93.247 198.237L92.995 198.298L92.944 198.047C92.455 195.638 92.052 193.561 91.786 192.083C91.52 190.604 91.39 189.726 91.447 189.713C91.504 189.701 91.739 190.558 92.09 192.019C92.442 193.479 92.908 195.543 93.43 197.945L93.128 197.756C94.285 197.463 95.651 197.695 96.759 198.431C98.266 199.4 98.955 201.16 98.915 202.646C98.913 204.167 98.245 205.453 97.49 206.272C96.73 207.108 95.915 207.55 95.347 207.787C94.77 208.014 94.428 208.058 94.42 208.03Z" fill="#888888"/>
<path d="M96.97 220.441C96.813 220.462 96.432 217.613 96.166 214.104C95.893 210.598 95.452 207.785 95.594 207.755C95.733 207.723 96.409 210.528 96.685 214.059C96.951 217.581 97.098 220.423 96.97 220.441Z" fill="#888888"/>
<path d="M112.366 206.877C112.398 206.94 111.555 207.44 110.154 208.174C108.753 208.908 106.791 209.872 104.591 210.863C102.389 211.854 100.367 212.685 98.889 213.247C97.41 213.811 96.478 214.11 96.452 214.045C96.425 213.977 97.308 213.556 98.748 212.907C100.358 212.187 102.267 211.333 104.377 210.388C106.482 209.434 108.387 208.571 109.993 207.842C111.432 207.196 112.333 206.812 112.366 206.877Z" fill="#888888"/>
<path d="M53.143 192.625C53 192.614 52.983 191.362 53.106 189.83C53.229 188.297 53.445 187.064 53.589 187.076C53.732 187.087 53.749 188.339 53.625 189.871C53.502 191.404 53.286 192.637 53.143 192.625Z" fill="#FAFAFA"/>
<path d="M54.637 198.824C54.583 198.957 53.589 198.682 52.415 198.21C51.241 197.736 50.334 197.245 50.388 197.112C50.442 196.978 51.436 197.254 52.61 197.726C53.783 198.199 54.691 198.69 54.637 198.824Z" fill="#FAFAFA"/>
<path d="M60.192 195.86C60.053 195.874 59.857 194.948 59.983 193.801C60.104 192.654 60.494 191.791 60.627 191.834C60.769 191.877 60.615 192.765 60.5 193.857C60.379 194.948 60.339 195.849 60.192 195.86Z" fill="#FAFAFA"/>
<path d="M59.2901 206.194C59.1541 206.192 59.1191 205.079 59.6821 203.858C60.2371 202.633 61.1021 201.931 61.1931 202.034C61.3031 202.138 60.6661 202.944 60.1561 204.075C59.6331 205.2 59.4411 206.209 59.2901 206.194Z" fill="#FAFAFA"/>
<path d="M57.339 211.886C57.241 211.998 56.316 211.338 55.121 210.63C53.93 209.916 52.909 209.416 52.961 209.276C53.007 209.145 54.149 209.441 55.387 210.182C56.628 210.919 57.432 211.784 57.339 211.886Z" fill="#FAFAFA"/>
<path d="M65.749 210.718C65.879 210.791 65.389 211.873 64.911 213.243C64.426 214.611 64.131 215.761 63.984 215.737C63.847 215.719 63.917 214.489 64.419 213.07C64.917 211.65 65.631 210.647 65.749 210.718Z" fill="#FAFAFA"/>
<path d="M57.337 218.237C57.297 218.375 56.368 218.227 55.263 217.906C54.157 217.585 53.293 217.213 53.333 217.075C53.373 216.937 54.302 217.085 55.408 217.406C56.514 217.726 57.378 218.099 57.337 218.237Z" fill="#FAFAFA"/>
<path d="M64.591 182.324C64.651 182.454 63.6541 183.042 62.3651 183.636C61.0751 184.23 59.981 184.605 59.921 184.475C59.86 184.344 60.858 183.757 62.148 183.163C63.437 182.569 64.531 182.193 64.591 182.324Z" fill="#FAFAFA"/>
<path d="M58.399 175.343C58.5 175.452 57.685 176.357 56.789 177.545C55.886 178.729 55.234 179.757 55.102 179.689C54.977 179.628 55.44 178.457 56.374 177.23C57.302 176 58.307 175.239 58.399 175.343Z" fill="#FAFAFA"/>
<path d="M74.403 191.201C74.331 191.319 73.166 190.724 71.985 189.642C70.799 188.565 70.1 187.459 70.212 187.377C70.329 187.285 71.189 188.216 72.336 189.258C73.478 190.305 74.483 191.075 74.403 191.201Z" fill="#FAFAFA"/>
<path d="M83.952 181.651C84.061 181.751 83.263 182.783 82.345 184.092C81.422 185.398 80.719 186.497 80.588 186.427C80.464 186.364 80.974 185.13 81.919 183.792C82.86 182.452 83.851 181.555 83.952 181.651Z" fill="#FAFAFA"/>
<path d="M77.883 199.606C77.883 199.75 76.784 199.867 75.429 199.867C74.073 199.867 72.974 199.751 72.974 199.606C72.974 199.462 74.073 199.346 75.429 199.346C76.785 199.346 77.883 199.462 77.883 199.606Z" fill="#FAFAFA"/>
<path d="M86.9191 196.121C86.7891 196.164 86.3081 194.99 86.1971 193.445C86.0781 191.9 86.3801 190.668 86.5151 190.692C86.6641 190.712 86.6011 191.927 86.7161 193.407C86.8221 194.886 87.0631 196.079 86.9191 196.121Z" fill="#FAFAFA"/>
<path d="M89.256 207.861C89.189 207.989 88.038 207.506 86.687 206.787C85.335 206.065 84.294 205.379 84.362 205.252C84.43 205.125 85.58 205.607 86.932 206.327C88.283 207.047 89.324 207.735 89.256 207.861Z" fill="#FAFAFA"/>
<path d="M95.699 201.915C95.768 202.041 95.187 202.489 94.401 202.916C93.615 203.343 92.923 203.585 92.854 203.459C92.786 203.333 93.367 202.885 94.152 202.458C94.938 202.032 95.63 201.788 95.699 201.915Z" fill="#FAFAFA"/>
<path d="M75.418 212.908C75.283 212.886 75.431 211.497 76.099 209.927C76.76 208.354 77.6521 207.281 77.7621 207.362C77.8871 207.446 77.215 208.613 76.578 210.13C75.934 211.643 75.566 212.938 75.418 212.908Z" fill="#FAFAFA"/>
<path d="M86.018 217.949C85.904 218.022 84.984 216.71 84.372 214.847C83.751 212.987 83.707 211.384 83.842 211.374C83.993 211.356 84.265 212.884 84.866 214.683C85.457 216.485 86.149 217.874 86.018 217.949Z" fill="#FAFAFA"/>
<path d="M93.396 214.34C93.512 214.435 93.136 215.063 92.837 215.887C92.528 216.708 92.406 217.429 92.257 217.426C92.119 217.431 92.007 216.624 92.349 215.706C92.685 214.788 93.294 214.247 93.396 214.34Z" fill="#FAFAFA"/>
<path d="M104.373 205.578C104.422 205.714 103.419 206.196 102.134 206.657C100.848 207.117 99.767 207.381 99.719 207.246C99.67 207.11 100.673 206.627 101.958 206.167C103.243 205.706 104.324 205.442 104.373 205.578Z" fill="#FAFAFA"/>
<path d="M103.869 199.091C103.731 199.087 103.684 197.882 104.11 196.474C104.529 195.064 105.232 194.083 105.349 194.156C105.48 194.23 105.007 195.279 104.609 196.624C104.201 197.966 104.019 199.102 103.869 199.091Z" fill="#FAFAFA"/>
<path d="M100.756 193.666C100.776 193.802 99.551 194.061 98.039 193.866C96.525 193.679 95.404 193.124 95.457 192.998C95.508 192.856 96.66 193.173 98.104 193.35C99.547 193.537 100.741 193.517 100.756 193.666Z" fill="#FAFAFA"/>
<path d="M97.1381 187.212C97.0171 187.144 97.4961 186.117 98.4451 185.113C99.3891 184.105 100.384 183.565 100.46 183.68C100.546 183.802 99.7251 184.506 98.8241 185.47C97.9171 186.428 97.2651 187.29 97.1381 187.212Z" fill="#FAFAFA"/>
<path d="M90.374 182.437C90.234 182.469 89.88 181.457 89.584 180.175C89.288 178.893 89.162 177.828 89.301 177.796C89.441 177.764 89.795 178.776 90.091 180.058C90.387 181.339 90.514 182.404 90.374 182.437Z" fill="#FAFAFA"/>
<path d="M57.34 232.663C57.429 232.776 57.068 233.214 56.533 233.641C55.997 234.069 55.491 234.325 55.401 234.212C55.311 234.099 55.672 233.661 56.208 233.235C56.744 232.807 57.251 232.551 57.34 232.663Z" fill="#FAFAFA"/>
<path d="M95.707 238.649C95.701 238.792 94.336 238.848 92.661 238.773C90.984 238.699 89.631 238.521 89.637 238.377C89.643 238.233 91.008 238.178 92.684 238.253C94.359 238.328 95.713 238.505 95.707 238.649Z" fill="#FAFAFA"/>
<path d="M71.521 214.449C71.594 214.574 67.493 217.113 62.363 220.122C57.231 223.132 53.013 225.47 52.941 225.346C52.868 225.222 56.968 222.683 62.1 219.673C67.23 216.663 71.448 214.325 71.521 214.449Z" fill="#888888"/>
<path d="M51.989 238.421C51.509 238.445 46.204 254.061 51.273 264.436C51.783 265.48 53.551 267.811 55.761 271.205C66.26 287.316 92.887 323.399 93.68 328.946C94.639 335.661 111.832 405.956 111.832 405.956H125.874L114.103 325.762L96.569 249.697L51.989 238.421Z" fill="#E5E5E5"/>
<path d="M97.095 344.556C97.095 344.556 100.141 342.166 100.023 337.351C99.905 332.535 97.088 321.031 97.088 321.031L92.571 323.799C92.571 323.799 96.124 333.238 96.299 336.197C96.495 339.505 95.875 340.586 95.875 340.586L97.095 344.556Z" fill="#B5B5B5"/>
<path d="M60.569 277.478L75.377 332.519L29.104 380.588L38.837 392.164C38.837 392.164 95.675 345.568 96.707 338.863C97.884 331.21 84.024 276.827 84.024 276.827L60.569 277.478Z" fill="#E5E5E5"/>
<path d="M41.561 390.728L31.176 378.436L28.433 381.03L31.942 385.795C34.362 388.98 42.698 399.528 45.045 401.036C47.661 402.717 41.561 390.728 41.561 390.728Z" fill="#838383"/>
<path d="M45.803 400.833C45.907 400.744 42.136 396.2 37.382 390.688C32.627 385.173 28.689 380.778 28.586 380.867C28.483 380.956 32.252 385.497 37.008 391.012C41.761 396.524 45.7 400.922 45.803 400.833Z" fill="#888888"/>
<path d="M31.201 384.068C31.267 384.084 31.398 383.818 31.541 383.364C31.679 382.91 31.837 382.248 31.777 381.486C31.716 380.719 31.384 380.063 31.025 379.706C30.666 379.341 30.345 379.266 30.32 379.319C30.281 379.385 30.513 379.561 30.754 379.927C30.997 380.287 31.229 380.86 31.284 381.528C31.338 382.2 31.247 382.83 31.198 383.292C31.145 383.754 31.133 384.053 31.201 384.068Z" fill="#888888"/>
<path d="M42.0109 391.686C41.9789 391.831 41.4809 391.841 40.8879 391.832C40.2939 391.818 39.7969 391.788 39.7709 391.643C39.7439 391.502 40.2459 391.292 40.8979 391.306C41.5499 391.317 42.0429 391.547 42.0109 391.686Z" fill="#888888"/>
<path d="M42.603 392.837C42.586 392.982 42.105 393.087 41.528 393.071C40.951 393.055 40.476 392.924 40.467 392.779C40.458 392.634 40.939 392.529 41.542 392.546C42.145 392.563 42.619 392.694 42.603 392.837Z" fill="#888888"/>
<path d="M43.064 393.855C43.068 394.002 42.699 394.129 42.247 394.2C41.794 394.269 41.404 394.258 41.364 394.117C41.324 393.979 41.678 393.756 42.167 393.681C42.656 393.606 43.061 393.711 43.064 393.855Z" fill="#888888"/>
<path d="M41.901 391.787C41.848 391.757 42.057 391.155 42.637 390.287C42.932 389.86 43.345 389.369 43.932 388.965C44.225 388.764 44.561 388.585 44.939 388.468C45.127 388.411 45.323 388.355 45.563 388.354C45.799 388.354 46.076 388.427 46.275 388.648C46.693 389.163 46.348 389.772 46.036 390.011C45.71 390.275 45.41 390.433 45.103 390.606C44.495 390.931 43.918 391.156 43.427 391.313C42.444 391.624 41.812 391.704 41.794 391.639C41.773 391.564 42.371 391.357 43.297 390.965C43.758 390.768 44.299 390.516 44.865 390.184C45.138 390.018 45.457 389.827 45.695 389.623C45.933 389.435 46.007 389.125 45.882 388.997C45.747 388.836 45.417 388.855 45.088 388.96C44.764 389.054 44.466 389.2 44.198 389.369C43.66 389.708 43.25 390.134 42.932 390.513C42.304 391.283 41.972 391.83 41.901 391.787Z" fill="#888888"/>
<path d="M42.0109 391.498C41.9979 391.435 42.608 391.211 43.656 391.101C44.179 391.052 44.8159 391.041 45.5149 391.162C45.8639 391.223 46.2279 391.319 46.5919 391.47C46.7709 391.546 46.9619 391.629 47.1479 391.776C47.2399 391.849 47.3369 391.94 47.4089 392.085C47.4859 392.224 47.4899 392.445 47.4139 392.59C47.0899 393.117 46.6359 393.18 46.2429 393.27C45.8399 393.334 45.4489 393.306 45.0959 393.24C44.3879 393.097 43.8179 392.855 43.3369 392.63C42.3659 392.169 41.9709 391.573 42.0359 391.536C42.0909 391.489 42.5359 391.941 43.4859 392.289C43.9539 392.46 44.5409 392.661 45.1759 392.763C45.4939 392.81 45.8279 392.822 46.1579 392.763C46.4669 392.718 46.8519 392.546 46.9349 392.373C47.0309 392.345 46.7109 392.055 46.3889 391.945C46.0699 391.806 45.7409 391.708 45.4209 391.639C44.7789 391.5 44.1779 391.472 43.6729 391.474C42.6619 391.485 42.0239 391.578 42.0109 391.498Z" fill="#888888"/>
<path d="M41.364 390.473C41.23 390.582 38.687 388.077 35.891 384.732C33.091 381.389 31.042 378.534 31.183 378.438C31.334 378.335 33.619 381.028 36.409 384.36C39.194 387.693 41.502 390.361 41.364 390.473Z" fill="#888888"/>
<path d="M126.374 405.949L111.637 405.788L111.808 410.411L112.769 410.434C117.049 410.501 134.529 410.497 137.351 409.584C140.495 408.569 126.374 405.949 126.374 405.949Z" fill="#838383"/>
<path d="M137.682 408.864C137.675 408.727 131.883 408.859 124.748 409.159C117.61 409.459 111.831 409.813 111.838 409.95C111.844 410.086 117.633 409.954 124.772 409.653C131.907 409.354 137.688 408.999 137.682 408.864Z" fill="#888888"/>
<path d="M116.494 409.702C116.551 409.66 116.414 409.392 116.126 408.999C115.836 408.61 115.384 408.076 114.704 407.652C114.019 407.226 113.247 407.081 112.709 407.142C112.164 407.199 111.888 407.404 111.918 407.456C111.947 407.527 112.249 407.454 112.716 407.491C113.18 407.522 113.816 407.694 114.413 408.064C115.014 408.437 115.483 408.898 115.84 409.222C116.194 409.551 116.437 409.746 116.494 409.702Z" fill="#888888"/>
<path d="M127.478 406.188C127.579 406.302 127.257 406.7 126.857 407.161C126.453 407.619 126.099 407.991 125.959 407.922C125.823 407.857 125.978 407.331 126.421 406.827C126.862 406.322 127.382 406.077 127.478 406.188Z" fill="#888888"/>
<path d="M128.838 406.435C128.948 406.537 128.718 406.98 128.323 407.424C127.928 407.867 127.503 408.159 127.376 408.076C127.248 407.994 127.478 407.551 127.891 407.087C128.303 406.624 128.728 406.333 128.838 406.435Z" fill="#888888"/>
<path d="M129.999 406.702C130.125 406.789 129.989 407.158 129.748 407.556C129.506 407.954 129.239 408.254 129.094 408.199C128.951 408.145 128.997 407.728 129.258 407.299C129.519 406.867 129.876 406.615 129.999 406.702Z" fill="#888888"/>
<path d="M127.489 406.336C127.428 406.359 127.06 405.822 126.715 404.83C126.551 404.333 126.411 403.706 126.459 402.994C126.484 402.639 126.556 402.264 126.708 401.895C126.785 401.713 126.868 401.523 127.025 401.335C127.181 401.149 127.426 400.977 127.743 400.956C128.454 400.946 128.737 401.594 128.731 401.987C128.737 402.407 128.672 402.74 128.614 403.088C128.486 403.768 128.292 404.36 128.1 404.843C127.711 405.808 127.359 406.354 127.294 406.327C127.216 406.297 127.438 405.699 127.721 404.729C127.861 404.244 128.007 403.664 128.102 403.013C128.144 402.696 128.194 402.327 128.181 402.015C128.181 401.71 127.969 401.461 127.779 401.48C127.553 401.487 127.35 401.757 127.221 402.082C127.086 402.395 127.011 402.72 126.976 403.034C126.905 403.667 126.992 404.252 127.1 404.736C127.333 405.708 127.573 406.307 127.489 406.336Z" fill="#888888"/>
<path d="M127.319 406.072C127.257 406.044 127.473 405.426 128.074 404.534C128.379 404.093 128.791 403.584 129.356 403.11C129.638 402.874 129.96 402.646 130.328 402.454C130.511 402.36 130.707 402.262 130.953 402.206C131.076 402.18 131.216 402.158 131.385 402.192C131.552 402.217 131.742 402.351 131.814 402.5C132.043 403.081 131.795 403.475 131.61 403.841C131.397 404.197 131.114 404.487 130.825 404.724C130.235 405.191 129.656 405.491 129.147 405.729C128.117 406.207 127.354 406.15 127.367 406.075C127.364 406.003 128.038 405.933 128.96 405.401C129.414 405.139 129.971 404.802 130.477 404.366C130.728 404.145 130.958 403.889 131.127 403.594C131.294 403.323 131.404 402.915 131.313 402.742C131.353 402.648 130.897 402.72 130.592 402.906C130.263 403.071 129.964 403.269 129.694 403.478C129.153 403.896 128.731 404.351 128.398 404.749C127.739 405.552 127.396 406.11 127.319 406.072Z" fill="#888888"/>
<path d="M126.03 405.946C126.039 406.089 122.866 406.348 118.946 406.319C115.026 406.293 111.86 406.053 111.865 405.914C111.87 405.764 115.043 405.767 118.949 405.793C122.855 405.823 126.021 405.799 126.03 405.946Z" fill="#888888"/>
<path d="M82.293 172.623C82.225 169.477 82.187 166.669 82.187 166.669C82.187 166.669 88.354 166.017 88.728 159.902C89.102 153.787 88.728 139.684 88.728 139.684L77.497 134.193L65.142 143.553L65.863 173.007C65.972 177.466 69.618 181.024 74.079 181.024C78.687 181.024 82.394 177.232 82.293 172.623Z" fill="#E5E5E5"/>
<path d="M65.987 148.269C65.987 148.269 76.073 147.318 77.857 138.164L88.802 148.269C88.802 148.269 92.124 141.492 86.06 135.191C79.996 128.891 75.835 130.198 73.458 130.198C71.24 130.198 60.031 132.575 56.694 145.328C56.453 146.253 56.253 148.542 56.1 149.579L65.987 148.269Z" fill="#888888"/>
<path d="M87.408 149.964C87.408 150.397 87.058 150.747 86.625 150.747C86.193 150.747 85.843 150.397 85.843 149.964C85.843 149.531 86.193 149.181 86.625 149.181C87.058 149.181 87.408 149.531 87.408 149.964Z" fill="#888888"/>
<path d="M88.166 149.11C88.066 149.212 87.486 148.72 86.644 148.674C85.802 148.617 85.168 149.035 85.08 148.922C85.037 148.871 85.142 148.685 85.418 148.495C85.69 148.307 86.149 148.134 86.674 148.166C87.199 148.198 87.634 148.425 87.881 148.645C88.133 148.868 88.214 149.065 88.166 149.11Z" fill="#888888"/>
<path d="M78.337 149.964C78.337 150.397 77.986 150.747 77.554 150.747C77.122 150.747 76.772 150.397 76.772 149.964C76.772 149.531 77.123 149.181 77.554 149.181C77.987 149.181 78.337 149.531 78.337 149.964Z" fill="#888888"/>
<path d="M78.824 149.11C78.724 149.212 78.144 148.72 77.303 148.674C76.461 148.617 75.826 149.035 75.739 148.922C75.696 148.871 75.802 148.685 76.078 148.495C76.35 148.307 76.809 148.134 77.334 148.166C77.859 148.198 78.294 148.425 78.54 148.645C78.792 148.868 78.874 149.065 78.824 149.11Z" fill="#888888"/>
<path d="M81.864 156.228C81.862 156.182 82.389 156.119 83.243 156.056C83.457 156.044 83.669 156.014 83.714 155.855C83.773 155.69 83.69 155.442 83.594 155.175C83.411 154.622 83.219 154.039 83.017 153.428C82.616 152.186 82.271 151.055 82.038 150.232C81.804 149.409 81.682 148.892 81.727 148.878C81.772 148.863 81.974 149.354 82.267 150.159C82.559 150.963 82.939 152.082 83.34 153.324C83.533 153.938 83.717 154.523 83.892 155.079C83.965 155.339 84.095 155.635 83.975 155.959C83.912 156.121 83.754 156.231 83.617 156.262C83.479 156.298 83.358 156.294 83.252 156.295C82.396 156.297 81.866 156.275 81.864 156.228Z" fill="#888888"/>
<path d="M79.081 157.026C80.495 157.453 81.498 158.101 83.155 158.428C83.155 158.428 82.095 159.952 80.362 159.221C78.562 158.461 79.081 157.026 79.081 157.026Z" fill="#FAFAFA"/>
<path d="M82.193 166.669C82.193 166.669 78.074 166.716 74.09 163.933C74.09 163.933 76.06 168.433 82.193 168.181V166.669Z" fill="#B5B5B5"/>
<path d="M77.555 137.431C77.555 137.431 79.795 141.761 78.838 145.021L88.642 147.552C88.642 147.552 90.878 135.124 77.555 137.431Z" fill="#888888"/>
<path d="M56.1 149.581C56.1 149.581 54.37 162.711 66.277 165.257L65.987 148.27L56.1 149.581Z" fill="#888888"/>
<path d="M78.425 133.433C78.425 133.362 79.611 133.291 81.442 133.792C83.258 134.278 85.713 135.463 87.707 137.605C89.702 139.748 90.708 142.281 91.063 144.127C91.432 145.99 91.276 147.167 91.205 147.162C91.089 147.166 91.071 146.007 90.595 144.238C90.133 142.479 89.103 140.104 87.209 138.068C85.315 136.034 83.019 134.838 81.298 134.251C79.568 133.65 78.412 133.547 78.425 133.433Z" fill="#888888"/>
<path d="M81.341 149.581C81.302 149.584 81.322 149.154 81.127 148.427C80.935 147.714 80.45 146.67 79.376 145.867C78.844 145.474 78.175 145.142 77.407 145.012C76.644 144.886 75.785 144.914 74.969 145.227C74.154 145.521 73.376 146.078 72.823 146.847C72.255 147.605 71.9359 148.578 71.9259 149.58C71.9349 150.584 72.255 151.557 72.823 152.315C73.375 153.084 74.154 153.64 74.969 153.935C75.785 154.249 76.644 154.276 77.408 154.15C78.176 154.019 78.844 153.687 79.376 153.295C80.45 152.491 80.935 151.448 81.127 150.735C81.322 150.008 81.302 149.578 81.341 149.581C81.353 149.581 81.359 149.686 81.36 149.889C81.364 150.09 81.339 150.391 81.255 150.767C81.096 151.509 80.6309 152.615 79.521 153.486C78.971 153.911 78.271 154.275 77.459 154.426C76.652 154.573 75.737 154.554 74.862 154.229C73.988 153.921 73.151 153.333 72.554 152.512C71.942 151.702 71.594 150.655 71.585 149.58C71.594 148.504 71.941 147.459 72.554 146.649C73.15 145.829 73.987 145.239 74.862 144.932C75.737 144.606 76.652 144.587 77.459 144.735C78.271 144.886 78.971 145.251 79.521 145.675C80.63 146.545 81.096 147.652 81.255 148.394C81.34 148.77 81.364 149.071 81.36 149.272C81.359 149.476 81.353 149.581 81.341 149.581Z" fill="#888888"/>
<path d="M92.388 149.581C92.349 149.584 92.369 149.154 92.174 148.427C91.981 147.714 91.496 146.67 90.422 145.867C89.89 145.474 89.222 145.142 88.454 145.012C87.691 144.886 86.832 144.914 86.015 145.227C85.2 145.521 84.422 146.078 83.869 146.847C83.302 147.605 82.982 148.578 82.973 149.58C82.982 150.584 83.301 151.557 83.869 152.315C84.422 153.084 85.2 153.64 86.015 153.935C86.831 154.249 87.69 154.276 88.454 154.15C89.222 154.019 89.89 153.687 90.422 153.295C91.497 152.491 91.981 151.448 92.174 150.735C92.369 150.008 92.349 149.578 92.388 149.581C92.4 149.581 92.406 149.686 92.407 149.889C92.411 150.09 92.387 150.391 92.303 150.767C92.145 151.509 91.679 152.615 90.568 153.486C90.019 153.911 89.319 154.275 88.507 154.426C87.7 154.573 86.786 154.554 85.911 154.229C85.036 153.921 84.199 153.333 83.602 152.512C82.99 151.702 82.643 150.655 82.634 149.58C82.643 148.504 82.99 147.459 83.602 146.649C84.199 145.829 85.036 145.239 85.911 144.932C86.786 144.606 87.7 144.587 88.507 144.735C89.319 144.886 90.019 145.251 90.568 145.675C91.678 146.545 92.145 147.652 92.303 148.394C92.387 148.77 92.411 149.071 92.407 149.272C92.406 149.476 92.4 149.581 92.388 149.581Z" fill="#888888"/>
<path d="M82.804 149.731C82.804 149.825 82.41 149.9 81.925 149.9C81.44 149.9 81.048 149.824 81.048 149.731C81.048 149.637 81.441 149.561 81.925 149.561C82.41 149.562 82.804 149.637 82.804 149.731Z" fill="#888888"/>
<path d="M71.921 150.582C71.94 150.674 70.053 151.124 67.709 151.586C65.365 152.049 63.449 152.35 63.431 152.258C63.412 152.166 65.299 151.716 67.643 151.254C69.988 150.79 71.903 150.49 71.921 150.582Z" fill="#888888"/>
<path d="M65.347 157.786C64.392 158.467 62.96 158.199 62.151 157.351C61.341 156.503 61.107 155.218 61.333 154.067C61.47 153.371 61.785 152.674 62.362 152.262C62.94 151.85 64.605 151.935 65.111 152.433L65.347 157.786Z" fill="#E5E5E5"/>
<path d="M63.942 156.799C63.949 156.719 63.64 156.669 63.277 156.402C62.914 156.145 62.536 155.616 62.608 154.954C62.66 154.29 63.129 153.839 63.533 153.654C63.939 153.458 64.252 153.465 64.26 153.385C64.277 153.326 63.948 153.166 63.406 153.304C62.884 153.412 62.149 154.005 62.084 154.906C61.982 155.802 62.595 156.52 63.088 156.722C63.596 156.957 63.948 156.861 63.942 156.799Z" fill="#B5B5B5"/>
<path d="M53.135 235.337C53.135 235.337 42.402 246.48 44.62 270.304C46.837 294.129 49.729 326.147 49.729 326.147C49.729 326.147 63.53 313.7 70.535 319.014C77.538 324.327 84.57 328.682 93.686 322.91C106.161 315.012 119.85 320.238 119.85 320.238L97.842 241.348L53.135 235.337Z" fill="#888888"/>
<path d="M67.0699 238.167C67.1229 238.168 67.1319 239.109 66.6279 240.524C66.1389 241.924 65.0289 243.786 63.1589 245.151C61.2859 246.515 59.1749 247.003 57.6919 247.04C56.1919 247.087 55.2979 246.79 55.3129 246.74C55.3259 246.65 56.2289 246.811 57.6669 246.673C59.0929 246.544 61.0789 246.022 62.8519 244.731C64.6229 243.438 65.7269 241.708 66.2859 240.389C66.8579 239.061 66.9819 238.152 67.0699 238.167Z" fill="#909090"/>
<path d="M57.4919 238.473C57.3549 238.429 57.4259 237.862 57.6509 237.206C57.8749 236.551 58.1669 236.06 58.3019 236.109C58.4369 236.158 58.3659 236.725 58.1439 237.375C57.9209 238.025 57.6289 238.516 57.4919 238.473Z" fill="#909090"/>
<path d="M55.1239 247.887C54.9819 247.862 55.0999 246.774 55.3859 245.458C55.6719 244.143 56.0169 243.106 56.1569 243.142C56.2969 243.177 56.1789 244.264 55.8949 245.57C55.6099 246.874 55.2649 247.912 55.1239 247.887Z" fill="#909090"/>
<path d="M53.8959 257.518C53.7529 257.508 53.7439 256.415 53.8769 255.076C54.0099 253.737 54.2329 252.667 54.3759 252.685C54.5189 252.705 54.5269 253.797 54.3949 255.127C54.2629 256.458 54.0399 257.528 53.8959 257.518Z" fill="#909090"/>
<path d="M53.6579 267.224C53.5139 267.228 53.3989 266.14 53.3999 264.794C53.4009 263.448 53.5189 262.361 53.6629 262.365C53.8069 262.369 53.9219 263.457 53.9209 264.795C53.9199 266.133 53.8019 267.22 53.6579 267.224Z" fill="#909090"/>
<path d="M54.2589 276.921C54.1119 276.936 53.9099 275.861 53.7999 274.522C53.6909 273.182 53.7189 272.089 53.8619 272.081C54.0059 272.073 54.2099 273.146 54.3189 274.48C54.4289 275.813 54.3979 276.907 54.2589 276.921Z" fill="#909090"/>
<path d="M55.4809 286.56C55.3389 286.582 55.0719 285.521 54.8839 284.19C54.6969 282.858 54.6609 281.765 54.8029 281.748C54.9459 281.73 55.2129 282.791 55.3999 284.118C55.5869 285.444 55.6229 286.537 55.4809 286.56Z" fill="#909090"/>
<path d="M57.2499 296.107C57.1089 296.137 56.7819 295.094 56.5189 293.777C56.2549 292.46 56.1569 291.372 56.2979 291.345C56.4389 291.319 56.7669 292.362 57.0289 293.675C57.2919 294.988 57.3909 296.077 57.2499 296.107Z" fill="#909090"/>
<path d="M59.4549 305.56C59.3149 305.594 58.9469 304.566 58.6319 303.263C58.3169 301.959 58.1749 300.877 58.3149 300.844C58.4549 300.812 58.8239 301.84 59.1389 303.141C59.4529 304.442 59.5949 305.525 59.4549 305.56Z" fill="#909090"/>
<path d="M61.2539 312.699C61.1149 312.734 60.8639 312.219 60.6929 311.55C60.5229 310.879 60.4979 310.307 60.6369 310.272C60.7759 310.237 61.0269 310.752 61.1979 311.422C61.3689 312.091 61.3939 312.663 61.2539 312.699Z" fill="#909090"/>
<path d="M86.1239 260.168C86.0509 260.172 85.9099 259.027 85.7199 257.174C85.5319 255.32 85.2859 252.757 85.0819 249.918C84.8779 247.079 84.7859 244.5 84.7869 242.633C84.7869 240.766 84.8619 239.613 84.9299 239.613C85.0059 239.613 85.0619 240.765 85.1559 242.624C85.2489 244.483 85.3989 247.049 85.6019 249.883C85.8049 252.716 85.9939 255.284 86.0879 257.147C86.1839 259.008 86.1939 260.163 86.1239 260.168Z" fill="#909090"/>
<path d="M87.7859 240.08C87.8579 240.076 87.9869 241.258 88.1379 243.171C88.2889 245.085 88.463 247.731 88.622 250.653C88.694 252.106 88.7619 253.491 88.8259 254.777C88.8919 256.044 88.8449 257.251 88.4579 258.187C88.0779 259.123 87.4419 259.703 86.9489 259.955C86.4459 260.209 86.125 260.193 86.124 260.167C86.113 260.124 86.4129 260.067 86.8449 259.781C87.2699 259.496 87.8079 258.927 88.1139 258.056C88.4249 257.185 88.4389 256.057 88.3469 254.801C88.2709 253.516 88.1879 252.132 88.1019 250.68C87.9429 247.757 87.8279 245.108 87.7699 243.19C87.7139 241.272 87.7139 240.083 87.7859 240.08Z" fill="#909090"/>
<path d="M100.198 249.746C100.189 249.801 99.4999 249.751 98.4779 249.328C97.4599 248.913 96.1449 248.051 95.0779 246.731C94.0149 245.407 93.4519 243.939 93.2629 242.855C93.0669 241.767 93.1649 241.083 93.2199 241.085C93.3089 241.083 93.345 241.752 93.622 242.773C93.894 243.792 94.478 245.149 95.484 246.404C96.496 247.653 97.6979 248.512 98.6359 248.995C99.5729 249.483 100.22 249.661 100.198 249.746Z" fill="#909090"/>
<path d="M119.487 314.933C119.484 314.951 119.224 314.919 118.732 314.844C118.191 314.761 117.477 314.652 116.583 314.515C114.716 314.246 112.003 313.901 108.636 313.826C105.281 313.781 101.232 314.018 96.9789 315.301C94.8469 315.913 92.7479 316.933 90.4699 317.836C89.3289 318.275 88.1289 318.668 86.8579 318.862C85.5909 319.06 84.2479 319.024 82.9679 318.669C80.3969 317.952 78.3279 316.394 76.2249 315.239C74.1159 314.086 71.9039 313.317 69.7299 312.922C67.5569 312.519 65.4399 312.457 63.4769 312.609C61.5139 312.789 59.7189 313.203 58.1169 313.692C54.9289 314.753 52.6019 316.235 51.1249 317.385C50.3689 317.948 49.8379 318.45 49.4759 318.789C49.1089 319.124 48.9089 319.294 48.8959 319.281C48.8829 319.269 49.0569 319.075 49.4019 318.715C49.7419 318.349 50.2549 317.819 50.9979 317.227C52.4499 316.017 54.7779 314.465 58.0009 313.342C59.6209 312.822 61.4409 312.38 63.4379 312.179C65.4339 312.005 67.5929 312.051 69.8159 312.45C72.0379 312.841 74.3099 313.619 76.4719 314.794C78.6119 315.968 80.6639 317.493 83.1019 318.167C85.5449 318.872 88.0619 318.219 90.2859 317.36C92.5259 316.48 94.6669 315.453 96.8399 314.842C101.169 313.566 105.265 313.367 108.644 313.459C112.035 313.582 114.752 313.985 116.614 314.316C117.545 314.485 118.265 314.629 118.75 314.742C119.237 314.85 119.49 314.916 119.487 314.933Z" fill="#909090"/>
<path d="M124.985 225.333C127.371 224.818 131.92 222.941 132.022 222.322C132.21 221.184 127.985 222.521 126.858 222.757C125.731 222.994 119.446 221.854 119.446 221.854C117.919 221.004 116.407 220.11 115.222 219.392C114.123 218.316 113.759 216.681 114.267 215.171C114.864 213.4 114.9 211.926 114.593 211.365C114.133 210.523 112.794 210.856 112.655 211.903C112.543 212.75 111.918 214.102 111.406 215.099C110.975 215.94 110.398 216.704 109.709 217.35C108.954 218.059 108.275 218.644 107.69 219.121C102.39 220.072 87.348 222.221 74.149 218.854C74.149 218.854 72.254 218.233 69.998 215.507L55.15 224.448C62.037 246.313 112.147 232.194 112.147 232.194L125.872 227.538C125.872 227.538 133.515 225.674 133.511 225.02C133.506 224.006 127.855 225.291 124.985 225.333Z" fill="#E5E5E5"/>
<path d="M82.219 173.079C82.243 173.08 82.28 173.456 82.191 174.128C82.104 174.797 81.89 175.771 81.358 176.871C80.827 177.961 79.975 179.2 78.654 180.169C77.35 181.15 75.54 181.75 73.649 181.627C71.756 181.513 70.039 180.693 68.852 179.578C67.649 178.468 66.93 177.153 66.508 176.015C66.085 174.869 65.964 173.88 65.94 173.206C65.914 172.529 65.985 172.158 66.01 172.159C66.125 172.145 65.962 173.685 66.852 175.881C67.301 176.96 68.024 178.196 69.175 179.222C70.309 180.251 71.912 180.999 73.681 181.107C75.45 181.22 77.135 180.678 78.374 179.779C79.631 178.889 80.478 177.733 81.03 176.703C82.128 174.606 82.105 173.054 82.219 173.079Z" fill="#888888"/>
</g>
</svg>
