<svg width="17" height="21" viewBox="0 0 17 21" fill="none" xmlns="http://www.w3.org/2000/svg">
<path d="M13.2423 0.256348H6.43044H5.9026L5.5296 0.629043L0.372954 5.78243L0 6.15512V6.68235V17.3068C0 19.2018 1.54275 20.7438 3.43947 20.7438H13.2423C15.1384 20.7438 16.6811 19.2018 16.6811 17.3068V3.69343C16.6811 1.79803 15.1384 0.256348 13.2423 0.256348ZM15.4079 17.3067C15.4079 18.5022 14.4383 19.4711 13.2423 19.4711H3.43947C2.24285 19.4711 1.27327 18.5022 1.27327 17.3067V6.68231H4.62545C5.6219 6.68231 6.43044 5.8749 6.43044 4.87886V1.52897H13.2423C14.4383 1.52897 15.4079 2.49788 15.4079 3.69343V17.3067Z" fill="#838383"/>
<path d="M4.97479 10.3711H3.83243C3.61492 10.3711 3.48462 10.5125 3.48462 10.7242V13.6755C3.48462 13.9311 3.65296 14.0996 3.88668 14.0996C4.11537 14.0996 4.28366 13.9311 4.28366 13.6755V12.7789C4.28366 12.7571 4.29484 12.7462 4.31666 12.7462H4.97479C5.77944 12.7462 6.26368 12.257 6.26368 11.5613C6.26372 10.8547 5.78505 10.3711 4.97479 10.3711ZM4.92562 12.0558H4.31666C4.29484 12.0558 4.28366 12.0449 4.28366 12.0234V11.0939C4.28366 11.0721 4.29484 11.0612 4.31666 11.0612H4.92562C5.26278 11.0612 5.46407 11.2624 5.46407 11.5613C5.46411 11.8602 5.26278 12.0558 4.92562 12.0558Z" fill="#838383"/>
<path d="M8.10773 10.3711H7.23208C7.01458 10.3711 6.88428 10.5125 6.88428 10.7242V13.719C6.88428 13.9311 7.01454 14.0669 7.23208 14.0669H8.10773C8.89616 14.0669 9.386 13.8168 9.58169 13.2136C9.65216 13.0015 9.69072 12.7462 9.69072 12.219C9.69072 11.6918 9.65212 11.4364 9.58169 11.2244C9.38596 10.6211 8.89616 10.3711 8.10773 10.3711ZM8.81508 12.9365C8.72226 13.2298 8.4561 13.355 8.08591 13.355H7.71632C7.69449 13.355 7.68332 13.3441 7.68332 13.3223V11.1157C7.68332 11.0939 7.69449 11.083 7.71632 11.083H8.08591C8.4561 11.083 8.72226 11.2082 8.81508 11.5015C8.85312 11.6267 8.87995 11.8441 8.87995 12.219C8.87995 12.5939 8.85308 12.8113 8.81508 12.9365Z" fill="#838383"/>
<path d="M12.5514 10.3711H10.7571C10.5396 10.3711 10.4087 10.5125 10.4087 10.7242V13.6755C10.4087 13.9311 10.5776 14.0996 10.8113 14.0996C11.0394 14.0996 11.2083 13.9311 11.2083 13.6755V12.621C11.2083 12.5995 11.2189 12.5886 11.2407 12.5886H12.2853C12.519 12.5886 12.6549 12.4473 12.6549 12.2461C12.6549 12.0449 12.519 11.9038 12.2853 11.9038H11.2407C11.2189 11.9038 11.2083 11.893 11.2083 11.8712V11.0939C11.2083 11.0721 11.2189 11.0612 11.2407 11.0612H12.5514C12.7746 11.0612 12.9216 10.9145 12.9216 10.719C12.9216 10.5177 12.7745 10.3711 12.5514 10.3711Z" fill="#838383"/>
</svg>
