<svg xmlns="http://www.w3.org/2000/svg" version="1.1" xmlns:xlink="http://www.w3.org/1999/xlink" xmlns:svgjs="http://svgjs.com/svgjs" width="512" height="512" x="0" y="0" viewBox="0 0 512 512" style="enable-background:new 0 0 512 512" xml:space="preserve" class=""><g><g xmlns="http://www.w3.org/2000/svg"><g><g><g fill="#ef8bbd"><path d="m207.791 414.61h-50.456l-11.546 77.837c-.952 10.5 7.316 19.553 17.86 19.553h18.925c9.276 0 17.021-7.074 17.859-16.311z" fill="#ef8bbd" data-original="#ef8bbd"></path><path d="m304.736 414.61h50.456l11.546 77.837c.953 10.501-7.315 19.553-17.859 19.553h-18.925c-9.276 0-17.021-7.074-17.859-16.311z" fill="#ef8bbd" data-original="#ef8bbd"></path></g><path d="m150.504 460.664h53.107l2.807-30.925-49.742-10.682z" fill="#e068bd" data-original="#e068bd"></path><path d="m356.14 421.001-50.027 8.776 2.803 30.887h53.108z" fill="#e068bd" data-original="#e068bd"></path><path d="m313.75 141.148h-114.972c-25.559 0-45.993 23.191-44.992 51.061l6.345 176.607h192.265l6.345-176.607c1.002-27.871-19.432-51.061-44.991-51.061z" fill="#78eac4" data-original="#78eac4" class=""></path><path d="m313.75 141.148h-31.993c20.448 0 36.796 17.398 35.995 38.306l-3.742 97.678c-.745 19.457-15.418 34.814-33.264 34.814h-121.89l-.013-.348h-.766l2.056 57.219h192.265l6.345-176.607c1-27.872-19.434-51.062-44.993-51.062z" fill="#71afc4" data-original="#71afc4"></path><path d="m348.109 429.948h-183.69c-21.748 0-39.378-17.63-39.378-39.378 0-21.748 17.63-39.378 39.378-39.378h183.69c21.748 0 39.378 17.63 39.378 39.378 0 21.748-17.63 39.378-39.378 39.378z" fill="#ffe266" data-original="#ffe266"></path><path d="m348.109 351.192h-24.867c14.258 0 25.816 11.558 25.816 25.815 0 14.258-11.558 25.815-25.816 25.815h-172.385c-12.169 0-22.366-8.423-25.093-19.755-.469 2.429-.723 4.935-.723 7.502 0 21.747 17.63 39.378 39.378 39.378h183.691c21.747 0 39.378-17.63 39.378-39.378-.001-21.747-17.631-39.377-39.379-39.377z" fill="#efaa66" data-original="#efaa66"></path><g><path d="m293.635 393.13c-3.314 0-6-2.686-6-6v-10.246c0-3.314 2.686-6 6-6 3.313 0 6 2.686 6 6v10.246c0 3.314-2.686 6-6 6z" fill="#d0844b" data-original="#d0844b"></path></g><g><path d="m330.34 405.225c-3.313 0-6-2.686-6-6v-10.247c0-3.313 2.687-6 6-6s6 2.687 6 6v10.247c0 3.313-2.686 6-6 6z" fill="#d0844b" data-original="#d0844b"></path></g></g><path d="m73.744 512h-27.895c-6.829 0-12.366-5.536-12.366-12.366v-254.025h52.626v254.026c0 6.829-5.536 12.365-12.365 12.365z" fill="#8bb6ef" data-original="#8bb6ef" class=""></path><path d="m466.679 512h-27.895c-6.829 0-12.366-5.536-12.366-12.366v-254.025h52.626v254.026c0 6.829-5.536 12.365-12.365 12.365z" fill="#8bb6ef" data-original="#8bb6ef" class=""></path><path d="m482.427 307.598h-452.854c-14.461 0-26.183-11.723-26.183-26.183v-9.622c0-14.461 11.723-26.183 26.183-26.183h452.855c14.461 0 26.183 11.723 26.183 26.183v9.622c0 14.46-11.723 26.183-26.184 26.183z" fill="#ffa585" data-original="#ffa585" class=""></path><path d="m482.427 245.609h-56.637c9.515 0 17.228 7.714 17.228 17.229s-7.713 17.228-17.228 17.228h-405.172c-8.145 0-14.953-5.658-16.749-13.253-.311 1.613-.479 3.276-.479 4.98v9.622c0 14.461 11.723 26.183 26.183 26.183h452.855c14.461 0 26.183-11.722 26.183-26.183v-9.622c0-14.462-11.723-26.184-26.184-26.184z" fill="#ef7c85" data-original="#ef7c85"></path><path d="m426.418 307.598h52.626v43.595h-52.626z" fill="#8388ef" data-original="#8388ef"></path><path d="m33.483 307.598h52.626v43.595h-52.626z" fill="#8388ef" data-original="#8388ef"></path><g><path d="m248.607 189.411h-17.007c-5.523 0-10-4.477-10-10 0-5.522 4.477-10 10-10h17.007c5.523 0 10 4.478 10 10 .001 5.523-4.477 10-10 10z" fill="#ffffff" data-original="#ffffff"></path></g><g><path d="m200.191 189.411h-2.603c-5.523 0-10-4.477-10-10 0-5.522 4.477-10 10-10h2.603c5.523 0 10 4.478 10 10 0 5.523-4.477 10-10 10z" fill="#ffffff" data-original="#ffffff"></path></g></g><g><path d="m164.525 2.625 8.812 24.777c.377 1.061 1.124 1.902 2.067 2.326l22.013 9.918c3.11 1.401 3.11 6.356 0 7.757l-22.013 9.918c-.943.425-1.689 1.265-2.067 2.326l-8.812 24.777c-1.245 3.501-5.647 3.501-6.892 0l-8.812-24.777c-.377-1.061-1.124-1.901-2.067-2.326l-22.013-9.918c-3.11-1.401-3.11-6.356 0-7.757l22.013-9.918c.943-.425 1.689-1.265 2.067-2.326l8.812-24.777c1.245-3.5 5.647-3.5 6.892 0z" fill="#bdf4e3" data-original="#bdf4e3"></path><ellipse cx="452.848" cy="151.621" fill="#78eac4" rx="19.24" ry="19.241" transform="matrix(.16 -.987 .987 .16 230.647 574.334)" data-original="#78eac4" class=""></ellipse><ellipse cx="55.603" cy="79.417" fill="#78eac4" rx="8.148" ry="8.148" transform="matrix(.16 -.987 .987 .16 -31.695 121.581)" data-original="#78eac4" class=""></ellipse><path d="m62.353 121.282 6.536 18.379c.28.787.834 1.41 1.533 1.725l16.329 7.357c2.307 1.039 2.307 4.715 0 5.754l-16.329 7.357c-.699.315-1.253.938-1.533 1.725l-6.536 18.379c-.924 2.596-4.189 2.596-5.112 0l-6.536-18.379c-.28-.787-.834-1.41-1.533-1.725l-16.329-7.357c-2.307-1.039-2.307-4.715 0-5.754l16.329-7.357c.699-.315 1.253-.939 1.533-1.725l6.536-18.379c.923-2.596 4.188-2.596 5.112 0z" fill="#bdf4e3" data-original="#bdf4e3"></path></g></g></g></svg>