<svg xmlns="http://www.w3.org/2000/svg" version="1.1" xmlns:xlink="http://www.w3.org/1999/xlink" xmlns:svgjs="http://svgjs.com/svgjs" width="512" height="512" x="0" y="0" viewBox="0 0 512 512" style="enable-background:new 0 0 512 512" xml:space="preserve" class=""><g><g xmlns="http://www.w3.org/2000/svg"><path d="m256 105.997v-62.76l60.937 23.637c7.069 2.742 7.069 12.745 0 15.487z" fill="#e27f86" data-original="#e27f86"></path><path d="m398.337 279.172v196.287h108.512c2.845 0 5.151-2.306 5.151-5.151v-142.152c0-27.053-21.931-48.985-48.984-48.985z" fill="#9ec8fc" data-original="#9ec8fc"></path><path d="m463.016 279.172h-23.221c27.053 0 48.984 21.931 48.984 48.985v142.151c0 2.845-2.306 5.151-5.151 5.151h23.221c2.845 0 5.151-2.306 5.151-5.151v-142.152c0-27.053-21.931-48.984-48.984-48.984z" fill="#62a4fb" data-original="#62a4fb"></path><path d="m0 328.156v142.151c0 2.845 2.306 5.151 5.151 5.151h108.512v-196.286h-64.678c-27.054 0-48.985 21.931-48.985 48.984z" fill="#9ec8fc" data-original="#9ec8fc"></path><path d="m90.441 279.172h23.221v196.287h-23.221z" fill="#62a4fb" data-original="#62a4fb"></path><path d="m436.217 361.313v57.921c0 2.845 2.306 5.151 5.151 5.151h27.601c2.845 0 5.151-2.306 5.151-5.151v-57.921c0-2.845-2.306-5.151-5.151-5.151h-27.601c-2.845 0-5.151 2.307-5.151 5.151z" fill="#e8eef8" data-original="#e8eef8"></path><path d="m37.88 361.313v57.921c0 2.845 2.306 5.151 5.151 5.151h27.601c2.845 0 5.151-2.306 5.151-5.151v-57.921c0-2.845-2.306-5.151-5.151-5.151h-27.601c-2.845 0-5.151 2.307-5.151 5.151z" fill="#e8eef8" data-original="#e8eef8"></path><path d="m113.663 174.816v300.642h76.849l65.488-20 65.488 20h76.849v-300.642l-142.337-29.875z" fill="#e175a5" data-original="#e175a5"></path><path d="m375.116 169.942v305.516h23.221v-300.642z" fill="#ca59a6" data-original="#ca59a6"></path><path d="m190.512 366.464v108.994h130.977v-108.994c0-5.69-4.612-10.302-10.302-10.302h-110.374c-5.689 0-10.301 4.613-10.301 10.302z" fill="#7f78bd" data-original="#7f78bd"></path><path d="m248.274 356.162h15.453v119.296h-15.453z" fill="#6a61b2" data-original="#6a61b2"></path><path d="m256 241.425c-30.184 0-54.744 24.559-54.744 54.744h30.905c0-13.166 10.673-23.838 23.838-23.838s23.838 10.673 23.838 23.838h30.905c.002-30.185-24.558-54.744-54.742-54.744z" fill="#e8eef8" data-original="#e8eef8"></path><path d="m256 210.52c-45.833 0-83.364 36.181-85.549 81.473-.11 2.275 1.727 4.176 4.004 4.176h26.801c0-30.184 24.56-54.744 54.744-54.744s54.744 24.559 54.744 54.744h26.801c2.277 0 4.114-1.901 4.004-4.176-2.185-45.293-39.716-81.473-85.549-81.473z" fill="#ecb880" data-original="#ecb880"></path><path d="m256 159.958c-3.698 0-6.696-2.998-6.696-6.696v-110.024c0-3.698 2.998-6.696 6.696-6.696s6.696 2.998 6.696 6.696v110.024c0 3.698-2.998 6.696-6.696 6.696z" fill="#9ec8fc" data-original="#9ec8fc"></path><path d="m430.9 206.313c-1.388 2.433-4.475 3.329-6.928 1.977-51.343-28.302-109.307-43.238-167.972-43.238s-116.629 14.936-167.972 43.238c-2.453 1.352-5.54.456-6.928-1.977l-12.25-21.477c-1.429-2.505-.515-5.683 2.01-7.077 56.575-31.243 120.47-47.733 185.14-47.733s128.565 16.49 185.141 47.733c2.525 1.394 3.439 4.572 2.01 7.077z" fill="#6a61b2" data-original="#6a61b2"></path></g></g></svg>