<svg xmlns="http://www.w3.org/2000/svg" version="1.1" xmlns:xlink="http://www.w3.org/1999/xlink" xmlns:svgjs="http://svgjs.com/svgjs" width="512" height="512" x="0" y="0" viewBox="0 0 512 512" style="enable-background:new 0 0 512 512" xml:space="preserve" class=""><g><g xmlns="http://www.w3.org/2000/svg"><path d="m511.854 445.355-13.207-65.921c-5.115-20.229-20.999-39.079-41.552-45.904l-30.474-4.8c-4.095-.645-7.931 2.15-8.575 6.242-.645 4.092 2.149 7.931 6.241 8.576l29.627 4.667c14.76 6.134 25.965 18.916 30.07 34.385l13.016 64.972v56.802c0 4.142 3.357 7.5 7.5 7.5s7.5-3.358 7.5-7.5v-57.546c0-.494-.049-.988-.146-1.473z" fill="#ffffff" data-original="#000000"></path><path d="m452.003 392.821c-4.775-3.925-13.44-5.572-20.388-3.187v-10.576c0-5.119-2.31-9.865-6.337-13.023-4.026-3.157-9.183-4.265-14.14-3.048l-155.833 38.126-13.008-3.183 3.072-15.332c4.093-15.449 15.28-28.229 30.032-34.38l57.471-9.051c2.083 5.106 6.183 9.272 11.471 11.268 6.557 2.467 13.444 3.701 20.331 3.701s13.773-1.234 20.326-3.701c7.771-2.927 12.992-10.54 12.992-18.943v-32.983c4.628-1.65 9.007-3.823 13.078-6.44l14.649 14.641c4.641 4.641 10.811 7.196 17.372 7.196s12.731-2.556 17.346-7.171c.009-.009.068-.068.077-.076 9.581-9.582 9.581-25.172 0-34.754l-13.684-13.684h2.962c11.389 0 20.653-9.265 20.653-20.653v-24.018c0-7.88-4.439-14.737-10.944-18.218v-33.925c0-32.789-26.676-59.464-59.464-59.464h-70.724c-5.393 0-10.616.735-15.587 2.087-2.477-57.713-50.197-103.905-108.51-103.905h-20.93c-59.893 0-108.619 48.726-108.619 108.619v16.252c-10.858 3.15-18.82 13.178-18.82 25.037v17.701c0 14.375 11.695 26.071 26.071 26.071h17.061c7.961 26.242 28.711 46.965 54.969 54.89v27.245c0 6.922-4.904 13.017-11.662 14.492l-38.191 8.346c-.001 0-.003.001-.004.001l-14.423 3.152v-80.491c0-4.142-3.358-7.5-7.5-7.5s-7.5 3.358-7.5 7.5v83.856l-22.455 7.17c-22.267 7.11-38.786 26.656-42.096 49.871l-11.052 83.508c-.044.326-.065.655-.065.984v57.546c0 4.142 3.358 7.5 7.5 7.5s7.5-3.358 7.5-7.5v-57.052l10.976-82.944c2.493-17.483 14.975-32.252 31.798-37.624l45.229-12.166c19.678 31.566 54.322 50.96 91.747 50.96 17.271 0 33.952-4.133 48.846-11.685-5.942 7.304-10.372 15.851-12.796 25.153-.036.138-.068.277-.096.417l-2.991 14.929-128.237-31.375c-4.969-1.221-10.126-.108-14.147 3.047-4.025 3.157-6.333 7.903-6.333 13.022v10.576c-5.888-2.013-14.248-1.531-20.392 3.186-5.115 3.991-8.048 10-8.048 16.487v95.066c0 4.142 3.358 7.5 7.5 7.5s7.5-3.358 7.5-7.5v-95.066c0-1.834.83-3.533 2.275-4.662 1.446-1.128 3.298-1.519 5.075-1.074l154.511 38.723v62.079c0 4.142 3.358 7.5 7.5 7.5h.008s.005 0 .008 0c4.142 0 7.5-3.358 7.5-7.5v-60.428h12.828c.013 0 .026.002.039.002h.005s.003 0 .005 0c.013 0 .026-.002.039-.002h12.825v60.428c0 4.142 3.357 7.5 7.5 7.5s7.5-3.358 7.5-7.5v-62.075l154.526-38.725c1.775-.445 3.628-.055 5.075 1.074 1.446 1.128 2.275 2.827 2.275 4.662v95.066c0 4.142 3.357 7.5 7.5 7.5s7.5-3.358 7.5-7.5v-95.066c.001-6.487-2.933-12.496-8.047-16.487zm-217.459-144.129c8.715-2.629 16.955-6.692 24.36-12.029-.634 12.318 10.799 22.942 23.617 21.56l-13.684 13.684c-5.969 5.97-8.216 14.272-6.753 21.994l-15.877-3.469c-6.758-1.477-11.663-7.571-11.663-14.492zm191.057-40.795v30.256c0 27.054-22.01 49.063-49.064 49.063h-23.725c-27.055 0-49.064-22.01-49.064-49.063v-30.256zm-94.243 102.992c-4.987-1.573-19.997-6.621-24.663-7.241l11.58-11.58c4.072 2.618 8.453 4.791 13.083 6.442zm-24.721-28.396-13.61 13.611c-3.73 3.731-9.802 3.731-13.507.026-.009-.009-.066-.067-.075-.076-3.733-3.733-3.733-9.808 0-13.541l15.962-15.962c2.922 5.883 6.724 11.251 11.23 15.942zm-17.671-39.27h-9.408c-3.118 0-5.654-2.536-5.654-5.653v-24.018c0-3.117 2.536-5.653 5.654-5.653h9.188v30.255c.001 1.707.088 3.394.22 5.069zm-2.469 71.366 39.796 10.43c-1.081.222-53.767 8.367-54.982 8.712 5.712-5.728 10.816-12.135 15.186-19.142zm96.495 16.903c0 2.196-1.317 4.167-3.279 4.906-9.695 3.652-20.38 3.651-30.081.001-1.958-.739-3.273-2.711-3.273-4.907v-29.6c8.291.476 27.098.599 36.634 0v29.6zm66.941-35.464c-.009.009-.068.068-.077.076-1.808 1.808-4.21 2.803-6.765 2.803-2.556 0-4.958-.996-6.768-2.805l-13.615-13.608c4.508-4.692 8.31-10.061 11.233-15.946l15.964 15.964c3.735 3.734 3.735 9.808.028 13.516zm5.512-58.459c0 3.117-2.536 5.653-5.653 5.653h-9.411c.132-1.675.219-3.362.219-5.069v-30.255h9.191c3.117 0 5.653 2.536 5.653 5.653v24.018zm-55.408-120.625c24.518 0 44.464 19.946 44.464 44.464v31.49h-38.809v-29.171c0-4.142-3.357-7.5-7.5-7.5s-7.5 3.358-7.5 7.5v29.171h-105.843v-31.49c0-24.518 19.946-44.464 44.464-44.464zm-101.202-8.2v1.629c-5.581 3.346-10.564 7.584-14.765 12.511-26.894-11.721-34.879-49.185-35.803-54.023v-43.232c30.017 15.611 50.568 47.006 50.568 83.115zm-114.549-93.619h20.93c9.768 0 19.191 1.506 28.05 4.295v47.868c-27.535 39.925-122.14 55.465-129.89 56.675h-12.709v-15.219c0-51.621 41.998-93.619 93.619-93.619zm-101.369 163.68c-6.104 0-11.071-4.966-11.071-11.071v-17.701c0-6.104 4.966-11.071 11.071-11.071h13.529v31.021c0 2.981.169 5.922.48 8.822zm28.53-8.822v-32.15c21.808-3.834 92.333-18.466 125.808-52.075 5.532 19.148 21.641 42.514 38.515 49.799-3.791 7.821-5.921 16.591-5.921 25.85v31.785c-.631 1.153-1.285 2.265-1.954 3.329-5.762 3.716-9.778 12.261-8.991 20.403-12.597 12.908-29.95 20.271-48.062 20.271h-32.184c-37.06.001-67.211-30.151-67.211-67.212zm7.259 141.174 27.78-6.071c13.595-2.968 23.461-15.226 23.461-29.146v-24.21c2.864.303 5.769.466 8.712.466h32.184c2.92 0 5.825-.156 8.702-.464v24.208c0 13.918 9.867 26.175 23.461 29.146l27.787 6.072c-17.342 24.523-45.635 39.391-76.041 39.391-30.417-.001-58.711-14.869-76.046-39.392zm-24.71 67.901c0-.625.321-1.009.591-1.221.267-.21.71-.43 1.321-.28l151.892 37.162v14.228h-11.942l-141.862-35.553zm168.815 49.889v-14.228l151.899-37.163c.597-.149 1.045.072 1.312.283.271.212.593.596.593 1.219v14.335l-141.866 35.554z" fill="#ffffff" data-original="#000000"></path><path d="m365.675 238.652c4.143 0 7.5-3.358 7.5-7.5v-4.981c0-4.142-3.357-7.5-7.5-7.5s-7.5 3.358-7.5 7.5v4.981c0 4.142 3.357 7.5 7.5 7.5z" fill="#ffffff" data-original="#000000"></path><path d="m365.675 272.162c8.271 0 15.773-4.225 20.069-11.301 2.149-3.541 1.021-8.154-2.519-10.303-3.541-2.148-8.154-1.022-10.304 2.519-1.553 2.558-4.262 4.085-7.247 4.085s-5.694-1.527-7.247-4.085c-2.149-3.542-6.763-4.667-10.304-2.519-3.54 2.149-4.668 6.763-2.519 10.303 4.297 7.077 11.8 11.301 20.071 11.301z" fill="#ffffff" data-original="#000000"></path><path d="m195.954 185.753h5.583c4.142 0 7.5-3.358 7.5-7.5 0-3.479-2.369-6.405-5.583-7.252v-8.468c0-4.142-3.358-7.5-7.5-7.5s-7.5 3.358-7.5 7.5v15.72c0 4.143 3.358 7.5 7.5 7.5z" fill="#ffffff" data-original="#000000"></path><path d="m147.799 145.499c-4.142 0-7.5 3.358-7.5 7.5v10.728c0 4.142 3.358 7.5 7.5 7.5s7.5-3.358 7.5-7.5v-10.728c0-4.143-3.358-7.5-7.5-7.5z" fill="#ffffff" data-original="#000000"></path><path d="m244.108 171.226c4.142 0 7.5-3.358 7.5-7.5v-10.728c0-4.142-3.358-7.5-7.5-7.5s-7.5 3.358-7.5 7.5v10.728c0 4.142 3.358 7.5 7.5 7.5z" fill="#ffffff" data-original="#000000"></path><path d="m217.298 210.687c2.149-3.541 1.021-8.154-2.519-10.303-3.541-2.148-8.154-1.021-10.303 2.519-1.826 3.008-5.012 4.803-8.522 4.803s-6.697-1.795-8.522-4.803c-2.149-3.54-6.761-4.668-10.303-2.519-3.541 2.149-4.668 6.762-2.519 10.303 4.569 7.526 12.548 12.019 21.345 12.019s16.774-4.494 21.343-12.019z" fill="#ffffff" data-original="#000000"></path><circle cx="400.87" cy="227.51" r="7.5" fill="#ffffff" data-original="#000000"></circle><circle cx="330.479" cy="227.51" r="7.5" fill="#ffffff" data-original="#000000"></circle></g></g></svg>