<svg xmlns="http://www.w3.org/2000/svg" version="1.1" xmlns:xlink="http://www.w3.org/1999/xlink" xmlns:svgjs="http://svgjs.com/svgjs" width="512" height="512" x="0" y="0" viewBox="0 0 512 512.00012" style="enable-background:new 0 0 512 512" xml:space="preserve" class=""><g><path xmlns="http://www.w3.org/2000/svg" d="m230.464844 243.613281c-5.523438 0-10 4.480469-10 10v19.9375c0 5.519531 4.476562 10 10 10 5.523437 0 10-4.480469 10-10v-19.9375c0-5.519531-4.476563-10-10-10zm0 0" fill="#ffffff" data-original="#000000"></path><path xmlns="http://www.w3.org/2000/svg" d="m280.230469 243.613281c-5.523438 0-10 4.480469-10 10v19.9375c0 5.519531 4.476562 10 10 10 5.519531 0 10-4.480469 10-10v-19.9375c0-5.519531-4.480469-10-10-10zm0 0" fill="#ffffff" data-original="#000000"></path><path xmlns="http://www.w3.org/2000/svg" d="m230.464844 308.675781c-5.523438 0-10 4.476563-10 10v19.933594c0 5.523437 4.476562 10 10 10 5.523437 0 10-4.476563 10-10v-19.933594c0-5.523437-4.476563-10-10-10zm0 0" fill="#ffffff" data-original="#000000"></path><path xmlns="http://www.w3.org/2000/svg" d="m280.230469 308.675781c-5.523438 0-10 4.476563-10 10v19.933594c0 5.523437 4.476562 10 10 10 5.519531 0 10-4.476563 10-10v-19.933594c0-5.523437-4.480469-10-10-10zm0 0" fill="#ffffff" data-original="#000000"></path><path xmlns="http://www.w3.org/2000/svg" d="m100.886719 374.957031c-19.265625 0-34.9375 15.671875-34.9375 34.933594 0 19.265625 15.671875 34.9375 34.9375 34.9375 19.261719 0 34.9375-15.671875 34.9375-34.9375 0-19.261719-15.675781-34.933594-34.9375-34.933594zm0 49.871094c-8.238281 0-14.9375-6.699219-14.9375-14.9375 0-8.234375 6.699219-14.9375 14.9375-14.9375 8.234375 0 14.9375 6.703125 14.9375 14.9375-.003907 8.238281-6.703125 14.9375-14.9375 14.9375zm0 0" fill="#ffffff" data-original="#000000"></path><path xmlns="http://www.w3.org/2000/svg" d="m411.113281 444.828125c19.265625 0 34.9375-15.671875 34.9375-34.9375 0-19.261719-15.671875-34.9375-34.9375-34.9375-19.261719 0-34.933593 15.671875-34.933593 34.9375s15.671874 34.9375 34.933593 34.9375zm0-49.871094c8.238281 0 14.9375 6.699219 14.9375 14.933594 0 8.238281-6.699219 14.9375-14.9375 14.9375-8.234375 0-14.933593-6.699219-14.933593-14.9375 0-8.234375 6.699218-14.933594 14.933593-14.933594zm0 0" fill="#ffffff" data-original="#000000"></path><path xmlns="http://www.w3.org/2000/svg" d="m75.539062 287.699219c1.601563 3.84375 5.539063 6.359375 9.703126 6.15625 4.054687-.195313 7.695312-2.921875 8.996093-6.769531 1.320313-3.898438.066407-8.335938-3.125-10.941407-3.378906-2.761719-8.257812-2.988281-11.894531-.582031-3.9375 2.605469-5.460938 7.789062-3.679688 12.136719zm0 0" fill="#ffffff" data-original="#000000"></path><path xmlns="http://www.w3.org/2000/svg" d="m497.640625 375.222656c1.382813.667969 2.871094 1 4.359375 1 1.851562 0 3.691406-.511718 5.3125-1.527344 2.917969-1.828124 4.6875-5.027343 4.6875-8.472656v-47.546875c0-3.835937-2.195312-7.335937-5.652344-9.003906l-150.699218-72.777344v-28.648437h10.769531c5.519531 0 10-4.476563 10-10v-40.269532c0-5.523437-4.480469-10-10-10h-17.300781v-30.300781c10.234374-2.953125 19.085937-10.347656 23.472656-20.925781 7.644531-18.457031-1.148438-39.695312-19.605469-47.34375-18.453125-7.644531-39.691406 1.148438-47.339844 19.605469-7.644531 18.457031 1.148438 39.691406 19.605469 47.339843 1.277344.53125 2.566406.972657 3.867188 1.347657v30.277343h-62.433594v-55.027343c2.871094 1.214843 5.75 1.742187 8.75.527343 2.457031-.992187 4.421875-2.921874 5.457031-5.367187l22.101563-52.101563c2.15625-5.082031-.214844-10.953124-5.300782-13.109374l-52.101562-22.105469c-2.441406-1.035157-5.195313-1.058594-7.652344-.0625-2.460938.992187-4.421875 2.921875-5.457031 5.363281l-22.105469 52.105469c-2.15625 5.082031.21875 10.953125 5.300781 13.109375l31.007813 13.15625v63.511718h-61.285156v-21.621093h20.152343c3.570313 0 6.871094-1.90625 8.660157-5 1.785156-3.09375 1.785156-6.90625 0-10l-30.152344-52.222657c-1.789063-3.09375-5.089844-5-8.660156-5-3.574219 0-6.875 1.90625-8.660157 5l-30.152343 52.222657c-1.785157 3.09375-1.785157 6.90625 0 10 1.785156 3.09375 5.085937 5 8.660156 5h20.152344v21.621093h-17.511719c-5.523438 0-10 4.476563-10 10v40.269532c0 5.523437 4.476562 10 10 10h8.464843v28.648437l-35.652343 17.210938c-4.972657 2.402343-7.058594 8.378906-4.65625 13.355469 2.398437 4.972656 8.378906 7.058593 13.351562 4.65625l26.957031-13.015626v25.140626l-136.351562 66.027343v-25.320312l28.328125-13.683594c4.972656-2.402344 7.058594-8.382813 4.652344-13.355469-2.398438-4.972656-8.378907-7.054687-13.351563-4.652344l-33.980468 16.414063c-3.453126 1.667969-5.648438 5.167969-5.648438 9.003906v47.546875c0 3.441406 1.769531 6.644532 4.6875 8.472656 1.617188 1.015626 3.460938 1.527344 5.3125 1.527344 1.488281 0 2.976562-.332031 4.359375-1l11.0625-5.355468v122.132812h-15.421875c-5.523438 0-10 4.476562-10 10s4.476562 10 10 10h492c5.523438 0 10-4.476562 10-10s-4.476562-10-10-10h-15.421875v-122.132812zm-173.519531-298.554687c2.585937-6.246094 8.644531-10.019531 15.015625-10.019531 2.066406 0 4.167969.398437 6.191406 1.234374 4.007813 1.660157 7.125 4.78125 8.785156 8.789063 1.65625 4.003906 1.65625 8.414063-.003906 12.421875-3.425781 8.265625-12.9375 12.207031-21.207031 8.78125-8.265625-3.425781-12.207032-12.941406-8.78125-21.207031zm-77.136719-53.558594 33.691406 14.292969-14.292969 33.691406-33.691406-14.292969zm-71.589844 61.023437 12.832031 22.222657h-25.664062zm316.605469 240.816407v25.320312l-136.351562-66.023437v-25.140625zm-334.113281-156.972657h198.53125v20.269532h-198.53125zm-112.464844 324.023438v-131.816406l1.878906-.914063 109.050781-52.800781v185.53125zm189.75 0v-72.109375h39.566406v72.109375zm59.566406 0v-82.109375c0-5.523437-4.480469-10-10-10h-59.566406c-5.523437 0-10 4.476563-10 10v82.109375h-38.820313v-283.753906h159.296876v283.753906zm171.839844 0h-110.929687v-185.53125l110.929687 53.714844zm0 0" fill="#ffffff" data-original="#000000"></path></g></svg>