<svg xmlns="http://www.w3.org/2000/svg" version="1.1" xmlns:xlink="http://www.w3.org/1999/xlink" xmlns:svgjs="http://svgjs.com/svgjs" width="512" height="512" x="0" y="0" viewBox="0 0 60 60" style="enable-background:new 0 0 512 512" xml:space="preserve" class=""><g><path xmlns="http://www.w3.org/2000/svg" d="M23.436,51.47a.5.5,0,0,1-.263-.925l7.3-4.515-9.3,5.372a.5.5,0,0,1-.519-.854L39.17,38.762,17.274,51.4a.5.5,0,0,1-.512-.858l12.613-7.778L14.415,51.4a.5.5,0,0,1-.515-.857L33.413,38.389,10.873,51.4a.5.5,0,0,1-.512-.859L26.4,40.712,7.881,51.4a.5.5,0,0,1-.511-.859l16.215-9.895-18.6,10.74a.5.5,0,0,1-.512-.859L29.81,34.888,2.746,50.513a.5.5,0,0,1-.508-.862l10.367-6.245L1.917,49.577a.5.5,0,0,1-.511-.859L24.191,34.8,1.322,48a.5.5,0,0,1-.51-.859l23.25-14.21L1.279,46.088a.5.5,0,0,1-.511-.859L24.049,30.935,1.279,44.08a.5.5,0,0,1-.512-.857L23.954,28.876,1.278,41.968a.5.5,0,0,1-.507-.862L3.5,39.464,1.278,40.745a.5.5,0,0,1-.512-.858L17.485,29.572,1.277,38.929a.5.5,0,0,1-.514-.858L18.072,27.284,1.277,36.98a.5.5,0,0,1-.51-.859l5.4-3.3L1.277,35.646a.5.5,0,0,1-.511-.858l6.746-4.146-6.236,3.6a.5.5,0,0,1-.517-.854l14.1-8.944L1.276,32.283a.5.5,0,0,1-.514-.856l6.88-4.291L1.275,30.811a.5.5,0,0,1-.514-.858l4.079-2.54L1.275,29.471a.5.5,0,0,1-.513-.858l1.066-.662-.553.319a.5.5,0,0,1-.521-.853l7.5-4.837L1.274,26.607a.5.5,0,0,1-.516-.855l.876-.553-.36.207a.5.5,0,0,1-.529-.847L7.834,19.8,1.273,23.582a.5.5,0,0,1-.532-.846L6.073,19.1l-4.8,2.77a.5.5,0,0,1-.538-.841l4.4-3.106-3.86,2.227a.5.5,0,0,1-.542-.837L3.378,17.4,1.272,18.616A.5.5,0,0,1,.706,17.8l2.753-2.251L1.272,16.808a.5.5,0,0,1-.6-.787l1.65-1.644-1.049.6a.5.5,0,0,1-.68-.687L1.237,13.2A.5.5,0,0,1,.9,12.963a.5.5,0,0,1,.183-.684L2.263,11.6a.5.5,0,0,1,.68.688l-.52.878L5.138,11.6a.5.5,0,0,1,.6.787L4.09,14.026,8.3,11.6a.5.5,0,0,1,.566.819L6.113,14.668,11.435,11.6a.5.5,0,0,1,.542.838l-2.648,1.91,4.76-2.748a.5.5,0,0,1,.538.841l-4.391,3.1L17.068,11.6a.5.5,0,0,1,.533.845l-5.337,3.642L20.038,11.6a.5.5,0,0,1,.529.847L13.483,17.2,23.2,11.594a.5.5,0,0,1,.517.855l-.882.557,2.446-1.412a.5.5,0,0,1,.522.852l-7.494,4.835,9.853-5.688a.5.5,0,0,1,.514.857l-1.073.667,2.64-1.524a.5.5,0,0,1,.515.857l-4.086,2.544,5.892-3.4a.5.5,0,0,1,.515.856L26.2,16.736l8.912-5.144a.5.5,0,0,1,.518.854l-14.1,8.945,16.973-9.8a.5.5,0,0,1,.512.858L32.275,16.6l8.669-5.005a.5.5,0,0,1,.511.859l-5.418,3.308,7.219-4.167a.5.5,0,0,1,.515.857L26.458,23.237,46.631,11.591a.5.5,0,0,1,.513.858L30.437,22.756,49.778,11.59a.5.5,0,0,1,.508.861l-2.758,1.66L51.9,11.59a.5.5,0,0,1,.513.857L29.231,26.788l26.327-15.2a.5.5,0,0,1,.511.858L32.794,26.739,58.211,12.064a.5.5,0,0,1,.511.86L35.465,27.138,58.72,13.712a.5.5,0,0,1,.51.859L36.456,28.481,58.72,15.628a.5.5,0,0,1,.508.861L48.866,22.73l9.854-5.688a.5.5,0,0,1,.512.858L33.89,33.544,58.72,19.209a.5.5,0,0,1,.51.859L43,29.976,58.72,20.9a.5.5,0,0,1,.511.859L43.212,31.577,58.72,22.624a.5.5,0,0,1,.514.857L39.722,35.637l19-10.968a.5.5,0,0,1,.512.858L46.61,33.312,58.72,26.32a.5.5,0,0,1,.518.855L40.723,38.958l18-10.39a.5.5,0,0,1,.512.858l-7.3,4.515,6.791-3.92a.5.5,0,0,1,.521.853l-15.31,9.92L58.72,32.256a.5.5,0,0,1,.514.857l-4.189,2.611L58.72,33.6a.5.5,0,0,1,.516.855l-5.043,3.178,4.527-2.613a.5.5,0,0,1,.528.848L48.58,43.015l10.14-5.854a.5.5,0,0,1,.52.854l-2.968,1.9,2.448-1.412a.5.5,0,0,1,.538.841l-8.081,5.7L58.72,40.7a.5.5,0,0,1,.543.838l-5.7,4.12L58.72,42.68a.5.5,0,0,1,.554.829l-4.243,3.268,3.689-2.129a.5.5,0,0,1,.591.8l-3.1,2.894L58.7,46.9a.5.5,0,0,1,.576.812l-.645.557a.5.5,0,0,1,.176.926L54.984,51.4a.5.5,0,0,1-.576-.811l.2-.175L52.9,51.4a.5.5,0,0,1-.59-.8l3.1-2.893L49.02,51.4a.5.5,0,0,1-.555-.829l4.243-3.268-7.1,4.1a.5.5,0,0,1-.543-.838l5.7-4.119L42.178,51.4a.5.5,0,0,1-.538-.84l8.079-5.7L38.383,51.4a.5.5,0,0,1-.521-.853l2.977-1.91L36.051,51.4a.5.5,0,0,1-.529-.847l10.666-7.143L32.349,51.4a.5.5,0,0,1-.517-.855l5.041-3.177L29.888,51.4a.5.5,0,0,1-.515-.857l4.184-2.607-6,3.464a.5.5,0,0,1-.522-.852l15.311-9.92L23.686,51.4A.5.5,0,0,1,23.436,51.47Z" fill="#e1efff" data-original="#e1efff"></path><path xmlns="http://www.w3.org/2000/svg" d="M3.862,13.5a.5.5,0,0,1-.3-.9l3.83-2.852L1.28,13.273a.5.5,0,0,1-.56-.824L5.225,8.883,1.28,11.16a.5.5,0,0,1-.555-.828L2.239,9.159l-.959.554a.5.5,0,0,1-.642-.742L2.325,6.825,2.2,6.9a.5.5,0,0,1-.5-.865L4.073,4.661a.5.5,0,0,1,.643.742L3.027,7.55,8.143,4.6a.5.5,0,0,1,.555.828L7.186,6.6l3.462-2a.5.5,0,0,1,.561.824L6.7,8.987,14.309,4.6a.5.5,0,0,1,.548.834L11.026,8.285,17.414,4.6a.5.5,0,0,1,.54.84L15.245,7.37l4.8-2.772a.5.5,0,0,1,.539.84L18.131,7.179,22.6,4.6a.5.5,0,0,1,.545.836L19.664,7.989,25.539,4.6a.5.5,0,0,1,.537.841l-2.1,1.474L27.988,4.6a.5.5,0,0,1,.547.835l-3.66,2.706L31.009,4.6a.5.5,0,0,1,.542.838l-3,2.163,5.2-3a.5.5,0,0,1,.552.831L30.194,8.536,37.017,4.6a.5.5,0,0,1,.564.821L32.7,9.374,40.97,4.6a.5.5,0,0,1,.67.162.5.5,0,0,1-.129.678L38.755,7.407,43.622,4.6a.5.5,0,0,1,.542.839L41.277,7.509,46.32,4.6a.5.5,0,0,1,.559.826l-4.6,3.616,7.7-4.442a.5.5,0,0,1,.563.822l-4.844,3.9L53.878,4.6a.5.5,0,0,1,.533.844l-.948.651L55.8,4.743a.5.5,0,0,1,.537.842l-1.9,1.331,2.664-1.537a.5.5,0,0,1,.57.817L53.6,9.573,58.32,6.847a.5.5,0,0,1,.544.837L58.7,7.8a.5.5,0,0,1,.51.847l-1.079.89.592-.341a.5.5,0,0,1,.656.724l-1.044,1.461.4-.233a.5.5,0,0,1,.5.866l-2.4,1.388a.5.5,0,0,1-.656-.723l1.045-1.463-3.789,2.187a.5.5,0,0,1-.569-.818l1.078-.89-2.962,1.71a.5.5,0,0,1-.544-.837l.128-.092-1.613.93a.5.5,0,0,1-.569-.817l4.078-3.377-7.269,4.2a.5.5,0,0,1-.537-.842l1.894-1.331-3.765,2.174a.5.5,0,0,1-.533-.845l.953-.653-2.6,1.5a.5.5,0,0,1-.563-.822l4.843-3.9L36.7,13.414a.5.5,0,0,1-.558-.826l4.6-3.617-7.7,4.445a.5.5,0,0,1-.542-.839l2.886-2.071-5.045,2.912a.5.5,0,0,1-.541-.84l2.757-1.971-4.871,2.812a.5.5,0,0,1-.564-.821L32.01,8.643l-8.278,4.778a.5.5,0,0,1-.551-.831l4.105-3.107-6.825,3.94a.5.5,0,0,1-.542-.838l3-2.166-5.2,3a.5.5,0,0,1-.547-.835l3.657-2.7L14.7,13.426a.5.5,0,0,1-.537-.842l2.1-1.477-4.018,2.32a.5.5,0,0,1-.546-.836l3.482-2.554L9.306,13.429a.5.5,0,0,1-.539-.841l2.461-1.743L6.749,13.43a.5.5,0,0,1-.54-.84l2.709-1.934L4.112,13.431A.491.491,0,0,1,3.862,13.5Z" fill="#d14a7b" data-original="#d14a7b"></path><path xmlns="http://www.w3.org/2000/svg" d="M10.028,9.468a.5.5,0,0,1-.4-.795l.548-.75-1.4.806a.5.5,0,0,1-.6-.791l.578-.563L8.3,7.639a.5.5,0,0,1-.62-.77L9.429,4.946,8.28,5.608a.5.5,0,0,1-.6-.79l.648-.632-.049.027a.5.5,0,0,1-.658-.722l.709-1a.545.545,0,0,1-.448-.25.5.5,0,0,1,.182-.682L9.723.6a.5.5,0,0,1,.658.721l-.627.887,1.522-.879a.5.5,0,0,1,.6.79l-.649.635.485-.28a.5.5,0,0,1,.62.769L10.58,5.166l1.14-.657a.5.5,0,0,1,.6.791l-.577.562a.5.5,0,0,1,.633.74l-.665.911a.5.5,0,0,1,.225.931L10.278,9.4A.49.49,0,0,1,10.028,9.468Z" fill="#e1efff" data-original="#e1efff"></path><path xmlns="http://www.w3.org/2000/svg" d="M20.028,9.468a.5.5,0,0,1-.415-.779l.74-1.1-1.707.984a.5.5,0,0,1-.593-.8l.479-.453-.249.144a.5.5,0,0,1-.59-.8l.685-.636-.1.056a.5.5,0,0,1-.59-.8l.509-.471a.5.5,0,0,1-.6-.723l.988-1.686-.022.012a.5.5,0,0,1-.5-.865L19.723.6a.494.494,0,0,1,.6.08.5.5,0,0,1,.077.6L19.417,2.97l2.119-1.224a.5.5,0,0,1,.59.8l-.481.445.075-.043a.5.5,0,0,1,.59.8l-.689.64.1-.057a.5.5,0,0,1,.593.8l-.5.478a.5.5,0,0,1,.577.751L21.6,7.518a.5.5,0,0,1,.33.926L20.278,9.4A.49.49,0,0,1,20.028,9.468Z" fill="#e1efff" data-original="#e1efff"></path><path xmlns="http://www.w3.org/2000/svg" d="M30.028,9.468a.5.5,0,0,1-.428-.757l.952-1.593L28.488,8.31a.5.5,0,0,1-.586-.8l.292-.265a.5.5,0,0,1-.53-.812L29.3,4.666l-1.019.588a.5.5,0,0,1-.6-.787l.571-.569a.5.5,0,0,1-.608-.762l.536-.667a.5.5,0,0,1-.112-.913L29.723.6a.5.5,0,0,1,.639.746l-.27.336.982-.567a.5.5,0,0,1,.6.787l-.568.564.56-.322a.5.5,0,0,1,.616.772L30.65,4.68l1.07-.617a.5.5,0,0,1,.586.8l-.4.362a.485.485,0,0,1,.419.145.5.5,0,0,1,.072.607l-.952,1.592a.5.5,0,0,1,.488.873L30.278,9.4A.49.49,0,0,1,30.028,9.468Z" fill="#e1efff" data-original="#e1efff"></path><path xmlns="http://www.w3.org/2000/svg" d="M39.888,9.461a.5.5,0,0,1-.384-.82l.276-.331-.912.526a.5.5,0,0,1-.639-.747l1.656-2.045-1.6.926a.5.5,0,0,1-.632-.756L39.53,3.987l-1.25.722A.5.5,0,0,1,37.6,4.02l.953-1.592a.5.5,0,0,1-.49-.872L39.723.6a.5.5,0,0,1,.678.689L39.449,2.88l2.063-1.191a.5.5,0,0,1,.632.755L40.262,4.672,41.72,3.83a.5.5,0,0,1,.638.747L40.7,6.621l1.016-.586a.5.5,0,0,1,.634.753l-.5.6a.5.5,0,0,1,.159.925L40.138,9.4A.508.508,0,0,1,39.888,9.461Z" fill="#e1efff" data-original="#e1efff"></path><path xmlns="http://www.w3.org/2000/svg" d="M50.028,9.468a.5.5,0,0,1-.4-.8l.4-.52-1.179.679a.5.5,0,0,1-.637-.749l1.64-2.009-1.577.911a.5.5,0,0,1-.614-.776L49.2,4.565,48.28,5.1a.5.5,0,0,1-.592-.8l.347-.324a.461.461,0,0,1-.384-.174.5.5,0,0,1-.012-.638l.549-.691a.5.5,0,0,1-.123-.916L49.723.6a.5.5,0,0,1,.641.744l-.3.381,1.031-.6a.5.5,0,0,1,.592.8l-.139.13.09-.052a.5.5,0,0,1,.614.775L50.714,4.415l1.006-.58a.5.5,0,0,1,.637.749l-1.64,2.01,1-.579a.5.5,0,0,1,.646.737l-.592.769a.5.5,0,0,1,.16.923L50.278,9.4A.49.49,0,0,1,50.028,9.468Z" fill="#e1efff" data-original="#e1efff"></path><path xmlns="http://www.w3.org/2000/svg" d="M13.19,59.47a.5.5,0,0,1-.267-.923l14.806-9.363-16.42,9.48a.5.5,0,0,1-.518-.854L28.36,46.669l-17.08,9.86a.5.5,0,0,1-.51-.859l3.277-2-2.767,1.6a.5.5,0,0,1-.512-.859l8.47-5.222L11.28,53.779a.5.5,0,0,1-.513-.857l12.011-7.47L11.365,52.041a.5.5,0,0,1-.517-.855L27.826,40.444,11.28,50a.5.5,0,0,1-.509-.859l1.619-.988-1.11.641a.5.5,0,0,1-.514-.856l13.671-8.544L11.28,46.986a.5.5,0,0,1-.516-.855L27.133,35.8,11.28,44.956a.5.5,0,0,1-.518-.854L28.508,32.783,11.323,42.7a.5.5,0,0,1-.516-.855L23.259,33.98,11.28,40.9a.5.5,0,0,1-.513-.858l4.082-2.529L11.28,39.568a.5.5,0,0,1-.522-.851l11.907-7.736L11.28,37.554a.5.5,0,0,1-.525-.85l10.39-6.854L11.28,35.544a.5.5,0,0,1-.528-.849l8.427-5.633-7.9,4.559a.5.5,0,0,1-.54-.84l8.493-6.042L11.28,31.331a.5.5,0,0,1-.526-.849l1.6-1.064-1.074.62a.5.5,0,0,1-.534-.844l2.266-1.565-1.732,1a.5.5,0,0,1-.57-.816l4.129-3.445L11.28,26.421a.5.5,0,0,1-.552-.83l.406-.31a.506.506,0,0,1-.506-.192.5.5,0,0,1,.062-.663l.8-.747-.215.123a.5.5,0,0,1-.693-.663l.486-.939a.5.5,0,0,1-.24-.932l1.161-.67a.5.5,0,0,1,.693.663l-.424.819L14.831,20.6a.5.5,0,0,1,.59.8l-.8.748L17.3,20.6a.5.5,0,0,1,.553.83l-.258.2L19.369,20.6a.5.5,0,0,1,.57.816l-4.127,3.443L23.191,20.6a.5.5,0,0,1,.535.843L21.465,23,25.633,20.6a.5.5,0,0,1,.526.848l-1.6,1.064L27.872,20.6a.5.5,0,0,1,.54.84l-8.494,6.041L31.839,20.6a.5.5,0,0,1,.528.848l-8.429,5.636L35.17,20.6a.5.5,0,0,1,.525.849L25.309,28.3,38.65,20.6a.5.5,0,0,1,.523.851L27.267,29.185,42.14,20.6a.5.5,0,0,1,.513.857l-4.094,2.537,5.88-3.394a.5.5,0,0,1,.517.855L32.5,29.322,47.615,20.6a.5.5,0,0,1,.519.854L30.4,32.762,48.72,22.186a.5.5,0,0,1,.516.855L32.856,33.375,48.72,24.217a.5.5,0,0,1,.514.856L35.576,33.609,48.72,26.021a.5.5,0,0,1,.509.859l-1.619.987,1.11-.64a.5.5,0,0,1,.517.855L32.251,38.828,48.72,29.32a.5.5,0,0,1,.513.858l-12,7.463L48.72,31.009a.5.5,0,0,1,.512.858L40.741,37.1,48.72,32.5a.5.5,0,0,1,.51.859l-3.277,2,2.767-1.6a.5.5,0,0,1,.517.854L31.675,45.751,48.72,35.91a.5.5,0,0,1,.517.856L34.424,46.133l14.3-8.253a.5.5,0,0,1,.515.856l-9.507,5.957L48.72,39.5a.5.5,0,0,1,.52.852L37.015,48.227l11.7-6.757a.5.5,0,0,1,.524.85L37.938,49.733l10.776-6.22a.5.5,0,0,1,.521.852l-6.492,4.2L48.72,45.11a.5.5,0,0,1,.526.85l-6.6,4.368L48.72,46.82a.5.5,0,0,1,.541.84l-7.994,5.71,7.453-4.3a.5.5,0,0,1,.543.838L44.024,53.7l4.553-2.628a.5.5,0,0,1,.559.826l-3.984,3.129,3.568-2.059a.5.5,0,0,1,.56.824l-1.716,1.363,1.156-.667a.5.5,0,0,1,.572.815l-.51.429a.5.5,0,0,1,.588.763l-.619.83a.5.5,0,0,1,.469.882l-2.073,1.2a.5.5,0,0,1-.65-.731l.617-.827-2.7,1.558a.5.5,0,0,1-.572-.814l.49-.414L42.205,59.4a.5.5,0,0,1-.56-.824l1.714-1.362L39.572,59.4a.5.5,0,0,1-.558-.826L43,55.446,36.146,59.4a.5.5,0,0,1-.543-.838l5.238-3.793L32.817,59.4a.5.5,0,0,1-.541-.839l7.995-5.71L28.925,59.4a.5.5,0,0,1-.527-.849L35,54.187,25.964,59.4a.5.5,0,0,1-.522-.852l6.5-4.2L23.189,59.4a.5.5,0,0,1-.524-.85l11.3-7.411L19.657,59.4a.5.5,0,0,1-.52-.852l12.219-7.869L16.25,59.4a.5.5,0,0,1-.516-.856l9.508-5.957L13.44,59.4A.5.5,0,0,1,13.19,59.47Z" fill="#6de08e" data-original="#6de08e"></path><path xmlns="http://www.w3.org/2000/svg" d="M16.5,51.47a.5.5,0,0,1-.285-.911l1.606-1.116L14.427,51.4a.5.5,0,0,1-.537-.841L15.839,49.2l-3.785,2.185a.5.5,0,0,1-.532-.847l.3-.2-.519.3a.5.5,0,0,1-.555-.829L14.1,47.22l-2.82,1.627a.5.5,0,0,1-.561-.824l1.551-1.238-.99.57a.5.5,0,0,1-.609-.78l1.283-1.325-.674.389a.5.5,0,0,1-.686-.676l.427-.767a.5.5,0,0,1-.188-.928l1.161-.67a.5.5,0,0,1,.687.675l-.331.594,2.2-1.269a.5.5,0,0,1,.609.78L13.877,44.7l3.645-2.1a.5.5,0,0,1,.562.823l-1.552,1.24L20.106,42.6a.5.5,0,0,1,.555.829l-3.35,2.581,5.908-3.41a.5.5,0,0,1,.531.846l-.294.2L25.268,42.6a.5.5,0,0,1,.537.841l-1.955,1.37L27.68,42.6a.5.5,0,0,1,.535.843l-1.607,1.116L30,42.6a.5.5,0,0,1,.559.825l-4.625,3.645,7.745-4.47a.5.5,0,0,1,.537.841l-2.045,1.435L36.118,42.6a.5.5,0,0,1,.555.829l-4.312,3.312L39.535,42.6a.5.5,0,0,1,.565.821l-4.848,3.915,8.2-4.736a.5.5,0,0,1,.557.828l-4.427,3.428L46.962,42.6a.5.5,0,0,1,.545.836l-3.39,2.48,4.556-2.63a.5.5,0,0,1,.543.838l-2.058,1.484,1.562-.9a.5.5,0,0,1,.583.806l-2.919,2.612,2.336-1.349a.5.5,0,0,1,.587.8l-.707.644.12-.07a.5.5,0,0,1,.653.729l-.425.578a.541.541,0,0,1,.454.25.5.5,0,0,1-.182.683L47.468,51.4a.5.5,0,0,1-.654-.728l.342-.466L45.088,51.4a.5.5,0,0,1-.587-.8l.708-.645L42.7,51.4a.5.5,0,0,1-.583-.8l2.919-2.612L39.118,51.4a.5.5,0,0,1-.543-.838l2.057-1.483L36.61,51.4a.5.5,0,0,1-.545-.836l3.393-2.482L33.709,51.4a.5.5,0,0,1-.557-.828l4.427-3.428L30.2,51.4a.5.5,0,0,1-.564-.821l4.847-3.915L26.282,51.4a.5.5,0,0,1-.554-.829l4.311-3.312L22.865,51.4a.5.5,0,0,1-.537-.841l2.045-1.435L20.429,51.4a.5.5,0,0,1-.56-.825l4.625-3.645L16.75,51.4A.5.5,0,0,1,16.5,51.47Z" fill="#5fc77d" data-original="#5fc77d"></path><path xmlns="http://www.w3.org/2000/svg" d="M31.014,37.36a.5.5,0,0,1-.364-.843l1.54-1.629-3.753,2.167a.5.5,0,0,1-.565-.822l1.781-1.442-2.559,1.477a.5.5,0,0,1-.546-.836l.366-.269-.575.332a.5.5,0,0,1-.548-.834l.986-.732-1.032.595a.5.5,0,0,1-.581-.807l3.4-3L25.29,32.6a.5.5,0,0,1-.568-.819l1.431-1.179-.649.374a.5.5,0,0,1-.587-.8l1.15-1.051a.5.5,0,0,1-.012-.873l2.681-1.548a.5.5,0,0,1,.587.8l-.332.3,1.883-1.087a.5.5,0,0,1,.568.818l-1.431,1.18,2.373-1.37a.5.5,0,0,1,.581.807l-3.4,3,4.249-2.452a.5.5,0,0,1,.547.834l-.984.73.98-.565a.5.5,0,0,1,.546.836l-.371.271.117-.066a.5.5,0,0,1,.564.821l-1.779,1.443,1.227-.709a.5.5,0,0,1,.613.776l-1.636,1.731a.5.5,0,0,1,.493.247.5.5,0,0,1-.183.682l-2.681,1.548A.489.489,0,0,1,31.014,37.36Z" fill="#5fc77d" data-original="#5fc77d"></path><path xmlns="http://www.w3.org/2000/svg" d="M18.028,34.468a.5.5,0,0,1-.418-.775l.629-.957-1.55.9a.5.5,0,0,1-.7-.651l.824-1.7-.248.143a.5.5,0,0,1-.5-.865l1.658-.956a.5.5,0,0,1,.7.65l-.824,1.7,1.966-1.135a.5.5,0,0,1,.668.707l-.657,1a.5.5,0,0,1,.54.239.5.5,0,0,1-.182.682l-1.656.956A.49.49,0,0,1,18.028,34.468Z" fill="#5fc77d" data-original="#5fc77d"></path><path xmlns="http://www.w3.org/2000/svg" d="M42.028,34.468a.5.5,0,0,1-.433-.749l.759-1.323-1.8,1.037a.5.5,0,0,1-.687-.677l.774-1.382-.081.047a.5.5,0,0,1-.5-.865l1.658-.956a.5.5,0,0,1,.686.676l-.774,1.38L43.463,30.6a.5.5,0,0,1,.683.681L43.387,32.6l.047-.026a.5.5,0,0,1,.5.865l-1.656.956A.49.49,0,0,1,42.028,34.468Z" fill="#5fc77d" data-original="#5fc77d"></path><path xmlns="http://www.w3.org/2000/svg" d="M28.717,59.5a.5.5,0,0,1-.385-.819l1.485-1.787-1.537.887a.5.5,0,0,1-.605-.784l1.346-1.362-.741.428a.5.5,0,0,1-.6-.792l1.043-1.01-.446.257a.5.5,0,0,1-.611-.779l1.54-1.61-.929.535a.5.5,0,0,1-.615-.773L29.331,50.1l-1.051.606a.5.5,0,0,1-.607-.782l1.409-1.443-.8.462a.5.5,0,0,1-.6-.793l1-.961-.4.231a.5.5,0,0,1-.645-.738l1.524-1.972-.879.507a.5.5,0,0,1-.73-.571l.254-.881a.486.486,0,0,1-.206-.2.5.5,0,0,1,.182-.682l.506-.292a.5.5,0,0,1,.731.571l-.163.565,2-1.156a.5.5,0,0,1,.646.739l-1.524,1.97,1.745-1.007a.5.5,0,0,1,.6.793l-1,.964.407-.234a.5.5,0,0,1,.607.782l-1.408,1.442.8-.463a.5.5,0,0,1,.616.773L30.678,50.12l1.055-.608a.5.5,0,0,1,.612.778L30.806,51.9l.93-.537a.5.5,0,0,1,.6.792l-1.045,1.012.45-.26a.5.5,0,0,1,.606.784L31,55.051l.742-.428a.5.5,0,0,1,.635.752l-1.486,1.787.855-.493a.5.5,0,0,1,.7.66l-.312.61a.5.5,0,0,1,.12.915l-.963.556a.5.5,0,0,1-.7-.66l.188-.368-1.812,1.046A.489.489,0,0,1,28.717,59.5Z" fill="#fde05e" data-original="#fde05e"></path><path xmlns="http://www.w3.org/2000/svg" d="M44.818,43.49a.5.5,0,0,1-.366-.84l1.9-2.044-2.959,1.708a.5.5,0,0,1-.612-.778l2.078-2.175a.5.5,0,0,1-.429-.9l2.936-1.7a.5.5,0,0,1,.612.778L45.911,39.7l2.809-1.621a.5.5,0,0,1,.616.772L47.44,40.9l1.28-.738a.5.5,0,0,1,.7.66l-.5.98h0a.5.5,0,0,1,.25.932L48,43.4a.5.5,0,0,1-.7-.66l.446-.871-2.685,1.55A.489.489,0,0,1,44.818,43.49Z" fill="#5fc77d" data-original="#5fc77d"></path><path xmlns="http://www.w3.org/2000/svg" d="M12.388,27.3a.5.5,0,0,1-.348-.86l1.467-1.421L11.28,26.305a.5.5,0,0,1-.591-.8l2.01-1.875-1.419.819a.5.5,0,0,1-.713-.621l.674-1.654a.505.505,0,0,1-.591-.225.5.5,0,0,1,.183-.682L12,20.6a.5.5,0,0,1,.713.621l-.668,1.638L16,20.57a.5.5,0,0,1,.591.8L14.58,23.245l1.925-1.11a.5.5,0,0,1,.6.792l-1.734,1.68a.5.5,0,0,1,.205.931l-2.936,1.7A.49.49,0,0,1,12.388,27.3Z" fill="#5fc77d" data-original="#5fc77d"></path><path xmlns="http://www.w3.org/2000/svg" d="M14.672,43.47a.5.5,0,0,1-.429-.757l.634-1.057-2.931,1.692a.5.5,0,0,1-.627-.761l1.6-1.842-1.639.946a.5.5,0,0,1-.623-.765l.942-1.053-.319.184a.5.5,0,0,1-.742-.521l.314-1.749a.488.488,0,0,1-.254-.217.5.5,0,0,1,.182-.682l.46-.266a.5.5,0,0,1,.742.521l-.27,1.51L13.8,37.446a.5.5,0,0,1,.623.766l-.942,1.052,1.521-.877a.5.5,0,0,1,.627.76l-1.6,1.841,2.015-1.163a.5.5,0,0,1,.679.69l-.635,1.058.488-.281a.5.5,0,1,1,.5.865L14.922,43.4A.49.49,0,0,1,14.672,43.47Z" fill="#5fc77d" data-original="#5fc77d"></path><path xmlns="http://www.w3.org/2000/svg" d="M48.542,27.447a.5.5,0,0,1-.482-.633l.125-.449-1.091.629a.5.5,0,0,1-.647-.737l.609-.794-1.338.772a.5.5,0,0,1-.63-.756l1.577-1.849-2.246,1.3a.5.5,0,0,1-.61-.78l.878-.911-.929.536a.5.5,0,0,1-.75-.437l.015-1.524a.5.5,0,0,1-.227-.933l.485-.28a.5.5,0,0,1,.75.437l-.014,1.434L47.259,20.6a.5.5,0,0,1,.61.779l-.877.909,1.691-.975a.5.5,0,0,1,.629.756l-1.576,1.848,1-.574a.5.5,0,0,1,.647.737l-.61.8a.5.5,0,0,1,.706.58l-.221.8a.5.5,0,0,1,0,.864l-.458.265A.5.5,0,0,1,48.542,27.447Z" fill="#5fc77d" data-original="#5fc77d"></path><path xmlns="http://www.w3.org/2000/svg" d="M44.453,32.091a.533.533,0,0,0-.013-.115c0-.016.006-.028.005-.045a2.581,2.581,0,0,0-2.537-2.524,2.494,2.494,0,0,0-2.357,2.582,2.592,2.592,0,0,0,2.419,2.6A2.493,2.493,0,0,0,44.453,32.091Zm-3.987-.111c.1-1.815,2.863-1.767,3.073-.02C43.383,33.773,40.364,33.878,40.466,31.98Z" fill="#262626" data-original="#262626"></path><path xmlns="http://www.w3.org/2000/svg" d="M5.171,51.563c1.784.02,3.569.01,5.354,0a3.012,3.012,0,0,0-.252,1.322c0,1.7-.159,3.473,0,5.162.192,2.022,3.653,1.386,5.054,1.386h11.3c6.9,0,13.8.034,20.7,0h.257a.992.992,0,0,0,.328-.007c2.2-.355,1.818-2.185,1.818-3.908V52.559a3.319,3.319,0,0,0-.118-1.168h4.277c2.52,0,5.3-.959,5.779-3.806a15.867,15.867,0,0,0,.059-2.58V10.964a11.718,11.718,0,0,0-.176-3.327c-1-3.244-4.3-3.042-7.035-3.029.014-1.779.027-4.156-2.378-4.157-2.381,0-2.619,2.223-2.642,4.041H42.585C42.575,2.635,42.264.47,39.831.537,37.432.6,37.38,2.823,37.4,4.658h-4.95V4.62c0-1.765-.1-4.274-2.546-4.213-2.37.06-2.4,2.433-2.369,4.26H22.493C22.5,2.872,22.546.4,20.073.439c-2.416.036-2.556,2.376-2.564,4.2H12.57c.008-1.822-.006-4.144-2.481-4.122-2.37.021-2.626,2.1-2.653,3.916C5.164,4.4,2.807,4.312,1.237,6.3a5.7,5.7,0,0,0-.973,3.832V21.9c0,8.342-.181,16.7,0,25.045A4.652,4.652,0,0,0,5.171,51.563Zm22.105,5.649v1.351h-14.3c-.843,0-1.25-.237-1.25-1.209v-2.03H27.276Zm0-2.536H11.727q0-1.23,0-2.46a1.776,1.776,0,0,1,.054-.652h.164a.781.781,0,0,0,.428-.127h14.9Zm0-4.113H19.01c-2.166,0-4.358-.1-6.523,0a.7.7,0,0,0-.346-.11,1.233,1.233,0,0,1-.417-1.066c-.013-.622-.018-1.248-.023-1.874H27.276Zm0-4.073H11.7c0-.756.007-1.511.028-2.262.009-.28-.069-.693.056-.846.407.032.838.009,1.218.009h3.431a.712.712,0,0,0,.512.158,1.186,1.186,0,0,0,.48-.158h9.855ZM11.9,21.391a3.625,3.625,0,0,1,1.153,0h3.208a5.816,5.816,0,0,1-1.569,3.762,5.358,5.358,0,0,1-1.51,1.1,3.884,3.884,0,0,1-1.447.38c0-1.514,0-3.027-.006-4.54C11.723,21.748,11.622,21.522,11.9,21.391Zm-.171,16.247a5.441,5.441,0,0,1,2.912,1.5,5.648,5.648,0,0,1,1.582,3.472H13.074a2.892,2.892,0,0,1-.772,0c-.665-.222-.578-.922-.578-1.456ZM31.276,57.212v1.351H28.724V51.437h2.552Zm0-6.649H28.724V43.4h2.552ZM32.284,42.6h-4a1.714,1.714,0,0,0-.179.012H17.717a6.421,6.421,0,0,0-1.868-4.231,6.707,6.707,0,0,0-4.125-1.893V35.242q0-3.99.007-7.98A7.443,7.443,0,0,0,15.8,25.33a6.243,6.243,0,0,0,1.9-3.939h24.6a6.283,6.283,0,0,0,1.826,4.174,6.609,6.609,0,0,0,4.161,1.859V36.7a7.216,7.216,0,0,0-4.038,1.908,6.394,6.394,0,0,0-1.93,4H32.417A1,1,0,0,0,32.284,42.6Zm15.837.012H43.745a5.759,5.759,0,0,1,1.573-3.742,5.056,5.056,0,0,1,1.515-1.083,4.264,4.264,0,0,1,1.443-.38v3.818C48.276,41.371,48.368,42.516,48.121,42.609Zm.168-16.16a5.722,5.722,0,0,1-4.534-5.058H46.22c.907,0,1.872-.288,2.056.9A24.1,24.1,0,0,1,48.289,26.449Zm.042,28.141H32.724V51.437h14.3a2.6,2.6,0,0,1,.666,0c.776.238.584,1.116.584,1.724C48.273,53.305,48.3,53.873,48.331,54.59Zm-.113-4.033c-.35-.02-.711.006-1.025.006H32.724V47.352H48.329c-.028.5-.053,1-.053,1.462A7.429,7.429,0,0,1,48.218,50.557ZM48.1,58.563H32.724V55.41H48.357C48.394,56.864,48.378,58.484,48.1,58.563Zm.266-11.915H32.724V43.391H47.567c.034,0,.081,0,.124,0h.025c.269.093.469.309.56.811A11.276,11.276,0,0,1,48.365,46.648ZM48.19,3.234a1.676,1.676,0,1,1,3.352,0V6.847a1.676,1.676,0,0,1-3.352,0Zm-10.013,0a1.676,1.676,0,1,1,3.351,0V6.847a1.676,1.676,0,0,1-3.351,0Zm-9.8,0a1.676,1.676,0,1,1,3.351,0V6.847a1.676,1.676,0,0,1-3.351,0Zm-10.044,0a1.676,1.676,0,1,1,3.351,0V6.847a1.676,1.676,0,0,1-3.351,0Zm-10.014,0a1.676,1.676,0,1,1,3.352,0V6.847a1.676,1.676,0,0,1-3.352,0ZM1.736,8.989A3.331,3.331,0,0,1,4.958,5.563c.821-.037,1.648-.015,2.472,0,0,1.794.089,3.926,2.481,3.926,2.459-.248,2.643-2.165,2.656-4.122h4.94c-.011,1.808-.042,4.2,2.42,4.2,2.43-.245,2.558-2.315,2.564-4.228h5.055V5.38c0,1.8.1,4.213,2.546,4.213,2.373-.239,2.395-2.382,2.368-4.251h4.951v.064c0,1.853.277,3.88,2.511,4.029a.647.647,0,0,0,.245.028c2.336-.236,2.445-2.128,2.427-3.955h4.89c-.013,1.763.024,4.041,2.379,4.041C52.3,9.3,52.5,7.33,52.509,5.385c.681,0,1.362-.012,2.041.006a3.744,3.744,0,0,1,3.668,3.121,13.977,13.977,0,0,1,.058,2.315v1.637H1.736v-.7C1.736,10.844,1.705,9.913,1.736,8.989Zm0,29.945v-25.4h56.54V46.659c0,2.175-1.157,3.95-3.507,3.95H49.384a1.511,1.511,0,0,0,.34-.835,20.393,20.393,0,0,0,0-2.127V44.612c0-.685.052-1.38-.609-1.753.736-.659.609-1.79.609-2.976V24.388c0-1.287.484-3.518-1.276-3.765a18.309,18.309,0,0,0-2.49-.014h-2.44a.868.868,0,0,0-.43-.052,1.461,1.461,0,0,0-.239.052H22.98c-3.5,0-7.048-.158-10.548,0a2.224,2.224,0,0,0-1.981.934,2.849,2.849,0,0,0-.175,1.4V37.022c0,.01-.01.018-.011.028s.01.034.011.054v.664a31.747,31.747,0,0,0,0,4.416,1.222,1.222,0,0,0,.644.981,2.062,2.062,0,0,0-.644,1.671,45.763,45.763,0,0,0,0,5.277,1.72,1.72,0,0,0,.072.324h-4.1A4.958,4.958,0,0,1,3.351,49.9a3.664,3.664,0,0,1-1.615-3.042C1.649,44.226,1.736,41.572,1.736,38.934Z" fill="#262626" data-original="#262626"></path><path xmlns="http://www.w3.org/2000/svg" d="M24.4,32.038a5.549,5.549,0,0,0,5.548,5.408,5.63,5.63,0,0,0,5.65-5.484C35.221,24.943,24.365,24.956,24.4,32.038Zm5.186,4.489A4.591,4.591,0,0,1,25.6,31.962a4.4,4.4,0,1,1,3.988,4.565Z" fill="#262626" data-original="#262626"></path><path xmlns="http://www.w3.org/2000/svg" d="M18.014,29.55A2.541,2.541,0,0,0,15.4,31.981c-.009,3.193,5.029,3.2,5.2.038A2.577,2.577,0,0,0,18.014,29.55Zm0,4A1.5,1.5,0,0,1,16.6,32.019a1.539,1.539,0,0,1,1.251-1.552A1.473,1.473,0,0,1,19.4,31.981,1.534,1.534,0,0,1,18.014,33.55Z" fill="#262626" data-original="#262626"></path></g></svg>