<svg xmlns="http://www.w3.org/2000/svg" version="1.1" xmlns:xlink="http://www.w3.org/1999/xlink" xmlns:svgjs="http://svgjs.com/svgjs" width="512" height="512" x="0" y="0" viewBox="0 0 64 64" style="enable-background:new 0 0 512 512" xml:space="preserve" class=""><g><path xmlns="http://www.w3.org/2000/svg" d="M32,30a6,6,0,1,0-6-6A6.006,6.006,0,0,0,32,30Zm0-10a4,4,0,1,1-4,4A4,4,0,0,1,32,20Z" fill="#ffffff" data-original="#000000"></path><path xmlns="http://www.w3.org/2000/svg" d="M36,31H28a6.006,6.006,0,0,0-6,6v5a1,1,0,0,0,1,1H41a1,1,0,0,0,1-1V37A6.006,6.006,0,0,0,36,31Zm4,10H24V37a4,4,0,0,1,4-4h8a4,4,0,0,1,4,4Z" fill="#ffffff" data-original="#000000"></path><path xmlns="http://www.w3.org/2000/svg" d="M59,28c-.113,0-.218.024-.329.033L54.223,15.322a4,4,0,1,0-5.546-5.545L35.967,5.329C35.976,5.219,36,5.113,36,5a4,4,0,0,0-8,0c0,.113.024.219.033.329L15.323,9.778a4,4,0,1,0-5.546,5.545L5.329,28.033C5.219,28.024,5.113,28,5,28a4,4,0,0,0,0,8c.113,0,.219-.024.329-.033l4.449,12.71a4,4,0,1,0,5.545,5.546l12.71,4.448c-.009.11-.033.216-.033.329a4,4,0,0,0,8,0c0-.113-.024-.219-.033-.329l12.71-4.449a4,4,0,1,0,5.546-5.544l4.448-12.711c.111.009.216.033.329.033a4,4,0,0,0,0-8Zm-2.223.678A4,4,0,0,0,55.142,31H51.949a19.9,19.9,0,0,0-5.14-12.395l3.172-3.172A3.947,3.947,0,0,0,52,16c.113,0,.218-.024.329-.033ZM32,50A18,18,0,1,1,50,32,18.021,18.021,0,0,1,32,50ZM52,10a2,2,0,1,1-2,2A2,2,0,0,1,52,10Zm-3.967,1.671c-.009.11-.033.216-.033.329a3.947,3.947,0,0,0,.567,2.019L45.4,17.191A19.89,19.89,0,0,0,33,12.051V8.858a4,4,0,0,0,2.323-1.636ZM32,3a2,2,0,1,1-2,2A2,2,0,0,1,32,3ZM28.677,7.222A4,4,0,0,0,31,8.858v3.193a19.89,19.89,0,0,0-12.395,5.14l-3.172-3.172A3.947,3.947,0,0,0,16,12c0-.113-.024-.219-.033-.329ZM12,10a2,2,0,1,1-2,2A2,2,0,0,1,12,10Zm-.329,5.967c.11.009.216.033.329.033a3.947,3.947,0,0,0,2.019-.567l3.172,3.172A19.89,19.89,0,0,0,12.051,31H8.858a4,4,0,0,0-1.635-2.322ZM3,32a2,2,0,1,1,2,2A2,2,0,0,1,3,32Zm4.222,3.323A4,4,0,0,0,8.858,33h3.193a19.89,19.89,0,0,0,5.14,12.4l-3.172,3.172A3.947,3.947,0,0,0,12,48c-.113,0-.219.024-.329.033ZM12,54a2,2,0,1,1,2-2A2,2,0,0,1,12,54Zm3.967-1.671c.009-.11.033-.216.033-.329a3.947,3.947,0,0,0-.567-2.019l3.172-3.172A19.89,19.89,0,0,0,31,51.949v3.193a4,4,0,0,0-2.323,1.636ZM32,61a2,2,0,1,1,2-2A2,2,0,0,1,32,61Zm3.323-4.222A4,4,0,0,0,33,55.142V51.949a19.891,19.891,0,0,0,12.4-5.14l3.172,3.172A3.95,3.95,0,0,0,48,52c0,.113.024.219.033.329ZM52,54a2,2,0,1,1,2-2A2,2,0,0,1,52,54Zm.329-5.967C52.218,48.024,52.113,48,52,48a3.957,3.957,0,0,0-2.019.567L46.809,45.4A19.89,19.89,0,0,0,51.949,33h3.193a4,4,0,0,0,1.635,2.322ZM59,34a2,2,0,1,1,2-2A2,2,0,0,1,59,34Z" fill="#ffffff" data-original="#000000"></path></g></svg>