<svg xmlns="http://www.w3.org/2000/svg" version="1.1" xmlns:xlink="http://www.w3.org/1999/xlink" xmlns:svgjs="http://svgjs.com/svgjs" width="512" height="512" x="0" y="0" viewBox="0 0 60 60" style="enable-background:new 0 0 512 512" xml:space="preserve" class=""><g><path xmlns="http://www.w3.org/2000/svg" d="M44.681,24.487a.5.5,0,0,1-.406-.792l.951-1.32L43.28,23.5a.5.5,0,0,1-.62-.769l1.8-1.973-1.177.679a.5.5,0,0,1-.593-.8l.87-.824-.277.16a.5.5,0,0,1-.582-.807l.409-.363a.5.5,0,0,1-.441-.837l1.627-1.732-1.013.585a.5.5,0,0,1-.6-.789L43.828,14.9l-.548.316a.5.5,0,0,1-.614-.775l1.626-1.732L43.28,13.3a.5.5,0,0,1-.6-.786l1.26-1.261-.657.378a.5.5,0,0,1-.629-.759L44.4,8.841l-1.116.644a.5.5,0,0,1-.624-.764L43.743,7.5l-.756.437a.5.5,0,0,1-.623-.766l.7-.786-.757.437a.5.5,0,0,1-.669-.7L42.694,4.49,40.665,5.661a.5.5,0,0,1-.6-.788l.165-.162-1.2.691a.5.5,0,0,1-.629-.758l1.049-1.218L36.025,5.4a.5.5,0,0,1-.6-.79l1.159-1.135L33.248,5.4a.5.5,0,0,1-.6-.792L33.8,3.5,30.505,5.4a.5.5,0,0,1-.644-.74l1.494-1.911L26.763,5.4a.5.5,0,0,1-.571-.816l.243-.2L24.552,5.471a.5.5,0,0,1-.5-.866L30.993.6a.5.5,0,0,1,.57.816l-.244.2L33.087.6a.5.5,0,0,1,.643.74L32.236,3.249,36.829.6a.5.5,0,0,1,.6.792L36.277,2.5,39.508.635a.5.5,0,0,1,.6.79L38.948,2.561,41.5,1.087a.5.5,0,0,1,.629.759L41.082,3.063,43.1,1.9a.5.5,0,0,1,.6.789l-.164.162L44,2.58a.5.5,0,0,1,.669.705L43.615,4.908l1.64-.946a.5.5,0,0,1,.638.117.5.5,0,0,1-.015.649l-.7.785.74-.427a.5.5,0,0,1,.624.765L45.455,7.075l.992-.573a.5.5,0,0,1,.629.759L45.33,9.29l1.387-.8a.5.5,0,0,1,.6.786l-1.259,1.261.663-.382a.5.5,0,0,1,.614.775L45.713,12.66l1.014-.585a.5.5,0,0,1,.6.789l-1.146,1.128.549-.317a.5.5,0,0,1,.615.775l-1.628,1.732,1.017-.587a.5.5,0,0,1,.582.806l-.408.363a.5.5,0,0,1,.422.857l-.872.825.281-.162a.5.5,0,0,1,.62.77l-1.8,1.971,1.18-.68a.5.5,0,0,1,.655.724l-.95,1.32.3-.172a.5.5,0,1,1,.5.865L44.931,24.42A.489.489,0,0,1,44.681,24.487Z" fill="#9fbbce" data-original="#9fbbce"></path><path xmlns="http://www.w3.org/2000/svg" d="M19.653,13.48a.5.5,0,0,1-.459-.7l.724-1.675L17.28,12.63a.5.5,0,0,1-.612-.776L18.4,10.022l-1.124.649a.5.5,0,0,1-.53-.847l2.03-1.375-1.5.864a.5.5,0,0,1-.558-.827l4.47-3.51L17.661,7.017a.5.5,0,0,1-.6-.792l2.544-2.459a.5.5,0,0,1-.416-.9L22.6.891a.5.5,0,0,1,.6.792l-2.52,2.436L26.78.6a.5.5,0,0,1,.559.826L22.866,4.936,30.382.6a.5.5,0,0,1,.53.846l-9.291,6.29a.5.5,0,0,1-.12.477l-1.735,1.83.961-.555a.5.5,0,0,1,.709.631l-.724,1.675.032-.019a.5.5,0,1,1,.5.866l-1.341.774A.5.5,0,0,1,19.653,13.48Z" fill="#9fbbce" data-original="#9fbbce"></path><path xmlns="http://www.w3.org/2000/svg" d="M15.375,22.5a.5.5,0,0,1-.308-.893L17.113,20,14.28,21.638a.5.5,0,0,1-.578-.81l2.055-1.787-1.477.853a.5.5,0,0,1-.636-.75l1.079-1.313-.443.255a.5.5,0,0,1-.727-.58l.232-.752a.484.484,0,0,1-.187-.186.5.5,0,0,1,.182-.682l.5-.29a.5.5,0,0,1,.728.58l-.126.407,1.723-.994a.5.5,0,0,1,.637.75L16.166,17.65l3.587-2.071a.5.5,0,0,1,.578.81l-2.057,1.788L22.79,15.57a.5.5,0,0,1,.558.826L21.3,18l2.424-1.4a.5.5,0,0,1,.57.816l-1.481,1.235.917-.529a.5.5,0,0,1,.6.795l-.57.544a.494.494,0,0,1,.531.041.5.5,0,0,1,.188.517l-.287,1.2a.5.5,0,0,1,.244.212.5.5,0,0,1-.184.683l-.5.289a.5.5,0,0,1-.736-.549l.223-.942-2.6,1.5a.5.5,0,0,1-.6-.8l.568-.541-2.329,1.344a.5.5,0,0,1-.57-.817l1.48-1.235-3.567,2.06A.491.491,0,0,1,15.375,22.5Z" fill="#c0dbf0" data-original="#c0dbf0"></path><path xmlns="http://www.w3.org/2000/svg" d="M42.608,41.483a.5.5,0,0,1-.34-.866l2.873-2.671-5.892,3.4a.5.5,0,0,1-.549-.833L41.127,38.7l-1.848,1.067a.5.5,0,0,1-.54-.84l1.233-.877a.5.5,0,0,1-.253-.886L42.6,34.849l-.891.513a.5.5,0,0,1-.588-.8L44.247,31.7,42.27,32.844a.5.5,0,0,1-.593-.8L44.3,29.574,42.28,30.739a.5.5,0,0,1-.617-.772l.8-.865-.186.106a.5.5,0,0,1-.73-.571l.252-.874a.484.484,0,0,1-.2-.2.5.5,0,0,1,.182-.682l.5-.291a.5.5,0,0,1,.731.571l-.161.557,1.977-1.141a.5.5,0,0,1,.617.772l-.8.865,2.859-1.651a.5.5,0,0,1,.593.8l-2.621,2.473,2.242-1.294a.5.5,0,0,1,.588.8L45.183,32.2l2.537-1.465a.5.5,0,0,1,.563.823L45.4,33.879l2.369-1.367a.5.5,0,0,1,.54.84l-.37.262.035-.019a.5.5,0,0,1,.548.833l-2.428,1.814,2.373-1.37a.5.5,0,0,1,.591.8l-2.873,2.67L49.371,36.5a.5.5,0,0,1,.612.777l-1.456,1.528,1.62-.936a.5.5,0,0,1,.642.743l-.486.614.462-.267a.5.5,0,0,1,.725.588l-.191.586a.493.493,0,0,1,.264.22.5.5,0,0,1-.182.683l-.632.365a.5.5,0,0,1-.726-.588l.111-.336-1.608.928a.5.5,0,0,1-.641-.743l.486-.613-2.356,1.36a.5.5,0,0,1-.613-.777l1.456-1.528-4,2.31A.489.489,0,0,1,42.608,41.483Z" fill="#c0dbf0" data-original="#c0dbf0"></path><path xmlns="http://www.w3.org/2000/svg" d="M18.189,17.47a.5.5,0,0,1-.322-.882l1.547-1.306L15.742,17.4a.5.5,0,0,1-.615-.774l2.323-2.486L12.838,16.8a.5.5,0,0,1-.572-.816l.819-.688-.779.449a.5.5,0,0,1-.682-.685l.967-1.658-.026.015a.5.5,0,0,1-.5-.865l1.657-.956a.5.5,0,0,1,.681.684l-.966,1.657L17.5,11.6a.5.5,0,0,1,.572.815l-.82.69,2.607-1.5a.5.5,0,0,1,.616.774l-2.324,2.486L23.792,11.6a.5.5,0,0,1,.572.814l-1.549,1.307,2.446-1.411a.5.5,0,0,1,.6.79l-1.481,1.448,1.341-.775a.5.5,0,0,1,.659.72l-.715,1.018a.515.515,0,0,1,.452.25.5.5,0,0,1-.182.682l-1.655.956a.5.5,0,0,1-.659-.719l.638-.909L21.435,17.4a.5.5,0,0,1-.6-.79l1.482-1.448L18.439,17.4A.493.493,0,0,1,18.189,17.47Z" fill="#b1cddd" data-original="#b1cddd"></path><path xmlns="http://www.w3.org/2000/svg" d="M45.109,28.47a.5.5,0,0,1-.319-.885l.132-.109-1.607.926a.5.5,0,0,1-.589-.8l2.031-1.885-3.8,2.193a.5.5,0,0,1-.624-.764L42.235,25,40.28,26.128a.5.5,0,0,1-.654-.728l.666-.913a.5.5,0,0,1-.227-.931l1.657-.956a.5.5,0,0,1,.654.727l-.55.754L44.4,22.6a.5.5,0,0,1,.624.763l-1.9,2.15L48.1,22.632a.5.5,0,0,1,.59.8l-2.032,1.885,2.844-1.641a.5.5,0,0,1,.569.817l-.223.186a.508.508,0,0,1,.486.147.5.5,0,0,1,.043.623l-.736,1.065a.515.515,0,0,1,.471.249.5.5,0,0,1-.182.682l-1.655.956a.5.5,0,0,1-.661-.716l.674-.974L45.359,28.4A.493.493,0,0,1,45.109,28.47Z" fill="#b1cddd" data-original="#b1cddd"></path><path xmlns="http://www.w3.org/2000/svg" d="M17.729,50.454a.5.5,0,0,1-.342-.864L20.5,46.658l-4.828,2.787a.5.5,0,0,1-.54-.84l.057-.041-.2.117a.5.5,0,0,1-.54-.84l.717-.511-.664.383a.5.5,0,0,1-.564-.821l4.774-3.866-4.43,2.558a.5.5,0,0,1-.538-.841l.966-.682-.428.247a.5.5,0,0,1-.563-.823l4.89-3.935-4.327,2.5a.5.5,0,0,1-.538-.841l.973-.686-.435.25a.5.5,0,0,1-.545-.836l2.409-1.759L14.28,39.251a.5.5,0,0,1-.555-.828L17.773,35.3,14.28,37.312a.5.5,0,0,1-.535-.844l.368-.255a.5.5,0,0,1-.388-.889l4.062-3.14L14.28,34.208a.5.5,0,0,1-.535-.844l.369-.256a.5.5,0,0,1-.378-.9l2.314-1.686-1.77,1.022a.5.5,0,0,1-.554-.829l3.257-2.507-2.7,1.56a.5.5,0,0,1-.581-.807l2.285-2.015-1.7.984a.5.5,0,0,1-.595-.794l.627-.6-.032.019a.5.5,0,0,1-.736-.549l.294-1.229a.5.5,0,0,1-.058-.894l.5-.29a.5.5,0,0,1,.737.549l-.232.965,2.641-1.524a.5.5,0,0,1,.595.794l-.628.6,2.426-1.4a.5.5,0,0,1,.581.808L18.115,26.4l4.909-2.834a.5.5,0,0,1,.555.829l-3.255,2.5,3.4-1.96a.5.5,0,0,1,.544.837l-2.32,1.69,1.776-1.025a.5.5,0,0,1,.535.844l-.368.255a.5.5,0,0,1,.5.215.5.5,0,0,1-.11.674l-4.062,3.14,3.507-2.024a.5.5,0,0,1,.535.844l-.369.255a.5.5,0,0,1,.389.889l-4.048,3.127,3.493-2.016a.5.5,0,0,1,.545.836l-2.4,1.755,1.859-1.072a.5.5,0,0,1,.538.841l-.98.692.442-.255a.5.5,0,0,1,.563.823L19.393,40.2l4.327-2.5a.5.5,0,0,1,.538.841l-.966.683.428-.248a.5.5,0,0,1,.564.822l-4.772,3.863,4.208-2.43a.5.5,0,0,1,.54.84l-.716.511.176-.1a.5.5,0,0,1,.54.84l-.364.259a.516.516,0,0,1,.475.2.5.5,0,0,1-.059.663L21.2,47.373l2.5-1.442a.5.5,0,0,1,.617.771l-1.231,1.333a.5.5,0,0,1,.217.932l-2.376,1.372a.5.5,0,0,1-.617-.772l1.038-1.124-3.368,1.944A.489.489,0,0,1,17.729,50.454Z" fill="#2963bf" data-original="#2963bf"></path><path xmlns="http://www.w3.org/2000/svg" d="M8.843,25.5a.5.5,0,0,1-.392-.81l1.516-1.915L7.28,24.323a.5.5,0,0,1-.623-.765l.514-.578a.5.5,0,0,1-.614-.64l.2-.6a.5.5,0,0,1,.019-.855l.5-.288A.5.5,0,0,1,8,21.191l-.072.212,1.4-.8a.5.5,0,0,1,.623.765l-.484.543L11.735,20.6a.5.5,0,0,1,.642.743l-1.516,1.914,4.6-2.657a.5.5,0,0,1,.639.746l-1.51,1.881L19.145,20.6a.5.5,0,0,1,.626.761L18.3,23.042,22.531,20.6a.5.5,0,0,1,.57.817l-.219.182,1.732-1a.5.5,0,0,1,.615.775l-1.386,1.471,2.807-1.62a.5.5,0,0,1,.651.731l-1.023,1.372.442-.255a.5.5,0,0,1,.5.866l-2.544,1.468a.5.5,0,0,1-.651-.731L25.048,23.3,21.4,25.41a.5.5,0,0,1-.614-.775l1.386-1.472-3.9,2.252a.5.5,0,0,1-.57-.817l.221-.183-1.74,1a.5.5,0,0,1-.626-.762l1.473-1.682-4.243,2.449a.5.5,0,0,1-.639-.746l1.51-1.881L9.093,25.43A.489.489,0,0,1,8.843,25.5Z" fill="#9fbbce" data-original="#9fbbce"></path><path xmlns="http://www.w3.org/2000/svg" d="M35.949,59.47a.5.5,0,0,1-.28-.914l7.35-4.979-9.35,5.4a.5.5,0,0,1-.519-.855l1.413-.9L32.688,58.3a.5.5,0,0,1-.517-.856l.316-.2-.476.274a.5.5,0,0,1-.524-.851l6.057-3.953-6.11,3.527a.5.5,0,0,1-.525-.85l6.668-4.379-6.268,3.619a.5.5,0,0,1-.519-.855l1.2-.762-.227.13a.5.5,0,0,1-.522-.852l3.287-2.131-1.622.937a.5.5,0,0,1-.525-.851L34.4,48.924,34,49.15a.5.5,0,0,1-.546-.836l4.495-3.3-2.4,1.387a.5.5,0,0,1-.591-.8l3.164-2.948-.689.4a.5.5,0,0,1-.65-.735l1.2-1.586-.015-.026a.5.5,0,0,1,.182-.683l.742-.427a.5.5,0,0,1,.649.734l-.473.624,2.36-1.361a.5.5,0,0,1,.591.8l-3.163,2.948,6.5-3.752a.5.5,0,0,1,.545.836l-4.495,3.3,7.169-4.139a.5.5,0,0,1,.526.851L47.084,41.76l3.773-2.178a.5.5,0,0,1,.522.853l-3.287,2.13,3.54-2.044a.5.5,0,0,1,.518.855l-1.209.77,1.211-.7a.5.5,0,0,1,.525.851L46,46.68l6.865-3.963a.5.5,0,0,1,.524.851l-6.056,3.953,6.216-3.588a.5.5,0,0,1,.517.855l-.319.2.3-.172a.5.5,0,0,1,.518.855l-1.4.89,1.4-.811a.5.5,0,0,1,.531.847l-7.356,4.983,7.627-4.4a.5.5,0,0,1,.537.842l-6.92,4.855L56.229,48.7a.5.5,0,0,1,.546.836l-6.042,4.432,6.386-3.687a.5.5,0,0,1,.535.844l-2,1.387,2.052-1.185a.5.5,0,0,1,.572.815l-4.243,3.578L58.562,53.1a.5.5,0,0,1,.561.824l-1.51,1.2,1.093-.631a.5.5,0,0,1,.626.763l-1.52,1.729a.5.5,0,0,1,.382.915l-2.475,1.429a.5.5,0,0,1-.626-.763l1.484-1.689L52.2,59.4a.5.5,0,0,1-.56-.824l1.509-1.2-3.5,2.02a.5.5,0,0,1-.572-.814l4.244-3.578L45.714,59.4a.5.5,0,0,1-.535-.843l2-1.387L43.314,59.4a.5.5,0,0,1-.545-.836l6.043-4.432L39.686,59.4a.5.5,0,0,1-.538-.841l6.92-4.856L36.2,59.4A.5.5,0,0,1,35.949,59.47Z" fill="#e0bd26" data-original="#e0bd26"></path><path xmlns="http://www.w3.org/2000/svg" d="M41.8,48.055a.5.5,0,0,1-.357-.851l.157-.158-.176.1a.5.5,0,0,1-.665-.711l.641-.953a.5.5,0,0,1-.33-.926l1.658-.956a.5.5,0,0,1,.615.091.5.5,0,0,1,.05.621l-.6.89,1.495-.863a.5.5,0,0,1,.607.783l-.158.16a.5.5,0,0,1,.465.884l-3.153,1.821A.49.49,0,0,1,41.8,48.055Z" fill="#f4d244" data-original="#f4d244"></path><path xmlns="http://www.w3.org/2000/svg" d="M49.03,55.421a.5.5,0,0,1-.409-.788l1.282-1.82-2.3,1.329a.5.5,0,0,1-.586-.8l.168-.152a.5.5,0,0,1-.517-.806l.665-.78a.5.5,0,0,1-.123-.916l1.858-1.073a.5.5,0,0,1,.63.757l-.382.448,1.343-.775a.5.5,0,0,1,.586.8l-.117.106.243-.139a.494.494,0,0,1,.619.095.5.5,0,0,1,.04.625l-1.282,1.821.839-.485a.5.5,0,1,1,.5.865L49.28,55.354A.5.5,0,0,1,49.03,55.421Z" fill="#f4d244" data-original="#f4d244"></path><path xmlns="http://www.w3.org/2000/svg" d="M4.7,57.487a.5.5,0,0,1-.388-.814l.6-.739-1.629.939a.5.5,0,0,1-.591-.8l.76-.71-.169.1a.5.5,0,0,1-.614-.775L4.3,52.95l-1.022.589a.5.5,0,0,1-.627-.761l2-2.3-1.372.792a.5.5,0,0,1-.593-.8l.818-.768-.225.129a.5.5,0,0,1-.595-.794l.964-.924-.369.213a.5.5,0,0,1-.6-.785l1.316-1.325-.712.41a.5.5,0,0,1-.613-.777l1.6-1.7-.991.571a.5.5,0,0,1-.591-.8l.717-.666-.126.072a.5.5,0,0,1-.592-.8l.776-.726-.184.106a.5.5,0,0,1-.61-.779l1.49-1.546-.88.508a.5.5,0,0,1-.579-.81l.33-.287h0a.5.5,0,0,1-.332-.874l.4-.351a.507.507,0,0,1-.45-.179.5.5,0,0,1,.011-.648l1.922-2.176-1.3.748a.5.5,0,0,1-.609-.78L4.15,33.212l-.87.5a.5.5,0,0,1-.593-.8l.835-.789-.242.14a.5.5,0,0,1-.619-.771l1.748-1.907-1.129.651a.5.5,0,0,1-.628-.761L4.637,27.2,3.28,27.98a.5.5,0,0,1-.74-.531l.333-1.656a.5.5,0,0,1-.093-.908l.507-.292a.5.5,0,0,1,.74.532l-.289,1.437L6.721,24.84a.5.5,0,0,1,.628.761L5.364,27.885,6.723,27.1a.5.5,0,0,1,.618.77L5.594,29.778l1.131-.652a.5.5,0,0,1,.592.8l-.837.79.246-.141a.5.5,0,0,1,.609.781L5.857,32.883l.871-.5a.5.5,0,0,1,.625.764L5.431,35.32l1.3-.749a.5.5,0,0,1,.583.807l-.4.35a.5.5,0,0,1,.393.873l-.331.287h0a.5.5,0,0,1,.361.846L5.854,39.278l.879-.507a.5.5,0,0,1,.592.8l-.777.728.186-.108a.5.5,0,0,1,.591.8l-.718.667.129-.074a.5.5,0,0,1,.614.776l-1.6,1.7.99-.572a.5.5,0,0,1,.6.786L6.023,45.594l.716-.413a.5.5,0,0,1,.6.794l-.963.921.369-.212a.5.5,0,0,1,.593.8l-.818.77.226-.131a.5.5,0,0,1,.627.761l-2,2.3,1.374-.793a.5.5,0,0,1,.614.775L5.723,52.9l1.023-.589a.5.5,0,0,1,.591.8l-.759.709.169-.1a.5.5,0,0,1,.639.747l-.6.743a.5.5,0,0,1,.465.884l-2.3,1.328A.489.489,0,0,1,4.7,57.487Z" fill="#9fbbce" data-original="#9fbbce"></path><path xmlns="http://www.w3.org/2000/svg" d="M5.549,20.481a.5.5,0,0,1-.427-.76l.421-.689L3.28,20.339a.5.5,0,0,1-.583-.806l.436-.388a.5.5,0,0,1-.467-.832l1.643-1.749-1.029.593a.5.5,0,0,1-.6-.786l1.285-1.287-.682.393a.5.5,0,0,1-.583-.806l.425-.379a.5.5,0,0,1-.443-.847l1.178-1.163-.577.333a.5.5,0,0,1-.592-.8l.756-.7-.164.094a.5.5,0,0,1-.612-.777L4.222,8.8l-.942.543A.5.5,0,0,1,2.626,9.2a.5.5,0,0,1,.07-.666l.46-.413A.5.5,0,0,1,2.665,7.3L4.318,5.527l-1.038.6a.5.5,0,0,1-.618-.771L4.279,3.592l-1,.576a.5.5,0,0,1-.706-.638l.6-1.339a.5.5,0,0,1-.342-.923L3.994.6a.5.5,0,0,1,.706.637L4.12,2.529,6.6,1.1a.5.5,0,0,1,.618.77L5.6,3.634l1.126-.65a.5.5,0,0,1,.615.774L5.686,5.528l1.04-.6a.5.5,0,0,1,.584.8l-.459.414a.494.494,0,0,1,.519.173.5.5,0,0,1-.03.655L5.787,8.6,6.73,8.06a.5.5,0,0,1,.592.8l-.757.707.168-.1a.5.5,0,0,1,.6.788L6.157,11.418l.579-.334a.5.5,0,0,1,.583.806l-.423.378a.5.5,0,0,1,.446.844L6.056,14.4l.685-.395a.5.5,0,0,1,.614.775L5.713,16.529l1.031-.594a.5.5,0,0,1,.583.8l-.432.387a.5.5,0,0,1,.528.75l-.471.769a.5.5,0,0,1,.3.93l-1.45.838A.489.489,0,0,1,5.549,20.481Z" fill="#9fbbce" data-original="#9fbbce"></path><path xmlns="http://www.w3.org/2000/svg" d="M5.039,27.47a.5.5,0,0,1-.376-.829L6.605,24.42,2.092,27.026a.5.5,0,0,1-.553-.83l.88-.67L1.4,26.111A.5.5,0,0,1,.832,25.3l2.931-2.478L1.28,24.253a.5.5,0,0,1-.567-.818l1.145-.943-.578.333A.5.5,0,0,1,.6,22.143L1.6,20.4l-.039.023a.5.5,0,0,1-.5-.865L2.722,18.6a.5.5,0,0,1,.682.682L2.4,21.026,6.6,18.6a.5.5,0,0,1,.568.818l-1.144.941,2.089-1.206a.5.5,0,0,1,.572.815L5.756,22.444l2.964-1.71a.5.5,0,0,1,.552.83l-.872.665.32-.184a.5.5,0,0,1,.626.762L7.4,25.027l1.317-.759a.5.5,0,0,1,.5.865L5.289,27.4A.49.49,0,0,1,5.039,27.47Z" fill="#7b93a0" data-original="#7b93a0"></path><path xmlns="http://www.w3.org/2000/svg" d="M8.956,59.47a.5.5,0,0,1-.344-.864L9.7,57.577,6.535,59.4a.5.5,0,0,1-.6-.788L7.161,57.4l-3.472,2a.5.5,0,0,1-.636-.75l1.49-1.815L1.32,58.7a.5.5,0,0,1-.591-.8l.376-.351A.5.5,0,0,1,.6,56.8l.366-.61a.5.5,0,0,1-.135-.919l1.161-.67a.5.5,0,0,1,.679.689l-.221.368L4.284,54.6a.5.5,0,0,1,.591.8l-.267.25L6.424,54.6a.5.5,0,0,1,.637.75L5.57,57.163,10.015,54.6a.5.5,0,0,1,.6.788L9.389,56.6l3.471-2a.5.5,0,0,1,.594.8l-1.085,1.028L15.53,54.6a.5.5,0,0,1,.6.791l-1.173,1.14L18.3,54.6a.5.5,0,0,1,.656.724l-1.476,2.055L22.3,54.6a.5.5,0,0,1,.6.794l-1.112,1.06L25,54.6a.5.5,0,0,1,.634.754l-1.485,1.773L26.72,55.64a.5.5,0,0,1,.7.649l-.692,1.44a.5.5,0,0,1,.472.882l-1.373.792a.5.5,0,0,1-.7-.65l.691-1.439L22.2,59.4a.5.5,0,0,1-.634-.754l1.485-1.773L18.673,59.4a.5.5,0,0,1-.6-.794l1.112-1.061L15.974,59.4a.5.5,0,0,1-.657-.724l1.476-2.055L11.978,59.4a.5.5,0,0,1-.6-.791l1.173-1.139L9.206,59.4A.49.49,0,0,1,8.956,59.47Z" fill="#7b93a0" data-original="#7b93a0"></path><path xmlns="http://www.w3.org/2000/svg" d="M.924,54.966c-1.264,1.321-.442,3.983.98,4.618,1.682.752,5.379.015,7.187.015H21.824c1.233,0,4.095.556,5.174-.449,1.3-1.224.618-4.187-.961-4.749H7.511v-27a2.315,2.315,0,0,0,1.957-1.939h3.993c0,3.916,0,7.844,0,11.751v8.96c.419,6.241,10.67,5.733,11.078-.34V25.616a2.637,2.637,0,1,0,.046-5.2V17.4c2.659-1.061,2.668-5.552-.559-5.989a15.606,15.606,0,0,0-2.561-.086c-1.109-7.767,6.187-5.4,11.163-5.74,2.263,0,6.632-.773,8.576.8,2.173,1.762,1.331,6.724,1.331,9.075v7.062c-3.385-.271-4.635,5.25-1,5.862,2.5,9.014-19.811,29.384-6.265,31.2a95.623,95.623,0,0,0,18.981,0c14.283-1.872-7.968-21.876-5.773-31.237,3.241-1.019,2.769-6.247-1.007-5.857C47.535,14.053,49.983.662,38.016.413,28.3.142,16.228-2.314,16.547,11.336a13.759,13.759,0,0,0-2.481.077c-3.167.462-3.494,5.2-.56,6.065v3.063H9.495a2.446,2.446,0,0,0-2.007-1.905V6.982C7.488,4.414,8.594.4,5.063.438,1.513.475,2.512,4.2,2.512,6.8V18.6c-2.25.267-2.27,2.761-2.1,4.529-.174,1.686.02,3.841,2.037,4.228V54.336A2.5,2.5,0,0,0,.924,54.966Zm22.537-8.8c-.336,4.993-9.074,4.264-8.922-.684H17.92c.626,0,.943-.972.16-.972H14.539V41.539h2.289c.56,0,1.03-1.078.344-1.078H14.539V37.452H17.9c.674,0,.981-.9.192-.9H14.539v-3.1H17c.747,0,.747-.9,0-.9h-2.46V29.583H17.9c.574,0,.836-1.166.2-1.166h-3.56V25.459c3.015.035,5.885-.108,8.922.136ZM51.006,40.6c6.726,11.622,14.343,20-6.414,17.815-20.1,2.211-11.83-7.311-5.678-17.815Zm-2.224-4.11c.485.982,1.009,1.949,1.545,2.912H39.6A17,17,0,0,0,42.47,28.488c1.728-.039,3.353-.046,5.063-.039C47.526,31.386,47.441,33.774,48.782,36.489ZM47.168,23.414c2.188-.382,3.265,3.3,1.131,4.056a.427.427,0,0,0-.416.081c-1.833-.008-3.647,0-5.481.025a.3.3,0,0,0-.423-.084,2.109,2.109,0,0,1,.6-4.1c.113.27.441.178.666-.058,1.213-.045,2.33.157,3.365.1C46.722,23.621,46.966,23.581,47.168,23.414ZM22.524,1.971C42.953.528,48.375-.587,46.543,22.506c-1.061.074-2.026.032-3.078.008V13.765c0-2.384.6-5.78-1.046-7.777-1.84-2.226-5.4-1.574-7.945-1.574-5.895.358-15.174-2.308-13.956,6.949a28.456,28.456,0,0,1-3.049.012C17.524,7.543,18.307,3.373,22.524,1.971Zm-8.59,10.616a7.911,7.911,0,0,1,2.64-.2c.1.241.362.205.579.033,2.576.35,4.837-.123,7.293.249,1.413.688,1.689,3.407-.38,3.741H17.693a20.791,20.791,0,0,1-4.139-.085A2.013,2.013,0,0,1,13.934,12.587ZM23.415,17.6v2.836c-3.016.21-5.918.074-8.921.11v-2.9A77.215,77.215,0,0,0,23.415,17.6ZM13.6,21.459c.1.114.279.1.454,0h9.863c1.472,0,2.538-.39,2.5,1.527-.034,1.626-.789,1.582-2,1.56a.463.463,0,0,0-.422,0H14.4a.471.471,0,0,0-.417,0H9.594c.059-1.054-.019-2.073-.006-3.082ZM4.937,1.562c1.8.013,1.575,1,1.575,2.417V18.544c-.909.007-1.928-.111-3.024-.06V4.078C3.488,2.648,3.09,1.549,4.937,1.562ZM1.59,25.025c-.135-1.438-.535-5.006,1.207-5.5a.512.512,0,0,0,.378-.064,34.182,34.182,0,0,1,3.551.032A.406.406,0,0,0,7,19.527,1.5,1.5,0,0,1,8.41,20.991c.138,1.528.524,4.881-1.228,5.477a14.933,14.933,0,0,1-3.788.091C2.511,26.4,1.666,26.017,1.59,25.025Zm4.9,2.45V54.4c-.973.029-1.763-.076-2.936-.116V27.541A24.477,24.477,0,0,0,6.489,27.475ZM4.662,55.6H25.9c1.406.642.478,2.387-.336,2.8-6.289.075-12.677-.051-19,0-1.188,0-4.006.521-4.793-.446C-.185,55.554,3.437,55.6,4.662,55.6Z" fill="#262626" data-original="#262626" class=""></path><path xmlns="http://www.w3.org/2000/svg" d="M42.968,48.448A2.6,2.6,0,0,0,45.6,45.936c-.172-3.186-5.24-3.048-5.194.128A2.508,2.508,0,0,0,42.968,48.448Zm0-3.988c1.883.011,1.851,3.236-.074,3.08C41.184,47.345,41.2,44.5,42.968,44.46Z" fill="#262626" data-original="#262626" class=""></path><path xmlns="http://www.w3.org/2000/svg" d="M49.6,55.524c3.9-.309,3.77-6.441-.333-6.038C45.535,49.94,45.639,55.75,49.6,55.524Zm.2-4.927a2.168,2.168,0,0,1,1.676,2.046c-.177,2.6-4.01,2.147-3.946-.317A1.823,1.823,0,0,1,49.8,50.6Z" fill="#262626" data-original="#262626" class=""></path></g></svg>