<svg xmlns="http://www.w3.org/2000/svg" version="1.1" xmlns:xlink="http://www.w3.org/1999/xlink" xmlns:svgjs="http://svgjs.com/svgjs" width="512" height="512" x="0" y="0" viewBox="0 0 506.68901 506" style="enable-background:new 0 0 512 512" xml:space="preserve" class=""><g><path xmlns="http://www.w3.org/2000/svg" d="m201.992188 384.429688c-1.863282-.003907-3.511719-1.21875-4.066407-3-.554687-1.777344.109375-3.714844 1.644531-4.777344l65.851563-45.515625-77.945313 44.996093c-2.003906 1.121094-4.535156.453126-5.726562-1.507812-1.195312-1.960938-.621094-4.515625 1.296875-5.777344l34.132813-21.855468-29.703126 17.136718c-1.984374 1.097656-4.484374.449219-5.6875-1.472656-1.199218-1.925781-.683593-4.457031 1.171876-5.757812l103.785156-69.734376-100.804688 58.179688c-2.007812 1.089844-4.511718.40625-5.6875-1.550781-1.175781-1.953125-.609375-4.488281 1.292969-5.753907l3.285156-2.054687c-2.011719 1.074219-4.515625.378906-5.679687-1.585937-1.164063-1.960938-.582032-4.492188 1.328125-5.746094l95.574219-62.734375-95.6875 55.269531c-1.992188 1.097656-4.5.4375-5.691407-1.503906-1.191406-1.941406-.652343-4.472656 1.230469-5.757813l95.792969-62.457031-96.980469 55.996094c-2.003906 1.121094-4.535156.453125-5.726562-1.507813-1.191407-1.960937-.617188-4.515625 1.296874-5.777343l78.796876-50.5-80.59375 46.53125c-2 1.15625-4.554688.515624-5.769532-1.445313-1.214844-1.964844-.648437-4.539063 1.277344-5.808594l117.164062-77.148437-122.957031 70.960937c-2.011719 1.109375-4.535156.425781-5.71875-1.542969-1.179687-1.96875-.589843-4.515624 1.332031-5.769531l12.246094-7.585937-13.824218 7.980468c-2.003907 1.136719-4.550782.480469-5.75-1.484374-1.203126-1.96875-.625-4.535157 1.304687-5.796876l106.316406-68.71875-111.878906 64.597657c-2.015625 1.226562-4.640625.585937-5.867187-1.429688-1.226563-2.015625-.585938-4.640625 1.429687-5.867187l94.828125-60.585938-99.589844 57.464844c-2.015625 1.132812-4.570312.457031-5.757812-1.527344-1.1875-1.988281-.574219-4.558594 1.378906-5.796875l28.484375-17.652343-29.371094 16.953124c-2.011719 1.109376-4.539062.425782-5.71875-1.542968-1.179687-1.96875-.589843-4.515625 1.332031-5.769532l44.160157-27.519531-45.023438 25.992188c-1.996093 1.117187-4.519531.457031-5.71875-1.496094-1.195312-1.953125-.636719-4.5 1.265625-5.773437l121.171875-78.816407-124.125 71.671875c-2.007812 1.230469-4.636719.597656-5.867187-1.410156-1.230469-2.011719-.597656-4.636719 1.414062-5.867188l108.289063-69.863281-108.972657 62.917969c-2.011718 1.105469-4.535156.425781-5.714843-1.542969-1.183594-1.96875-.59375-4.519531 1.328125-5.769531l36.609375-22.820312-35.4375 20.480468c-2.023438 1.210938-4.644531.554688-5.855469-1.46875-1.210938-2.019531-.554688-4.640625 1.46875-5.851562l28.21875-17.5625-25.394531 14.660156c-1.308594.785156-2.933594.816406-4.269531.078125-1.332032-.738281-2.171876-2.132813-2.199219-3.65625-.027344-1.523437.757812-2.949219 2.066406-3.734375l36.691406-22.972656-33.960937 19.625c-2.003906 1.121094-4.535156.457031-5.730469-1.507813-1.191406-1.960937-.617187-4.515625 1.300781-5.777343l70.570313-45.097657-67.457031 38.902344c-1.304688.789063-2.929688.820313-4.265626.082031-1.335937-.734375-2.175781-2.125-2.207031-3.648437-.027343-1.527344.757813-2.949219 2.0625-3.738281l35.148438-22.1875-29.960938 17.375c-1.992187 1.152343-4.539062.519531-5.757812-1.433594s-.667969-4.523438 1.242187-5.804688l100.003906-67.539062-92.929687 53.65625c-2.007813 1.234375-4.632813.609375-5.871094-1.398438-1.234375-2.007812-.605469-4.636718 1.402344-5.871094l53.195313-34.757812-44.371094 25.601562c-1.996094 1.113282-4.515625.460938-5.714844-1.480468-1.199219-1.945313-.65625-4.488282 1.234375-5.773438l41.523437-27.460937-29.972656 17.296875c-1.957031 1.125-4.449218.523437-5.6875-1.363282-1.238281-1.886718-.789062-4.414062 1.023438-5.761718l56.4375-41.683594-34.527344 19.933594c-1.960938 1.152344-4.480469.5625-5.726562-1.339844-1.246094-1.898438-.785157-4.445312 1.050781-5.785156l25.449219-18.875c-.453126-.339844-.828126-.765625-1.101563-1.257813-1.179687-2.035156-.484375-4.644531 1.550781-5.828125l41.199219-23.78125c1.960937-1.152344 4.480469-.5625 5.730469 1.339844 1.246094 1.898438.785156 4.445312-1.054688 5.785156l-6.960937 5.164063 35.703125-20.609375c1.957031-1.097656 4.429687-.488282 5.65625 1.386718 1.226562 1.878907.792968 4.386719-.996094 5.738282l-56.457031 41.695312 86.648437-49.980468c1.996094-1.15625 4.550782-.515626 5.765625 1.445312 1.214844 1.964844.648438 4.539062-1.277343 5.808594l-41.492188 27.390625 54.949219-31.726563c1.992187-1.097656 4.5-.4375 5.691406 1.503906 1.191406 1.941407.652344 4.476563-1.230469 5.757813l-53.179687 34.78125 65.347656-37.722656c2-1.25 4.632813-.644531 5.878906 1.355469 1.25 1.996093.644531 4.628906-1.355469 5.878906l-100.011718 67.507812 115.507812-66.6875c2.019532-1.21875 4.640625-.570312 5.859375 1.445313s.570313 4.640625-1.445312 5.859375l-35.191407 22.1875 40.761719-23.546875c2.015625-1.222657 4.640625-.578125 5.863281 1.433593 1.222657 2.015626.582032 4.640626-1.433593 5.863282l-70.511719 45.058594 77.890625-44.980469c2.015625-1.164063 4.59375-.496094 5.789063 1.496093 1.199218 1.996094.578124 4.582032-1.390626 5.816407l-36.875 23.046875 40.628907-23.449219c2.007812-1.105469 4.535156-.425781 5.714843 1.542969 1.183594 1.96875.59375 4.519531-1.328124 5.769531l-28.1875 17.5625 31.648437-18.269531c2.035156-1.222656 4.675781-.566406 5.898437 1.46875 1.222657 2.03125.566407 4.671875-1.46875 5.894531l-36.605468 22.742187 39.167968-22.59375c2.007813-1.230468 4.636719-.597656 5.863282 1.410157 1.230468 2.011719.601562 4.636719-1.410156 5.867187l-108.296876 69.84375 113.636719-65.613281c2.003907-1.164063 4.570313-.515625 5.78125 1.457031 1.214844 1.976563.628907 4.554688-1.316406 5.816406l-121.171875 78.8125 125.4375-72.414062c2.015625-1.160156 4.589844-.496094 5.789062 1.5 1.199219 1.992188.578126 4.578125-1.394531 5.8125l-44.253906 27.570312 45.167969-26.074218c2.023437-1.214844 4.644531-.554688 5.855468 1.464844 1.210938 2.023437.550782 4.644531-1.46875 5.855468l-28.484374 17.664063 27.859374-16.09375c2.015626-1.226563 4.644532-.585938 5.867188 1.429687 1.226562 2.015625.585938 4.640625-1.429688 5.867188l-94.785156 60.609375 95.382813-55.082031c2.011719-1.230469 4.636719-.597657 5.867187 1.414062 1.230469 2.007812.597656 4.636719-1.410156 5.867188l-106.335938 68.71875 105.625-60.980469c2.015626-1.136719 4.570313-.457031 5.757813 1.527343 1.1875 1.984376.574219 4.554688-1.378906 5.792969l-12.296875 7.613281 9.8125-5.667968c2.007812-1.238282 4.636718-.617188 5.875 1.386718 1.242187 2.007813.621094 4.636719-1.386719 5.875l-117.152344 77.152344 114.039063-65.84375c2.007812-1.175781 4.589844-.527344 5.800781 1.460938 1.210937 1.988281.605469 4.582031-1.363281 5.824218l-78.769532 50.492188 74.390626-42.945312c2.007812-1.234376 4.636718-.609376 5.871093 1.398437s.609375 4.636719-1.398437 5.871094l-95.855469 62.480469 88.542969-51.125c2.003906-1.199219 4.597656-.566407 5.824218 1.421874 1.222657 1.988282.625 4.589844-1.34375 5.839844l-95.574218 62.738282 85.519531-49.414063c2.015625-1.164063 4.589844-.496094 5.789063 1.496094 1.199218 1.996093.578124 4.582031-1.394532 5.816406l-7.746094 4.835937c1.992188-.4375 4.015626.597657 4.828126 2.46875.8125 1.871094.1875 4.054688-1.492188 5.210938l-103.808594 69.769531 81.722656-47.179687c2.011719-1.179688 4.59375-.527344 5.804688 1.460937s.601562 4.582031-1.367188 5.824219l-34.105468 21.839844 8.226562-4.738282c1.976563-1.101562 4.46875-.472656 5.683594 1.4375 1.210938 1.914063.722656 4.4375-1.121094 5.757813l-65.867187 45.558594 41.128906-23.757813c1.996094-1.132812 4.527344-.488281 5.734375 1.460938 1.210938 1.945312.664062 4.503906-1.234375 5.785156l-8.40625 5.605469c1.933594-.25 3.792969.839843 4.515625 2.652343.722656 1.808594.125 3.878907-1.453125 5.027344l-22.417969 16.445313 12.945313-7.476563c1.871093-1.125 4.289062-.660156 5.605469 1.082032 1.316406 1.738281 1.105468 4.191406-.484376 5.6875l-23.160156 22.296874 16.058594-9.300781c1.839844-1.0625 4.183594-.613281 5.492188 1.058594 1.3125 1.671875 1.195312 4.054687-.277344 5.585937l-5.015625 5.25c1.507812-.65625 3.261719-.386718 4.503906.695313 1.242187 1.078125 1.75 2.777344 1.304687 4.363281l-2.03125 7.238282c.742188.386718 1.351563.980468 1.757813 1.707031 1.171875 2.042969.464844 4.644531-1.578125 5.820312l-4.265625 2.4375c-1.503906.863281-3.375.730469-4.746094-.332031-1.363281-1.0625-1.949219-2.847656-1.484375-4.515625l1.273438-4.546875-16.273438 9.386719c-1.835937 1.0625-4.175781.613281-5.488281-1.054688s-1.199219-4.046875.265625-5.582031l4.949219-5.171875-20.445313 11.792969c-1.871094 1.125-4.285156.65625-5.601562-1.082032-1.320313-1.738281-1.109375-4.191406.480468-5.6875l23.1875-22.246093-50.347656 29.074219c-1.960937 1.132812-4.46875.535156-5.707031-1.359376-1.238281-1.898437-.777344-4.433593 1.046875-5.773437l22.417969-16.425781-40.960938 23.660156c-1.992187 1.132812-4.523437.492188-5.734375-1.457031-1.210937-1.949219-.664062-4.503907 1.238282-5.785157l4.214843-2.808593-17.554687 10.128906c-.667969.375-1.425782.5625-2.191406.539063zm0 0" fill="#ffd67b" data-original="#ffd67b"></path><path xmlns="http://www.w3.org/2000/svg" d="m256.160156 503.347656c-1.808594 0-3.421875-1.140625-4.023437-2.851562-.601563-1.707032-.058594-3.609375 1.355469-4.742188l11.878906-9.582031-25.671875 14.839844c-1.910157 1.089843-4.339844.546875-5.609375-1.253907-1.265625-1.804687-.949219-4.273437.730468-5.703124l34.621094-29.011719-47.351562 27.304687c-1.917969 1.105469-4.363282.558594-5.628906-1.257812-1.265626-1.8125-.933594-4.292969.761718-5.710938l30.210938-25.148437-37.085938 21.410156c-1.949218 1.109375-4.425781.519531-5.667968-1.347656-1.238282-1.867188-.820313-4.378907.957031-5.746094l6.824219-5.160156-7.992188 4.617187c-1.90625 1.09375-4.332031.5625-5.605469-1.226562-1.273437-1.789063-.980469-4.253906.679688-5.695313l10.5625-9.097656-10.074219 5.8125c-1.847656 1.050781-4.1875.585937-5.488281-1.097656-1.300781-1.679688-1.167969-4.0625.316406-5.585938l5.972656-6.109375-3.558593 2.050782c-1.699219.957031-3.832032.640624-5.179688-.765626-1.347656-1.410156-1.570312-3.554687-.539062-5.210937l3.558593-5.519531c-1.59375-.527344-2.730469-1.945313-2.902343-3.621094-.167969-1.671875.660156-3.289062 2.117187-4.128906l10.105469-5.828125c1.699218-.957031 3.828125-.640625 5.179687.765625 1.347657 1.410156 1.570313 3.554687.535157 5.210937l-1.859376 2.890625 15.378907-8.824218c1.847656-1.0625 4.195312-.601563 5.503906 1.082031 1.304687 1.6875 1.167969 4.078125-.324219 5.601562l-6.015625 6.125 22.183594-12.796875c1.90625-1.097656 4.332031-.566406 5.605469 1.222656 1.273437 1.792969.976562 4.253907-.679688 5.695313l-10.496094 9.011719 27.734376-16.007813c1.949218-1.109375 4.421874-.519531 5.664062 1.347657 1.238281 1.867187.824219 4.375-.953125 5.742187l-6.828125 5.121094 21.257812-12.261719c1.914063-1.097656 4.351563-.554688 5.617188 1.253906s.941406 4.285156-.746094 5.707032l-30.15625 25.183593 46.539063-26.90625c1.917969-1.097656 4.351562-.554687 5.617187 1.253907 1.265625 1.8125.945313 4.285156-.742187 5.710937l-34.628907 29.011719 30.863282-17.816406c1.929687-1.113282 4.386718-.554688 5.648437 1.28125 1.257813 1.835937.894531 4.332031-.835937 5.730468l-11.988282 9.667969c2.074219-.921875 4.507813-.058594 5.539063 1.964844 1.027344 2.023437.292969 4.5-1.671875 5.632812l-47.078125 27.175781c-.648437.386719-1.382813.589844-2.136719.589844zm0 0" fill="#cad0d7" data-original="#cad0d7"></path><path xmlns="http://www.w3.org/2000/svg" d="m279.894531 443.992188c-1.804687 0-3.414062-1.132813-4.023437-2.832032-.605469-1.699218-.078125-3.597656 1.316406-4.738281l.742188-.605469-13.167969 7.59375c-1.746094 1-3.953125.648438-5.296875-.851562s-1.457032-3.734375-.273438-5.359375l12.664063-17.253907-40.6875 23.4375c-1.738281.992188-3.933594.640626-5.273438-.84375-1.34375-1.484374-1.472656-3.699218-.316406-5.332031l12.613281-17.503906-40.988281 23.679687c-1.769531 1.023438-4.015625.644532-5.355469-.898437-1.335937-1.546875-1.390625-3.824219-.128906-5.429687l12.757812-16.214844-34.542968 19.984375c-1.910156 1.117187-4.355469.59375-5.636719-1.210938-1.28125-1.800781-.972656-4.285156.710937-5.71875l1.425782-1.21875-2.507813 1.441407c-1.679687.972656-3.804687.6875-5.167969-.6875-1.367187-1.378907-1.628906-3.503907-.644531-5.175782l6.058594-10.238281c-2.0625 1.042969-4.578125.253906-5.675781-1.777344-1.101563-2.03125-.386719-4.566406 1.613281-5.722656l13.886719-8.023437c1.679687-.972657 3.804687-.6875 5.167968.691406 1.367188 1.378906 1.632813 3.507812.640626 5.179687l-6.050782 10.242188 28.066406-16.214844c1.90625-1.078125 4.3125-.539063 5.582032 1.242187 1.265625 1.785157.976562 4.234376-.664063 5.679688l-1.390625 1.203125 14.078125-8.132813c1.769531-1.023437 4.015625-.644531 5.355469.902344 1.339844 1.542969 1.394531 3.820313.132812 5.429688l-12.800781 16.210937 39.03125-22.527343c1.738281-.988282 3.929688-.636719 5.273438.847656s1.472656 3.699218.316406 5.332031l-12.605469 17.5 41.0625-23.652344c1.746094-1.011719 3.964844-.660156 5.3125.839844s1.460938 3.742187.269532 5.371094l-12.671876 17.230469 40.652344-23.46875c1.921875-1.09375 4.359375-.539063 5.617188 1.28125 1.257812 1.816406.921875 4.292968-.777344 5.707031l-.726562.589843 10.605468-6.109374c1.816406-1.035157 4.113282-.605469 5.429688 1.015624 1.316406 1.621094 1.265625 3.957032-.121094 5.519532l-10.957031 12.203125 15.503906-8.949219c1.71875-.988281 3.886719-.667969 5.242187.777344 1.355469 1.445312 1.539063 3.628906.441407 5.28125l-5.117188 7.679687c1.703125-.238281 3.375.597657 4.214844 2.097657 1.179687 2.039062.484375 4.648437-1.554687 5.828124l-13.773438 7.953126c-1.714844.988281-3.886719.667968-5.238281-.777344-1.355469-1.445313-1.539063-3.632813-.445313-5.28125l4.695313-7.046875-22.972657 13.214843c-1.8125 1.039063-4.109374.609376-5.425781-1.011718-1.320312-1.625-1.269531-3.960938.117188-5.523438l10.949219-12.195312-32.425782 18.773437c-.652344.378907-1.390625.570313-2.140625.566407zm0 0" fill="#cad0d7" data-original="#cad0d7"></path><path xmlns="http://www.w3.org/2000/svg" d="m199.746094 409.855469c-1.785156 0-3.382813-1.117188-3.996094-2.796875-.617188-1.675782-.121094-3.5625 1.242188-4.71875l3.550781-3.019532-17.257813 9.929688c-1.871094 1.148438-4.304687.683594-5.628906-1.066406s-1.101562-4.21875.511719-5.707032l9.488281-9.046874-19.636719 11.375c-1.863281 1.089843-4.246093.617187-5.550781-1.105469-1.304688-1.71875-1.121094-4.140625.433594-5.644531l5.511718-5.375-5.617187 3.242187c-1.761719 1.019531-3.996094.648437-5.339844-.878906-1.339843-1.53125-1.417969-3.792969-.179687-5.410157l4.113281-5.351562c-1.738281-.351562-3.078125-1.742188-3.363281-3.492188-.289063-1.75.539062-3.496093 2.074218-4.382812l13.882813-8.019531c1.757813-1.027344 3.992187-.667969 5.34375.851562 1.347656 1.53125 1.421875 3.800781.179687 5.417969l-2.414062 3.132812 16.527344-9.496093c1.863281-1.074219 4.230468-.59375 5.53125 1.117187 1.300781 1.714844 1.121094 4.128906-.421875 5.632813l-5.503907 5.367187 21.027344-12.117187c1.871094-1.148438 4.308594-.6875 5.632813 1.066406 1.320312 1.75 1.101562 4.21875-.511719 5.707031l-9.539062 9.019532 27.433593-15.792969c1.90625-1.070313 4.3125-.523438 5.570313 1.261719 1.257812 1.789062.964844 4.238281-.679688 5.675781l-3.550781 3.019531 17.253906-9.957031c1.75-1.007813 3.96875-.648438 5.3125.859375 1.34375 1.507812 1.445313 3.753906.242188 5.375l-12.699219 17.070312 40.375-23.304687c1.867188-1.128907 4.285156-.660157 5.601562 1.078125 1.316407 1.742187 1.109376 4.195312-.484374 5.6875l-9.640626 9.257812 27.730469-16.023437c1.769531-1.023438 4.015625-.648438 5.355469.894531 1.34375 1.542969 1.402344 3.816406.140625 5.425781l-12.800781 16.300781 32.839844-18.988281c1.890624-1.09375 4.308593-.578125 5.589843 1.195313 1.28125 1.773437 1.015625 4.226562-.617187 5.683594l-2.558594 2.242187 2.953125-1.703125c1.765625-1.015625 4.003906-.636719 5.339844.898438 1.335937 1.535156 1.402343 3.804687.152343 5.414062l-4.460937 5.710938c2.046875-.40625 4.085937.726562 4.820313 2.679687.738281 1.949219-.046876 4.148437-1.851563 5.195313l-17.277344 10.007812c-1.769531 1.015625-4.007812.636719-5.34375-.898438-1.335937-1.535156-1.402343-3.804687-.152343-5.414062l4.09375-5.242188-20.027344 11.554688c-1.875.996094-4.195313.460938-5.445313-1.253906-1.25-1.71875-1.050781-4.089844.472657-5.570313l2.558593-2.238281-15.855469 9.0625c-1.769531 1.015625-4.007812.632812-5.34375-.90625-1.332031-1.539062-1.394531-3.808594-.144531-5.414062l12.800781-16.300782-39.226562 22.621094c-1.871094 1.125-4.285156.660156-5.605469-1.078125-1.316406-1.742187-1.105469-4.195313.484375-5.6875l9.644532-9.257813-27.734376 16.023438c-1.75 1.007812-3.96875.648438-5.3125-.859375s-1.445312-3.753906-.242187-5.378906l12.695313-17.066407-40.359376 23.296876c-.644531.394531-1.382812.605468-2.136718.613281zm0 0" fill="#cad0d7" data-original="#cad0d7"></path><path xmlns="http://www.w3.org/2000/svg" d="m259.6875 291.925781c-1.707031-.003906-3.246094-1.019531-3.917969-2.589843-.667969-1.570313-.339843-3.386719.835938-4.621094l6.332031-6.628906-14.183594 8.183593c-1.320312.839844-3 .886719-4.367187.125-1.367188-.765625-2.207031-2.21875-2.1875-3.785156.023437-1.566406.898437-2.996094 2.289062-3.722656l39.96875-23.039063c1.839844-1.0625 4.179688-.609375 5.492188 1.0625s1.191406 4.050782-.277344 5.585938l-6.410156 6.707031c2.074219-.859375 4.460937.035156 5.457031 2.046875s.265625 4.453125-1.675781 5.582031l-25.222657 14.566407c-.652343.363281-1.390624.546874-2.132812.527343zm0 0" fill="#f5b945" data-original="#f5b945"></path><path xmlns="http://www.w3.org/2000/svg" d="m194.6875 375.972656c-1.757812-.003906-3.332031-1.082031-3.972656-2.71875-.636719-1.636718-.203125-3.5 1.089844-4.691406l21.441406-19.769531-25.769532 14.898437c-1.902343 1.105469-4.328124.585938-5.609374-1.203125-1.28125-1.785156-.996094-4.253906.660156-5.699219l26.863281-23.59375-23.296875 13.445313c-1.921875 1.101563-4.367188.542969-5.625-1.28125-1.261719-1.820313-.914062-4.304687.796875-5.714844l19.558594-15.949219-16.65625 9.609376c-1.96875 1.144531-4.484375.550781-5.726563-1.355469-1.242187-1.910157-.769531-4.453125 1.074219-5.785157l38.527344-28.078124-38.03125 21.957031c-1.972657 1.144531-4.488281.539062-5.726563-1.375-1.234375-1.914063-.75-4.457031 1.101563-5.785157l30.933593-22.183593-30.984374 17.917969c-1.96875 1.128906-4.472657.523437-5.707032-1.378907-1.230468-1.902343-.761718-4.4375 1.070313-5.769531l25.480469-18.511719-26.546876 15.359375c-1.953124 1.054688-4.386718.433594-5.597656-1.425781-1.214844-1.859375-.796875-4.335937.957032-5.699219l13.550781-9.941406-14.507813 8.355469c-1.9375 1.09375-4.386718.515625-5.632812-1.328125-1.246094-1.839844-.867188-4.332032.871094-5.71875l35.089843-27.496094-40.105469 23.160156c-1.9375 1.117188-4.410156.546875-5.664062-1.308594-1.253906-1.851562-.863281-4.355468.894531-5.742187l45.226563-35.503906-51.628906 29.796875c-1.972657 1.09375-4.453126.460937-5.664063-1.441406-1.210937-1.902344-.734375-4.417969 1.089844-5.742188l22.496093-15.730469-25.261718 14.59375c-1.996094 1.1875-4.574219.558594-5.800782-1.414062-1.226562-1.972657-.648437-4.5625 1.296876-5.832031l2.328124-1.550782-3.316406 1.910156c-1.976562 1.140626-4.496094.523438-5.726562-1.394531-1.226563-1.917969-.734375-4.464843 1.125-5.78125l38.136718-27.085937-40.105468 23.167968c-1.933594 1.132813-4.410156.582032-5.679688-1.261718-1.265625-1.84375-.894531-4.355469.855469-5.75l42.15625-34.042969-45.398437 26.207031c-1.945313 1.082032-4.390626.484375-5.625-1.367187-1.230469-1.851563-.832032-4.339844.914062-5.714844l17.066406-13.003906-16.210937 9.386719c-1.964844 1.117187-4.457031.507812-5.6875-1.382813-1.230469-1.894531-.773438-4.421875 1.042969-5.761719l8.535156-6.226562-7.226563 4.179687c-1.980469 1.207031-4.5625.609375-5.8125-1.34375s-.710937-4.546875 1.210938-5.839843l1.800781-1.273438c-1.773438.710938-3.804688.15625-4.96875-1.359375-1.167969-1.511719-1.183594-3.617187-.039062-5.152344l6.117187-8.214843-2.679687 1.542968c-1.449219.832032-3.25.742188-4.609376-.226562-1.355468-.972656-2.023437-2.648438-1.703124-4.289063l.945312-4.871093c-.851562-.359376-1.566406-.988282-2.023438-1.792969-1.179687-2.039063-.484374-4.644531 1.554688-5.828125l3.898438-2.25c1.449218-.839844 3.253906-.753906 4.617187.21875 1.359375.972656 2.027344 2.652344 1.707031 4.292968l-.519531 2.664063 12.441406-7.175781c1.753907-1.015625 3.976563-.660156 5.324219.855468 1.347656 1.515626 1.441406 3.765626.230469 5.390626l-6.109375 8.207031 62.054687-35.839844c1.96875-1.105469 4.464844-.484375 5.683594 1.421875 1.21875 1.902344.738281 4.429688-1.09375 5.753906l-3.59375 2.5625c1.703125-.300781 3.417969.4375 4.371094 1.875 1.230469 1.902344.761719 4.433594-1.066407 5.769532l-8.535156 6.222656 3.859375-2.230469c1.949219-1.132813 4.445313-.554687 5.695313 1.324219s.820312 4.40625-.976563 5.769531l-17.066406 12.996094 34.941406-20.175781c1.929688-1.109376 4.386719-.550782 5.648438 1.285156 1.257812 1.835937.894531 4.332031-.835938 5.730468l-42.152343 34.046876 71.335937-41.1875c1.976563-1.140626 4.496094-.527344 5.726563 1.394531 1.226562 1.917969.734374 4.460937-1.125 5.78125l-38.109376 27.066406 37.835938-21.84375c1.992188-1.132813 4.523438-.488281 5.734375 1.457031 1.210937 1.949219.664063 4.503906-1.238281 5.789063l-3.644532 2.429687c2.011719-.628906 4.179688.300782 5.109376 2.1875.929687 1.890625.339843 4.175782-1.386719 5.382813l-22.519531 15.734375 17.917968-10.359375c1.9375-1.09375 4.390625-.515625 5.636719 1.328125 1.246094 1.839844.863281 4.332031-.875 5.71875l-45.226563 35.527344 40.476563-23.375c1.9375-1.121094 4.417969-.550782 5.671875 1.308593 1.257812 1.855469.855469 4.371094-.910156 5.75l-35.074219 27.484375 30.351563-17.578125c1.960937-1.105469 4.445312-.5 5.671874 1.386719 1.230469 1.882812.785157 4.402344-1.019531 5.746094l-13.558593 9.933594 29.722656-17.160157c1.964844-1.128906 4.46875-.523437 5.703125 1.378907 1.230469 1.90625.761719 4.4375-1.070313 5.773437l-25.429687 18.421875 34.066406-19.625c1.96875-1.144531 4.488281-.539062 5.722656 1.375 1.234375 1.910156.75 4.457031-1.097656 5.785156l-30.953125 22.183594 33.195312-19.164062c1.96875-1.164063 4.503907-.566407 5.746094 1.351562 1.246094 1.917969.757813 4.472656-1.105468 5.796875l-43.3125 31.574219c1.78125.054687 3.34375 1.210937 3.914062 2.898437.570312 1.691407.03125 3.554688-1.355469 4.679688l-19.515625 15.921875 14.761719-8.53125c1.898437-1.082032 4.308594-.558594 5.582031 1.21875 1.273438 1.773437 1.003906 4.222656-.632812 5.675781l-26.863282 23.585937 21.957032-12.671874c1.882812-1.0625 4.257812-.550782 5.539062 1.1875 1.277344 1.742187 1.054688 4.160156-.519531 5.640624l-21.480469 19.746094 16.511719-9.53125c1.789063-1.035156 4.058594-.640625 5.394531.933594 1.332032 1.578125 1.347656 3.878906.035156 5.472656l-8.714843 10.554688 3.328125-1.917969c1.523437-.878906 3.425781-.738281 4.800781.355469 1.371094 1.097656 1.933594 2.925781 1.414063 4.601562l-1.9375 6.195313c.660156.375 1.210937.917969 1.585937 1.578125 1.171875 2.039062.472656 4.644531-1.5625 5.820312l-4.265625 2.484375c-1.519531.875-3.421875.726563-4.789062-.367187-1.371094-1.09375-1.933594-2.914063-1.414063-4.589844l1.007813-3.226562-14.320313 8.269531c-1.785156 1.03125-4.058594.636719-5.390625-.9375-1.335938-1.574219-1.351562-3.878907-.035156-5.472657l8.71875-10.574218-29.609375 17.066406c-.648438.417969-1.398438.644531-2.167969.660156zm0 0" fill="#f5b945" data-original="#f5b945"></path><path xmlns="http://www.w3.org/2000/svg" d="m139.785156 169.617188c-1.761718 0-3.339844-1.082032-3.976562-2.722657-.636719-1.640625-.199219-3.503906 1.101562-4.691406l8.046875-7.347656-7.613281 4.394531c-1.726562.992188-3.914062.65625-5.261719-.808594-1.351562-1.464844-1.507812-3.667968-.378906-5.308594l10.238281-14.824218-.117187.078125c-2.039063 1.160156-4.632813.453125-5.804688-1.574219-1.171875-2.03125-.484375-4.628906 1.539063-5.816406l16.519531-9.546875c1.730469-1 3.921875-.667969 5.273437.800781 1.355469 1.472656 1.507813 3.683594.367188 5.324219l-10.242188 14.8125 25.242188-14.574219c1.878906-1.046875 4.246094-.53125 5.519531 1.203125 1.269531 1.734375 1.054688 4.144531-.507812 5.625l-8.039063 7.339844 9.113282-5.265625c2.042968-1.179688 4.652343-.476563 5.832031 1.566406 1.179687 2.042969.476562 4.652344-1.566407 5.832031l-43.152343 24.90625c-.648438.386719-1.382813.589844-2.132813.597657zm0 0" fill="#f5b945" data-original="#f5b945"></path><path xmlns="http://www.w3.org/2000/svg" d="m352.988281 170.914062c-1.929687 0-3.621093-1.296874-4.121093-3.160156-.5-1.867187.316406-3.835937 1.988281-4.800781l51.941406-29.984375c1.773437-1.023438 4.019531-.644531 5.359375.902344 1.335938 1.542968 1.390625 3.820312.128906 5.429687l-9.863281 12.59375 5.621094-3.25c1.492187-.859375 3.351562-.738281 4.71875.304688 1.371093 1.039062 1.984375 2.800781 1.554687 4.464843l-1.816406 6.980469c.765625.371094 1.40625.964844 1.832031 1.707031 1.179688 2.039063.480469 4.648438-1.558593 5.828126l-4.175782 2.40625c-1.488281.863281-3.347656.75-4.71875-.292969-1.371094-1.039063-1.984375-2.804688-1.550781-4.46875l1.160156-4.445313-15.992187 9.1875c-1.769532 1.035156-4.027344.660156-5.371094-.886718-1.34375-1.550782-1.394531-3.835938-.125-5.445313l9.90625-12.59375-32.785156 18.925781c-.644532.386719-1.378906.59375-2.132813.597656zm0 0" fill="#f5b945" data-original="#f5b945"></path><path xmlns="http://www.w3.org/2000/svg" d="m329.378906 213.417969c-1.617187 0-3.09375-.910157-3.816406-2.355469s-.566406-3.175781.402344-4.46875l11.699218-15.234375-23.722656 13.664063c-1.972656 1.179687-4.523437.585937-5.773437-1.34375-1.25-1.929688-.746094-4.5 1.140625-5.816407l24.746094-17.917969-25.730469 14.847657c-1.941407 1.105469-4.410157.527343-5.65625-1.328125-1.246094-1.855469-.847657-4.359375.914062-5.738282l45.226563-35.074218-37.71875 21.777344c-1.949219 1.109374-4.421875.523437-5.664063-1.347657-1.242187-1.867187-.824219-4.375.953125-5.742187l34.136719-25.984375-50.347656 29.015625c-1.992188 1.179687-4.5625.554687-5.789063-1.40625-1.230468-1.960938-.671875-4.546875 1.257813-5.824219l9.386719-6.40625-23.75 13.703125c-1.984376 1.097656-4.484376.453125-5.683594-1.472656-1.203125-1.925782-.6875-4.453125 1.171875-5.753906l17.867187-12.050782-33.535156 19.355469c-2 1.132813-4.539062.484375-5.742188-1.472656-1.207031-1.957031-.644531-4.519531 1.269532-5.789063l9.632812-6.324218-9.15625 5.28125c-1.976562 1.117187-4.484375.488281-5.703125-1.433594-1.214843-1.921875-.710937-4.457032 1.148438-5.769532l44.757812-30.769531-40.109375 23.140625c-1.972656 1.105469-4.46875.472656-5.683594-1.4375-1.210937-1.910156-.71875-4.4375 1.121094-5.753906l39.253906-27.222656-34.648437 20.003906c-1.964844 1.183594-4.515625.597656-5.773437-1.324219-1.253907-1.925781-.761719-4.496093 1.117187-5.820312l49.644531-36.386719-45.011718 25.992188c-1.945313 1.117187-4.421876.539062-5.671876-1.324219-1.246093-1.863281-.839843-4.375.933594-5.746094l48.574219-37.453125-66.816406 38.578125c-1.972657 1.15625-4.507813.554687-5.746094-1.371094-1.238281-1.921875-.742187-4.480469 1.128906-5.796875l39.449219-28.3125-48.078125 27.757813c-1.8125 1.046875-4.121094.621093-5.441406-1.003907-1.324219-1.625-1.269531-3.96875.128906-5.53125l15.359375-17.152343-16.0625 9.265625c-1.777344 1.027344-4.035156.636718-5.371094-.921875-1.335937-1.5625-1.371094-3.851563-.082031-5.453125l8.320313-10.308594c-1.902344-.0625-3.535157-1.378906-3.996094-3.230469-.460938-1.847656.359375-3.777343 2.007812-4.730469l16.445313-9.496093c1.78125-1.039063 4.046875-.65625 5.386719.910156 1.339843 1.5625 1.371093 3.863281.074218 5.464844l-7.203125 8.925781 19.285157-11.09375c1.820312-1.0625 4.136718-.636719 5.464843.996094 1.324219 1.632812 1.261719 3.988281-.148437 5.546875l-15.359375 17.144531 99.738281-57.625c1.972656-1.160156 4.507812-.554688 5.746094 1.367188 1.238281 1.925781.742187 4.484374-1.128906 5.800781l-39.425782 28.289062 47.421875-27.386719c1.945313-1.140624 4.445313-.570312 5.703125 1.304688 1.253906 1.875.835938 4.402344-.960937 5.769531l-48.578125 37.460938 57.351562-33.109375c1.960938-1.132813 4.46875-.535156 5.707032 1.363281 1.238281 1.898437.777343 4.429687-1.046876 5.773437l-49.613281 36.367188 55.664063-32.136719c1.976562-1.101562 4.46875-.472656 5.683594 1.4375 1.210937 1.914063.722656 4.4375-1.121094 5.757813l-39.25 27.21875 42.886718-24.746094c1.984376-1.175781 4.546876-.558594 5.78125 1.390625 1.234376 1.953125.691407 4.53125-1.222656 5.820313l-44.621094 30.839843 47.015626-27.144531c2-1.136719 4.539062-.484375 5.742187 1.472656 1.207031 1.957032.644531 4.515625-1.269531 5.789063l-9.632813 6.324219 9.898438-5.71875c1.984375-1.097657 4.484375-.453126 5.683593 1.472656 1.203126 1.925781.6875 4.453125-1.171874 5.757812l-17.859376 12.046875 17.800782-10.238281c1.992187-1.179688 4.5625-.558594 5.789062 1.402344 1.230469 1.960937.671875 4.546875-1.257812 5.824218l-9.386719 6.390626 8.328125-4.804688c1.953125-1.132812 4.449219-.554688 5.699219 1.324219 1.25 1.878906.820312 4.40625-.980469 5.769531l-34.132812 25.972656 34.132812-19.683594c1.941406-1.109374 4.410156-.53125 5.65625 1.324219 1.25 1.859375.851562 4.363281-.910156 5.738281l-45.226563 35.074219 43.921875-25.363281c1.9375-.945312 4.277344-.296875 5.453125 1.515625 1.171875 1.808594.808594 4.210937-.847656 5.59375l-49.808594 35.96875.207031.222656c1.34375 1.53125 1.421876 3.800781.175782 5.417969l-11.6875 15.222656 4.027344-2.320312c2.039062-1.160156 4.628906-.457032 5.804687 1.574218 1.171875 2.03125.484375 4.628907-1.539063 5.816407l-22.621093 13.054687c-.648438.375-1.386719.570313-2.132813.570313zm0 0" fill="#f5b945" data-original="#f5b945"></path><path xmlns="http://www.w3.org/2000/svg" d="m245.078125 64.804688c-1.835937 0-3.46875-1.175782-4.050781-2.917969-.578125-1.742188.019531-3.660157 1.488281-4.761719l3.125-2.3125c-1.878906.277344-3.714844-.71875-4.503906-2.445312-.789063-1.726563-.347657-3.765626 1.089843-5.007813l12.765626-11.015625-7.78125 4.496094c-1.769532 1.015625-4.003907.640625-5.34375-.898438-1.335938-1.535156-1.398438-3.804687-.152344-5.414062l10.878906-14.011719-5.382812 3.105469c-1.5.863281-3.375.734375-4.742188-.328125-1.367188-1.058594-1.957031-2.84375-1.496094-4.511719l2.039063-7.300781c-1.339844-.75-2.175781-2.15625-2.191407-3.691407-.011718-1.53125.796876-2.953124 2.125-3.726562l4.078126-2.355469c1.5-.863281 3.371093-.730469 4.738281.328125 1.371093 1.0625 1.960937 2.84375 1.5 4.511719l-1.246094 4.472656 15.207031-8.808593c1.765625-1.023438 4.011719-.652344 5.351563.890624 1.34375 1.539063 1.40625 3.8125.152343 5.425782l-10.898437 14.035156 27.851563-16.085938c1.910156-1.117187 4.355468-.589843 5.636718 1.210938 1.277344 1.804688.972656 4.285156-.710937 5.71875l-12.707031 10.992188 22.542968-13.023438c1.960938-1.121094 4.453125-.523438 5.691406 1.367188 1.238282 1.886718.789063 4.410156-1.023437 5.757812l-.851563.660156 6.546876-3.78125c2.035156-1.160156 4.628906-.457031 5.800781 1.574219 1.175781 2.03125.488281 4.628906-1.535157 5.816406l-71.859374 41.460938c-.648438.378906-1.382813.578125-2.132813.574219zm0 0" fill="#f5b945" data-original="#f5b945"></path><g xmlns="http://www.w3.org/2000/svg" fill="#262626"><path d="m93.933594 168.152344v.09375c.195312 3.746094.511718 7.492187.992187 11.238281 4.578125 33.402344 19.664063 64.484375 43.074219 88.746094 26.589844 26.488281 41.292969 62.632812 40.738281 100.164062-.417969.066407-.851562.085938-1.28125.152344-13.90625 2.3125-31.273437 14.046875-21.828125 30.5 2.121094 3.6875 5.484375 6.5 9.492188 7.933594-9.4375 5.265625-16.164063 14.507812-9.492188 26.199219 6.519532 11.390624 20.53125 10.238281 31.890625 10.136718 1.546875 33.019532 28.785157 58.984375 61.839844 58.949219.09375 0 .265625-.050781.386719-.0625.332031 0 .519531.0625.945312 0 33.792969-1.816406 65.554688-23.542969 68.265625-58.953125h8.695313c.128906 0 .285156-.054688.410156-.0625.953125.003906 1.902344-.125 2.816406-.382812 15.019532-4.0625 32.164063-18.339844 16.667969-33.980469-1.957031-1.894531-4.28125-3.363281-6.828125-4.316407 11.09375-6.316406 18.917969-17.621093 6.828125-29.800781-5.480469-4.648437-12.53125-7.023437-19.707031-6.644531.71875-48.148438 19.097656-74.789062 49.496094-111.675781 20.917968-25.605469 33.09375-57.234375 34.738281-90.257813.488281-.71875.554687-1.347656.085937-1.828125.523438-8.5625.5-17.148437-.078125-25.710937-12.339843-79.738282-81.609375-138.15625-162.285156-136.863282-2.9375-2.007812-6.855469-1.8085932-9.574219.484376-85.582031 6.742187-150.347656 80.222656-146.289062 165.972656zm97.332031 186.742187c-.296875-51.082031-30.71875-72.449219-57.496094-110.394531-15.210937-21.726562-24.457031-47.058594-26.8125-73.472656h31.257813c2.617187 0 7.011718-.742188 8.097656-3.636719.121094-.390625.171875-.800781.152344-1.210937.058594-.183594.082031-.378907.070312-.570313v-.085937c.011719-.339844-.089844-.675782-.292968-.949219-10.546876-13.148438-5.238282-44.371094 17.648437-35.71875 7.117187 3.007812 12.367187 9.234375 14.132813 16.757812 1.761718 7.523438-.175782 15.433594-5.214844 21.292969-.691406.851562-.554688 1.433594-.050782 1.839844.101563.648437.972657 1.109375 3.214844 1.109375h62.601563v74.351562c0 6.109375 12.125 4.191407 12.433593-.851562 12.636719-8.535157 27.714844 3.414062 29.925782 16.886719 2.980468 18.191406-14.746094 31.777343-30.328125 19.269531-2.242188-1.800781-9.199219.503906-11.3125 2.644531-.109375.121094-.199219.253906-.265625.402344-.167969.195312-.277344.433594-.316406.691406 0 .058594-.066407.109375-.066407.167969v82.355469c-15.796875-.652344-31.617187-.300782-47.371093 1.050781-2.890626-1.886719.050781-1.996094-.007813-11.929688zm114.347656 98.984375c-4.671875 23.875-24.8125 41.617188-49.085937 43.238282-29.6875-1.105469-53.902344-24.160157-56.464844-53.757813h108.273438c-1.09375 3.449219-2.003907 6.953125-2.730469 10.496094zm25.105469-17.203125h-78.628906c-9.144532 0-104.148438 5.976563-81.96875-21.441406 2.660156-2.902344 6.097656-4.972656 9.90625-5.972656 3.132812 0 6.222656-.09375 9.097656-.09375h63.300781c.742188 0 1.527344.050781 2.191407.050781h53.128906c.367187 0 .851562-.042969 1.210937-.050781h14.3125c.117188 0 .269531 0 .390625.050781 11.109375 3.078125 29.449219 20.511719 7.046875 27.433594zm.542969-34.242187c-7.242188-.664063-14.984375.109375-21.332031.109375-38.136719 0-81.183594-5.460938-119.902344-1.464844-17.476563-2.5625-29.40625-8.238281-19.90625-20.011719 2.773437-3.03125 6.375-5.179687 10.359375-6.179687.703125.347656 1.476562.523437 2.261719.519531h136.53125c1.207031-.039062 2.40625-.21875 3.578124-.527344.253907.050782.5625.050782.808594.121094 10.992188 3.078125 29.160156 20.324219 7.59375 27.425781zm45.824219-161.722656c-13.429688 21.015624-34.0625 35.839843-46.359376 57.753906-8.3125 14.796875-19.753906 41.855468-15.308593 58.808594.347656 1.351562-.1875 7.597656.519531 10.761718-.496094.128906-1.058594.179688-1.554688.300782-1.542968.058593-3.035156.101562-4.453124.101562-18.773438 0-38.835938-1.324219-58.9375-2.210938v-76.375c18.191406 4.601563 40.609374-5.476562 42.519531-25.984374 2.347656-25.171876-22.894531-33.328126-42.453125-26.671876v-67.570312h52.148437c-5.792969 9.34375-5.742187 21.175781.128907 30.464844 5.871093 9.292968 16.535156 14.417968 27.457031 13.203125 10.285156-.140625 19.820312-5.410157 25.410156-14.042969 5.589844-8.636719 6.492187-19.492188 2.410156-28.933594h41.105469c-1.46875 25.003906-9.253906 49.222656-22.632812 70.394532zm22.648437-98.808594c.488281 7.183594.59375 14.390625.324219 21.589844h-46.464844c-4.019531-1.707032-12.652344 2.011718-10.238281 5.691406l.042969.101562c0 .050782 0 .09375.050781.144532 10.632812 13.234374 4.957031 42.097656-17.066407 35.304687-7.292968-2.636719-12.796874-8.722656-14.695312-16.238281-1.894531-7.519532.0625-15.488282 5.230469-21.265625 2.390625-2.980469-2.105469-3.789063-6.296875-3.046875h-59.5625v-63.839844c.28125-.496094.144531-1.128906-.316406-1.464844-1.449219-4.15625-10.238282-2.773437-11.816407 1.117188-13.144531 9.386718-29.058593-3.261719-30.441406-17.316406-1.523437-7.824219 2.078125-15.753907 8.976563-19.75 6.898437-3.996094 15.574218-3.171876 21.601562 2.042968 2.328125 4.199219 12.039062 2.332032 12.039062-2.855468v-.515626c.054688-.207031.054688-.429687 0-.636718v-50.808594c74.640626 2.808594 136.886719 57.984375 148.632813 131.746094zm-274.234375-59.066406c22.300781-42.386719 65.21875-69.949219 113.039062-72.59375v43.816406c-19.035156-5.117188-42.253906 5.855468-42.578124 28.222656-.359376 24.242188 23.574218 32.066406 42.621093 25.597656v56.039063h-52.308593c5.875-9.269531 5.796874-21.117188-.207032-30.304688s-16.820312-14.019531-27.671875-12.363281c-21.496093 2.015625-36.640625 22.570312-27.679687 41.566406h-24.332032c-1.191406-27.917968 5.429688-55.617187 19.117188-79.980468zm0 0" fill="#262626" data-original="#262626"></path><path d="m440.53125 162.886719h59.734375c7.050781 0 9.507813-9.03125 1.109375-9.03125h-59.734375c-7.046875 0-9.503906 9.03125-1.109375 9.03125zm0 0" fill="#262626" data-original="#262626"></path><path d="m419.675781 65.996094 51.730469-29.863282c7.175781-4.148437-3.839844-5.121093-7.484375-2.988281l-51.726563 29.867188c-7.179687 4.148437 3.839844 5.09375 7.480469 2.984375zm0 0" fill="#262626" data-original="#262626"></path><path d="m420.675781 248.558594c-4.921875-2.832032-15.605469 3.816406-9.480469 7.355468l51.738282 29.867188c4.914062 2.835938 15.597656-3.8125 9.472656-7.355469zm0 0" fill="#262626" data-original="#262626"></path><path d="m63.164062 161.691406c4.410157 0 13.207032-6.640625 4.914063-6.640625h-59.734375c-4.410156 0-13.207031 6.640625-4.914062 6.640625zm0 0" fill="#262626" data-original="#262626"></path><path d="m84.964844 66.664062c3.160156 1.824219 13.527344-3.21875 11.613281-4.316406l-51.726563-29.867187c-3.167968-1.828125-13.527343 3.214843-11.625 4.316406zm0 0" fill="#262626" data-original="#262626"></path><path d="m87.988281 248.414062-51.730469 29.867188c-7.246093 4.171875-.675781 11.257812 5.570313 7.679688l51.730469-29.867188c7.238281-4.207031.675781-11.289062-5.570313-7.679688zm0 0" fill="#262626" data-original="#262626"></path></g></g></svg>