<svg xmlns="http://www.w3.org/2000/svg" version="1.1" xmlns:xlink="http://www.w3.org/1999/xlink" xmlns:svgjs="http://svgjs.com/svgjs" width="512" height="512" x="0" y="0" viewBox="0 0 512.008 512.008" style="enable-background:new 0 0 512 512" xml:space="preserve" class=""><g><g xmlns="http://www.w3.org/2000/svg"><g><path d="m492.628 316.844c1.767-3.402 2.857-7.209 2.857-11.296v-98.121l-67.14-8.389c.661-2.931 1.082-5.953 1.082-9.091 0-8.389-2.543-16.176-6.862-22.691l4.508-22.542c1.561-7.787 2.353-15.771 2.353-23.723 0-66.702-54.258-120.961-120.961-120.961h-104.89c-66.694 0-120.952 54.258-120.952 120.952 0 7.952.793 15.937 2.353 23.723l4.508 22.542c-4.31 6.523-6.862 14.31-6.862 22.691 0 22.765 18.521 41.286 41.286 41.286h8.678c2.477 27.299 17.068 51.104 38.355 66.058h-42.649c-14.979 0-28.81-8.133-36.092-21.229l-26.093-46.967.008-14.326c0-8.844-3.435-17.15-9.694-23.393-6.251-6.234-14.591-9.678-23.467-9.678-8.819 0-17.101 3.435-23.327 9.678s-9.643 14.532-9.627 23.343c.033 17.489 4.186 35.003 12.006 50.65l27.579 55.167c18.306 36.596 55.092 59.337 96.015 59.337h29.586v67.478c0 2.172-.884 4.302-2.419 5.838l-5.846 5.838c-5.326 5.334-8.257 12.411-8.257 19.933s2.931 14.607 8.257 19.933l5.838 5.838c4.69 4.682 10.916 7.258 17.53 7.258h151.463c6.614 0 12.84-2.585 17.522-7.258l5.846-5.838c5.326-5.334 8.257-12.411 8.257-19.933s-2.931-14.607-8.257-19.933l-5.838-5.838c-1.536-1.544-2.419-3.666-2.419-5.838v-67.478h132.116c18.216 0 33.029-14.814 33.029-33.029-.008-13.328-7.984-24.773-19.38-29.991zm-147.185-18.282c-1.643-.347-3.311-.586-4.979-.793 21.642-14.921 36.497-38.966 38.999-66.545h8.678c9.331 0 17.852-3.229 24.772-8.472v41.509h-8.257c-13.658 0-24.772 11.114-24.772 24.772 0 7.564 3.476 14.26 8.835 18.802zm34.102-133.388h8.596c13.658 0 24.772 11.114 24.772 24.772s-11.114 24.772-24.772 24.772h-8.257v-12.097l21.097-14.062-9.157-13.74-11.932 7.96v-9.347c-.008-2.758-.173-5.508-.347-8.258zm25.111 132.116c-4.55 0-8.257-3.699-8.257-8.257s3.708-8.257 8.257-8.257h8.257v8.257c0 4.558-3.708 8.257-8.257 8.257zm24.771-8.257v-40.188l49.544 6.193v25.738h-8.257c-13.658 0-24.772 11.114-24.772 24.772 0 6.036 2.254 11.502 5.863 15.813l-40.295-8.637c10.312-2.998 17.917-12.42 17.917-23.691zm41.287 24.772c-4.55 0-8.257-3.699-8.257-8.257s3.708-8.257 8.257-8.257h8.257v8.257c0 4.558-3.708 8.257-8.257 8.257zm8.257-91.796v16.382l-49.544-6.193v-16.382zm-275.396-205.466h104.892c57.594 0 104.438 46.852 104.438 104.438 0 6.862-.685 13.757-2.031 20.478l-2.535 12.7c-5.995-3.394-12.824-5.499-20.197-5.499h-10.726c-3.782-19.652-11.907-38.446-23.954-54.498l-13.212 9.9c12.138 16.192 19.842 35.539 22.278 55.58l-102.358-51.179 9.066 36.258-38.116-11.734c-29.561-9.1-49.411-35.977-49.411-66.909h-16.515c0 18.29 5.664 35.399 15.532 49.544h-7.275c-19.933 0-36.613 14.211-40.452 33.029h-9.091c-7.374 0-14.202 2.106-20.206 5.508l-2.535-12.7c-1.346-6.721-2.031-13.616-2.031-20.478.001-57.586 46.853-104.438 104.439-104.438zm-104.438 173.403c0-13.658 11.114-24.772 24.772-24.772h8.257v17.604l-11.932-7.96-9.157 13.74 21.097 14.062v12.097h-8.257c-13.666.001-24.78-11.113-24.78-24.771zm49.543 33.029v-66.058c0-13.658 11.114-24.772 24.772-24.772h22.27c8.736 7.365 19.041 13.096 30.544 16.638l66.042 20.313c-6.895 4.401-11.511 12.08-11.511 20.85 0 13.658 11.114 24.772 24.772 24.772s24.772-11.114 24.772-24.772-11.114-24.772-24.772-24.772c-4.872 0-9.389 1.462-13.22 3.897l-7.44-29.767 78.461 39.23v44.441c0 40.981-33.343 74.315-74.315 74.315h-66.058c-40.982 0-74.317-33.334-74.317-74.315zm148.631-33.029c0-4.558 3.708-8.257 8.257-8.257s8.257 3.699 8.257 8.257-3.708 8.257-8.257 8.257-8.257-3.699-8.257-8.257zm-18.034 123.859c-3.419 9.587-12.502 16.515-23.252 16.515-10.751 0-19.834-6.928-23.252-16.515zm-143.676 49.544c-34.623 0-65.753-19.239-81.243-50.212l-27.579-55.167c-6.688-13.369-10.239-28.347-10.264-43.293-.008-4.393 1.701-8.53 4.806-11.643 6.267-6.276 17.208-6.176 23.442.025 3.121 3.121 4.847 7.275 4.839 11.692l-.008 18.62 28.174 50.708c10.181 18.331 29.544 29.726 50.518 29.726h36.91v49.544zm207.835 123.859-5.838 5.838c-1.561 1.561-3.641 2.419-5.846 2.419h-151.463c-2.205 0-4.286-.859-5.846-2.419l-5.83-5.838c-2.213-2.213-3.427-5.136-3.427-8.257s1.214-6.044 3.419-8.257l5.838-5.838c4.682-4.674 7.258-10.9 7.258-17.514v-133.537h33.863c3.84 18.818 20.511 33.029 40.452 33.029s36.613-14.211 40.452-33.029h33.863v133.536c0 6.614 2.576 12.84 7.258 17.514l5.838 5.838c2.213 2.213 3.427 5.136 3.427 8.257.001 3.122-1.213 6.045-3.418 8.258zm135.535-123.859h-132.116v-47.595l108.443 23.244 11.717-5.863c3.699-1.841 7.828-2.816 11.957-2.816 9.108 0 16.515 7.407 16.515 16.515s-7.408 16.515-16.516 16.515z" fill="#ffffff" data-original="#000000" class=""></path><path d="m206.481 165.174c-13.658 0-24.772 11.114-24.772 24.772s11.114 24.772 24.772 24.772 24.772-11.114 24.772-24.772-11.114-24.772-24.772-24.772zm0 33.029c-4.55 0-8.257-3.699-8.257-8.257s3.708-8.257 8.257-8.257 8.257 3.699 8.257 8.257-3.707 8.257-8.257 8.257z" fill="#ffffff" data-original="#000000" class=""></path><path d="m280.797 247.747c0 9.108-7.407 16.515-16.515 16.515h-33.029v16.515h33.029c18.216 0 33.029-14.814 33.029-33.029h-16.514z" fill="#ffffff" data-original="#000000" class=""></path><path d="m33.079 462.436h-8.257c-13.658 0-24.772 11.114-24.772 24.772s11.114 24.772 24.772 24.772 24.772-11.114 24.772-24.772v-40.188l66.058 8.257v-49.676l-82.573-10.322zm0 24.772c0 4.558-3.708 8.257-8.257 8.257s-8.257-3.699-8.257-8.257 3.708-8.257 8.257-8.257h8.257zm16.514-73.218 49.544 6.193v16.382l-49.544-6.193z" fill="#ffffff" data-original="#000000" class=""></path></g></g></g></svg>