<svg xmlns="http://www.w3.org/2000/svg" version="1.1" xmlns:xlink="http://www.w3.org/1999/xlink" xmlns:svgjs="http://svgjs.com/svgjs" width="512" height="512" x="0" y="0" viewBox="0 0 16.933333 16.933334" style="enable-background:new 0 0 512 512" xml:space="preserve" class=""><g><g xmlns="http://www.w3.org/2000/svg" id="layer1" transform="translate(0 -280.067)"><path id="path3466" d="m8.7312492 280.59686c-.3420454 0-.6333596.22219-.7436247.52813h-6.6647087c-.4351629 0-.79375005.35859-.79375005.79375v2.64583c-.00508.35784.53425995.35784.52916675 0v-2.64583c0-.15115.1134242-.26458.2645833-.26458h6.6156179v.52916h-6.0864512c-.1461188.00002-.2645675.11847-.2645834.26459v7.40833c.0000133.14612.1184646.26457.2645834.26458h12.1708335c.146119-.00001.26457-.11846.264583-.26458v-3.43907h.529167v3.96824c0 .15115-.113424.26458-.264583.26458h-13.2291672c-.1511591 0-.2645833-.11343-.2645833-.26458v-3.43959c.00508-.35783-.53425998-.35783-.52916675 0v3.43959c0 .43516.35858715.79375.79375005.79375h13.2291672c.435162 0 .79375-.35859.79375-.79375v-3.96824h.264067c.43516 0 .7953-.36013.7953-.7953v-4.2323c0-.43516-.36014-.79271-.7953-.79271zm0 .5271h6.8786508c.151159 0 .266134.11446.266134.26561v4.2323c0 .15116-.114978.26614-.266134.26614h-4.497917c-.06273-.00027-.123536.0217-.171566.062l-1.4164523 1.21491v-1.01337c-.0005291-.14531-.1182343-.26296-.2635488-.26354h-.5291667c-.1511458 0-.2635488-.11499-.2635488-.26614v-4.2323c0-.15115.1124056-.26561.2635488-.26561zm2.1171828 1.05885v2.64635c.000045.20741.227862.33414.404111.22479l2.117183-1.3224c.166132-.10359.166132-.34547 0-.44907l-2.117183-1.32446c-.158684-.0993-.404111-.0105-.404111.22479zm.529167.47852 1.351856.84543-1.351856.84388zm-9.2609332.0512h5.8218679v2.90938c0 .43516.3575606.7953.7927155.7953h.2635488v1.32189c-.00132.22728.2657925.35021.4377003.20154l1.7771537-1.52343h2.548681v3.17449h-5.2916671c0-.8749-.7131235-1.58595-1.588016-1.58595h-.2635514v-.67386c.3240008-.29102.5296852-.71151.5296852-1.17978v-.26354c.1461188-.00053.2641071-.1195.2635489-.26562v-.79324c0-.8749-.7131236-1.58801-1.588016-1.58801h-.5291667c-.874903 0-1.5859389.71312-1.5859495 1.58801v.79324c-.0005292.14612.11743.26503.2635488.26562v.26354c-.000008.4682.2047399.88877.5286507 1.17978v.67386h-.2651019c-.8748951 0-1.5859496.71105-1.5859496 1.58595h-.5296826zm3.1744841 1.05885h.5291667c.590886 0 1.0583307.46743 1.0583333 1.05833v.42013l-.3420983-.34213c-.08918-.0892-.2283724-.10301-.3333141-.0331 0 0-.7656116.48473-1.4417728.48473h-.5291667v-.52969c.0000079-.5909.4679527-1.05833 1.0588519-1.05833zm-4.5015336 1.58337c-.145923.002-.26244815.12227-.26045055.2682v.26458c-.00508.35783.53425995.35783.52916675 0v-.26458c.00212-.14917-.11955735-.27053-.2687162-.2682zm5.5180072.0708.307475.3085v.41806c0 .59089-.4674367 1.05834-1.0583334 1.05834-.5908833 0-1.0593731-.46746-1.0593652-1.05834v-.26354h.2640648c.6784102 0 1.3702877-.34985 1.5461588-.46302zm-1.280025 2.22156c.1657641.0589.343572.093.5291666.093.1857666 0 .3632756-.034.5291667-.093v.57155s-.089649.31419-.5291667.31419c-.4395179 0-.5291666-.31058-.5291666-.31058zm-.7953005.8857h.3586348s.2283301.52917.9658323.52917c.7375023 0 .9653165-.52917.9653165-.52917h.3565683c.5908861 0 1.0588493.46795 1.0588493 1.05885h-4.7614655c0-.5909.4653783-1.05885 1.0562643-1.05885zm-1.3213662 3.175c-.7283186 0-1.3244672.59408-1.3244672 1.3224v.26561c0 .30799.1113235.58822.289388.81339-.7609178.11655-1.34564174.7743-1.34565233 1.56735v.52968c-.00052916.14612.11743003.26503.26354882.26562h4.23229891c.1469284.00053.2661788-.11869.2656179-.26562v-.52968c0-.79279-.5858378-1.45048-1.3466869-1.56735.1776598-.22517.2883535-.5054.2883535-.81339v-.26561c0-.72832-.5940822-1.3224-1.3224007-1.3224zm5.5567686 0c-.7283212 0-1.3244671.59408-1.3244671 1.3224v.26561c0 .30794.1108525.58823.2888694.81339-.7610925.11666-1.3471922.77438-1.3472028 1.56735v.52968c-.0005291.14693.1186868.26618.2656152.26562h4.2323019c.146928.00053.266176-.11869.265615-.26562v-.52968c0-.79271-.585962-1.45037-1.346687-1.56735.1776624-.22517.2883535-.5054.2883535-.81339v-.26561c0-.72832-.5940795-1.3224-1.3223981-1.3224zm5.5546996 0c-.728321 0-1.322401.59408-1.322401 1.3224v.26561c0 .30799.110694.58822.288354.81339-.760847.11687-1.347192.77456-1.347203 1.56735v.52968c-.000529.14713.119004.26647.266134.26562h4.232299c.146928.00053.266178-.11869.265617-.26562v-.52968c0-.79306-.586504-1.4508-1.347721-1.56735.178065-.22517.28887-.5054.28887-.81339v-.26561c0-.72832-.59563-1.3224-1.323949-1.3224zm-11.1114682.52968c.4443148 0 .7927181.3484.7927181.79272v.26561c0 .44432-.3484033.79324-.7927181.79324s-.7947819-.34892-.7947819-.79324v-.26561c0-.44432.3504671-.79272.7947819-.79272zm5.5567686 0c.4443122 0 .7927155.3484.7927155.79272v.26561c0 .44432-.3484033.79324-.7927155.79324-.4443148 0-.7953004-.34892-.7953004-.79324v-.26561c0-.44432.3509856-.79272.7953004-.79272zm5.5546996 0c.444312 0 .794782.3484.794782.79272v.26561c0 .44432-.35047.79324-.794782.79324-.444315 0-.793234-.34892-.793234-.79324v-.26561c0-.44432.348919-.79272.793234-.79272zm-11.9062501 2.38074h1.5875c.590886 0 1.0588493.46743 1.0588493 1.05833v.26613h-3.7052013v-.26613c.000008-.5909.4679633-1.05833 1.058852-1.05833zm5.5562501 0h1.5880159c.590886 0 1.0588491.46743 1.0588491 1.05833v.26613h-3.7051984v-.26613c.0000079-.5909.4674473-1.05833 1.0583334-1.05833zm5.556766 0h1.588016c.590886 0 1.058852.46743 1.058852 1.05833v.26613h-3.705201v-.26613c.000008-.5909.467447-1.05833 1.058333-1.05833z" font-variant-ligatures="normal" font-variant-position="normal" font-variant-caps="normal" font-variant-numeric="normal" font-variant-alternates="normal" font-feature-settings="normal" text-indent="0" text-align="start" text-decoration-line="none" text-decoration-style="solid" text-decoration-color="rgb(0,0,0)" text-transform="none" text-orientation="mixed" white-space="normal" shape-padding="0" isolation="auto" mix-blend-mode="normal" solid-color="rgb(0,0,0)" solid-opacity="1" vector-effect="none" fill="#ffffff" data-original="#000000"></path></g></g></svg>