<svg xmlns="http://www.w3.org/2000/svg" version="1.1" xmlns:xlink="http://www.w3.org/1999/xlink" xmlns:svgjs="http://svgjs.com/svgjs" width="512" height="512" x="0" y="0" viewBox="0 0 64 64" style="enable-background:new 0 0 512 512" xml:space="preserve" class=""><g><g xmlns="http://www.w3.org/2000/svg" id="Flat"><g id="Color_copy" data-name="Color copy"><path d="m5 13a2 2 0 0 1 2 2v46a0 0 0 0 1 0 0h-4a0 0 0 0 1 0 0v-46a2 2 0 0 1 2-2z" fill="#f9d423" data-original="#f9d423"></path><path d="m31 13a2 2 0 0 1 2 2v41.636a0 0 0 0 1 0 0h-4a0 0 0 0 1 0 0v-41.636a2 2 0 0 1 2-2z" fill="#f9d423" data-original="#f9d423"></path><path d="m7 17h22v4h-22z" fill="#f9b53d" data-original="#f9b53d"></path><path d="m33 26v30.64h-4v-41.64a2.006 2.006 0 0 1 2-2v11a2.006 2.006 0 0 0 2 2z" fill="#f9b53d" data-original="#f9b53d"></path><path d="m7 48v13h-4v-46a2.006 2.006 0 0 1 2-2v33a2.006 2.006 0 0 0 2 2z" fill="#f9b53d" data-original="#f9b53d"></path><path d="m27 17a2.006 2.006 0 0 1 -2 2h-2v-2h-2v2h-8v-2h-2v2a2.006 2.006 0 0 1 -2-2h-2v4h22v-4z" fill="#fc913a" data-original="#fc913a"></path><path d="m13 50a1 1 0 0 1 -1-1v-32a1 1 0 0 1 2 0v32a1 1 0 0 1 -1 1z" fill="#a3daff" data-original="#a3daff"></path><path d="m23 50a1 1 0 0 1 -1-1v-32a1 1 0 0 1 2 0v32a1 1 0 0 1 -1 1z" fill="#a3daff" data-original="#a3daff"></path><path d="m11 49h14v4h-14z" fill="#1ec0ff" data-original="#1ec0ff" class=""></path><path d="m25 49v4h-14v-2h.1a6.976 6.976 0 0 0 4.89-2z" fill="#299cfc" data-original="#299cfc"></path><path d="m47 3a6.151 6.151 0 0 0 -3.617 1.176l-9.383 6.824h26l-9.383-6.824a6.151 6.151 0 0 0 -3.617-1.176z" fill="#ff8b7b" data-original="#ff8b7b"></path><path d="m33 33v28h28v-28zm14 24a8 8 0 1 1 8-8 8 8 0 0 1 -8 8z" fill="#ff8b7b" data-original="#ff8b7b"></path><path d="m14 61h-11v-4h9.908l17.41-27.081a2 2 0 0 1 1.682-.919h5v4h-3.908l-17.41 27.081a2 2 0 0 1 -1.682.919z" fill="#c5e99b" data-original="#c5e99b"></path><path d="m37 29v4h-3.91l-17.41 27.08a2.006 2.006 0 0 1 -1.68.92h-11v-4h3a2.006 2.006 0 0 0 2 2h5.91l17.41-27.08a2.006 2.006 0 0 1 1.68-.92 2.006 2.006 0 0 0 2-2z" fill="#a8d38c" data-original="#a8d38c"></path><path d="m37 11v22h5v-9a5 5 0 0 1 10 0v9h5v-22z" fill="#a3daff" data-original="#a3daff"></path><path d="m57 53v-13a3 3 0 0 0 -3-3h-12a4 4 0 0 1 -4-4h-5v28h28v-4a4 4 0 0 1 -4-4zm-10 4a8 8 0 1 1 8-8 8 8 0 0 1 -8 8z" fill="#ff6464" data-original="#ff6464"></path><path d="m54 16v11a3 3 0 0 0 3 3v3h-5v-9a5 5 0 0 0 -5-5 4.712 4.712 0 0 0 -1 .1v-.1a7 7 0 0 0 -7 7v1a3 3 0 0 0 3 3v3h-5v-22h20v3h-1a2.006 2.006 0 0 0 -2 2z" fill="#1ec0ff" data-original="#1ec0ff" class=""></path><path d="m60 11h-26l8.33-6.05a6 6 0 0 0 5.67 4.05h9.25z" fill="#ff6464" data-original="#ff6464"></path><g fill="#f9d423"><circle cx="53" cy="15" r="1" fill="#f9d423" data-original="#f9d423"></circle><circle cx="57" cy="37" r="1" fill="#f9d423" data-original="#f9d423"></circle><circle cx="41" cy="15" r="1" fill="#f9d423" data-original="#f9d423"></circle></g><circle cx="37" cy="37" fill="#f9b53d" r="1" data-original="#f9b53d"></circle><circle cx="57" cy="57" fill="#f9b53d" r="1" data-original="#f9b53d"></circle><circle cx="37" cy="57" fill="#f9b53d" r="1" data-original="#f9b53d"></circle><path d="m47 58a9 9 0 1 1 9-9 9.01 9.01 0 0 1 -9 9zm0-16a7 7 0 1 0 7 7 7.008 7.008 0 0 0 -7-7z" fill="#1ec0ff" data-original="#1ec0ff" class=""></path><path d="m53 33h-2v-9a4 4 0 0 0 -8 0v9h-2v-9a6 6 0 0 1 12 0z" fill="#f9d423" data-original="#f9d423"></path></g></g></g></svg>