<svg xmlns="http://www.w3.org/2000/svg" version="1.1" xmlns:xlink="http://www.w3.org/1999/xlink" xmlns:svgjs="http://svgjs.com/svgjs" width="512" height="512" x="0" y="0" viewBox="0 0 511.999 511.999" style="enable-background:new 0 0 512 512" xml:space="preserve" class=""><g>
<g xmlns="http://www.w3.org/2000/svg">
	<g>
		<path d="M494.603,317.884c-1.891-15.498-7.108-28.575-21.387-38.894c-11.315-8.883-26.753-11.327-68.88-21.813v-19.244    c0.255-0.127,0.081-0.037,0.353-0.176l0.001,0.001c0.754-0.361,2.882-1.514,4.024-2.206l0.125-0.074    c19.038-10.961,32.894-29.918,38.018-48.873c8.823,16.291,6.687,31.552,5.962,44.043c-0.615,10.585,8.93,18.868,19.308,16.718    l18.472-3.831c5.512-1.144,10.299-4.591,13.133-9.458c2.829-4.857,3.464-10.707,1.741-16.05    c-10.96-34.002-25.162-50.895-32.556-57.879c0.423-4.906-0.553-9.624-2.705-13.865c1.821-3.065,2.999-6.467,3.372-10.072    c0.273-0.777,0.428-1.608,0.428-2.479c-1.333-14.029,5.805-48.789-16.431-83.321l-0.014,0.009    c-4.243-5.944-13.638-2.939-13.638,4.359c0,2.767,0.932,3.274,3.532,7.947c13.704,24.651,11.254,46.217,11.556,47.856    c-3.427-1.872-7.295-3.177-11.437-3.763c-2.79-3.449-7.081-4.824-11.091-4.011c-38.088,7.696-53.302-9.941-58.076-17.882    c-2.481-4.128-6.837-6.593-11.649-6.594c-0.001,0-0.001,0-0.002,0c-4.812,0-9.168,2.465-11.65,6.593    c-0.001,0-0.001,0.001-0.001,0.001c-4.773,7.939-19.987,25.574-58.076,17.882c-4.065-0.823-8.338,0.608-11.092,4.012    c-4.141,0.586-8.009,1.891-11.435,3.763v-3.113c0-76.101,87.016-119.581,148.566-73.062c3.262,2.552,7.956,1.963,10.506-1.298    c2.552-3.261,1.959-7.987-1.302-10.539c-71.68-54.698-169.077-2.988-172.663,80.208c-0.174,4.067-0.07,4.642-0.101,30.953    c0,0.874,0.157,1.709,0.432,2.489c0.36,3.465,1.462,6.742,3.167,9.713c-2.265,4.297-3.322,9.142-2.885,14.213    c-7.394,6.984-21.598,23.878-32.556,57.879c-3.618,11.229,3.345,23.117,14.874,25.508c18.491,3.731,18.913,4.172,21.778,4.172    c3.807,0,7.488-1.354,10.445-3.907c6.483-5.598,5.638-12.281,5.295-17.006c-0.797-11.001-1.846-25.612,6.477-40.643    c6.813,20.396,16.074,35.174,35.035,47.411c4.241,2.734,7.219,4.17,7.319,4.225v19.389c-47.588,11.846-59.011,12.808-72.93,25.053    c-13.817-12.129-24.75-13.067-72.903-25.053v-19.406c0.117-0.069,4.601-2.233,10.097-6.107    c37.683-26.584,35.192-67.629,35.35-68.208c20.506-4.468,30.035-25.243,18.887-40.871c0.207-32.639-0.049-59.397-25.915-88.137    C159.146-35.456,42.926,8.88,42.926,102.469v20.058c0,0.019,0.003,0.038,0.003,0.057c-2.986,4.184-4.718,9.123-4.718,14.411    c0,12.769,10.067,23.511,23.608,26.46c0.221,6.924,0.333,11.85,2.478,20.32c5.933,23.878,22.212,43.524,43.33,54.173v19.227    c-43.846,10.915-57.579,12.947-68.879,21.812c-10.951,7.914-17.589,18.806-20.06,30.759c-1.337,6.462-18.355,160.3-18.364,160.403    c-2.055,23.748,11.544,41.849,35.018,41.849h65.587c4.14,0,7.497-3.356,7.497-7.497c0-4.141-3.357-7.497-7.497-7.497H72.711    l7.434-140.616c0.218-4.134-2.957-7.663-7.091-7.882c-4.144-0.259-7.664,2.956-7.883,7.091l-1.477,27.955H25.099    c6.988-60.676,6.927-66.868,9.102-74.046c6.987-23.06,33.171-26.612,33.837-27.024c16.802,26.264,45.911,42.356,77.308,42.356    s60.505-16.093,77.308-42.356c1.625,0.47,9.326,1.779,17.377,6.604c0.326,0.195,0.666,0.365,1.016,0.509    c1.005,0.667,3.702,2.698,5.235,4.058c-0.894,2.092-5.569,7.204-7.657,24.303l-7.34,65.595h-3.978l-1.477-27.955    c-0.219-4.135-3.739-7.337-7.883-7.091c-4.134,0.219-7.309,3.747-7.091,7.882l7.434,140.616h-82.374    c-4.14,0-7.497,3.356-7.497,7.497c0,4.141,3.357,7.497,7.497,7.497c10.682,0,171.867,0,182.771,0c4.141,0,7.497-3.356,7.497-7.497    c0-4.141-3.356-7.497-7.497-7.497h-24.708l7.434-140.616c0.219-4.134-2.956-7.663-7.091-7.882    c-4.116-0.232-7.664,2.956-7.882,7.091l-0.43,8.125l-36.493-8.257c5.306-34.986,0.291-53.09,22.417-66.379    c9.096-5.45,17.577-6.472,20.785-7.452c4.172,39.187,36.22,55.984,36.415,56.163l0.104,0.062c3.597,1.82,7.453,4.556,18.395,7.656    c10.655,2.831,19.73,2.478,19.535,2.478c14.363,0,28.67-4.497,39.731-11.729l0.104-0.067c0.985-0.718,8.538-5.157,16.297-14.182    c10.095-11.767,15.94-25.843,17.495-40.312c3.04,0.931,11.566,2.025,20.511,7.384c22.309,13.399,16.825,31.003,22.418,66.387    l-36.201,8.238l-0.429-8.114c-0.211-4-3.52-7.101-7.479-7.101c-0.134,0-0.269,0.003-0.402,0.011    c-4.135,0.219-7.31,3.747-7.091,7.882l7.433,140.616h-85.882c-4.141,0-7.497,3.356-7.497,7.497c0,4.141,3.356,7.497,7.497,7.497    h122.953c21.992,0,35.463-16.535,35.235-35.796C511.956,469.751,512.348,477.86,494.603,317.884z M466.53,175.05    c7.966,9.09,17.351,24.857,24.674,47.576c0.573,1.775-0.021,3.209-0.428,3.904c-0.408,0.703-1.37,1.937-3.22,2.321l-18.472,3.831    c-0.725,0.148-1.338-0.439-1.295-1.166c0.066-1.143,0.155-2.359,0.248-3.644c0.819-11.303,2.115-29.221-7.651-47.764    C462.687,178.755,464.759,177.048,466.53,175.05z M450.112,122.921c11.749,4.844,11.176,17.011,0,21.62V122.921z M450.112,160.2    c2.411-0.521,5.419-1.522,7.905-2.762c0.22,5.16-3.249,9.634-8.042,10.887C449.988,168.103,450.096,161.172,450.112,160.2z     M264.064,232.683l-18.471-3.831c-2.829-0.587-4.527-3.496-3.648-6.227c7.322-22.719,16.707-38.485,24.674-47.576    c1.77,1.998,3.844,3.705,6.144,5.06C257.814,208.489,269.086,233.721,264.064,232.683z M283.417,122.924v21.617    C272.124,139.879,271.807,127.712,283.417,122.924z M275.143,157.254c2.624,1.352,5.82,2.419,8.275,2.948    c0.082,7.669,0.05,6.663,0.141,8.21C283.494,168.399,274.815,162.569,275.143,157.254z M62.592,398.547l-5.205,98.457    c-17.7-0.958-28.508,2.742-36.446-5.305c-3.366-3.412-5.764-8.633-5.844-15.619c-0.092-5.293,0.218-3.714,8.322-77.534H62.592z     M228.512,147.805v-21.617C239.963,130.911,239.964,143.08,228.512,147.805z M61.817,147.806c-11.456-4.724-11.458-16.894,0-21.62    V147.806z M64.671,110.037c-2.347,0.309-4.605,0.855-6.751,1.598c0.015-6.963-0.098-11.268,0.256-15.893    c4.428-49.342,45.292-81.749,89.521-80.478l0.813,0.032c44.245,1.614,81.846,37.045,83.811,83.41    c0.144,8.76,0.06,0.926,0.086,12.928c-1.913-0.663-3.917-1.164-5.993-1.483c-1.438-2.283-3.57-4.118-6.266-5.288    c-0.994-0.433-1.248-0.348-3.02-0.92c-5.604-1.813-16.217-7.363-24.984-24.186c-2.254-4.326-6.687-7.004-11.571-6.869    c-4.879,0.089-9.209,2.879-11.303,7.28c-7.106,14.948-39.173,41.056-92.928,26.351C72.189,105.386,67.699,106.601,64.671,110.037z     M93.946,208.779c-21.033-24.487-17.134-43.531-17.134-86.658c31.074,7.476,54.456,2.219,68.828-3.695    c15.509-6.382,28.35-16.71,35.193-28.132c9.357,16.105,21.536,24.919,32.682,28.227c0.001,8.284-0.002,37.721,0.002,38.292    c-0.519,2.55,3.991,31.229-20.171,55.185c-21.656,21.023-42.882,19.004-51.43,19.806c-1.121-0.052-2.245-0.132-3.365-0.239    c-1.12-0.107-2.236-0.242-3.34-0.402C118.836,228.766,104.153,220.423,93.946,208.779z M176.555,271.008l2.276,0.567    c-19.066,17.217-47.905,17.218-66.973,0l2.276-0.567c0.439-0.11,0.868-0.259,1.281-0.445c4.376-1.981,7.205-7.025,7.205-12.851    v-13.937c13.715,4,29.844,4.284,45.451-0.101v14.037C168.071,264.821,172.199,269.914,176.555,271.008z M83.56,278.619    l11.579-2.883c25.945,31.564,74.315,31.751,100.413,0l11.579,2.883C176.488,320.152,114.304,320.29,83.56,278.619z     M285.205,378.914l-6.243,118.091c-22.169-0.124-31.785,1.936-38.515-7.415c-3.768-5.265-4.462-11.625-3.919-18.059    c1.206-10.773,10.102-90.271,11.311-101.071L285.205,378.914z M404.59,237.808l-0.252-0.518v-0.232l0.353,0.697L404.59,237.808z     M314.882,208.026c-20.598-23.973-16.47-46.49-16.468-89.753c15.497,2.388,50.112,4.043,68.35-23.716    c18.24,27.76,52.858,26.1,68.353,23.716c0,9.226,0,35.986,0,45.255C435.118,225.87,357.396,256.175,314.882,208.026z     M366.606,308.38c-13.829-0.277-20.547-7.428-21.275-7.743c-3.21-2.84-4.051-3.991-3.961-3.891    c-4.177-4.907-6.444-9.997-7.559-15.701c-0.686-3.407-0.568-6.558-0.576-9.496c1.855-0.488,2.481-0.546,3.453-0.987    c4.375-1.98,7.203-7.025,7.203-12.85v-14.028c14.609,4.143,30.416,4.323,45.451,0.083v13.945c0,7.109,4.129,12.205,8.486,13.297    l2.463,0.613c-0.267,1.094,1.887,14.533-8.974,26.064c-2.445,2.609-4.686,4.326-7.671,6.139    c-8.785,5.124-17.312,4.574-16.484,4.554C367.081,308.379,366.68,308.38,366.606,308.38z M392.011,327.4    c-0.498,0.065-15.814,8.586-36.763,4.496c-26.347-5.226-45.953-27.459-47.805-53.927c2.329-0.58,8.255-2.055,10.803-2.689    c0.496,47.763,63.02,66.227,89.203,26.031c2.133-3.964,7.654-12.022,7.836-25.959l10.799,2.688    C424.934,296.149,413.773,317.161,392.011,327.4z M491.022,491.7c-7.949,8.056-18.751,4.346-36.454,5.305l-6.244-118.099    l37.075-8.437c12.252,111.011,11.316,97.894,11.464,105.925C496.916,480.891,495.407,487.256,491.022,491.7z" fill="#fe4b7b" data-original="#000000" class=""></path>
	</g>
</g>
<g xmlns="http://www.w3.org/2000/svg">
</g>
<g xmlns="http://www.w3.org/2000/svg">
</g>
<g xmlns="http://www.w3.org/2000/svg">
</g>
<g xmlns="http://www.w3.org/2000/svg">
</g>
<g xmlns="http://www.w3.org/2000/svg">
</g>
<g xmlns="http://www.w3.org/2000/svg">
</g>
<g xmlns="http://www.w3.org/2000/svg">
</g>
<g xmlns="http://www.w3.org/2000/svg">
</g>
<g xmlns="http://www.w3.org/2000/svg">
</g>
<g xmlns="http://www.w3.org/2000/svg">
</g>
<g xmlns="http://www.w3.org/2000/svg">
</g>
<g xmlns="http://www.w3.org/2000/svg">
</g>
<g xmlns="http://www.w3.org/2000/svg">
</g>
<g xmlns="http://www.w3.org/2000/svg">
</g>
<g xmlns="http://www.w3.org/2000/svg">
</g>
</g></svg>