<svg xmlns="http://www.w3.org/2000/svg" version="1.1" xmlns:xlink="http://www.w3.org/1999/xlink" xmlns:svgjs="http://svgjs.com/svgjs" width="512" height="512" x="0" y="0" viewBox="0 0 512 512" style="enable-background:new 0 0 512 512" xml:space="preserve" class=""><g><g xmlns="http://www.w3.org/2000/svg"><path d="m268.646 333.032h-91.865c-4.581 0-8.809 2.291-11.31 6.129s-2.89 8.631-1.041 12.822l24.703 55.971c2.158 4.89 7.006 8.049 12.351 8.049h109.029c5.345 0 10.193-3.16 12.351-8.049l24.704-55.972c1.85-4.191 1.461-8.984-1.041-12.822-2.501-3.838-6.729-6.129-11.31-6.129h-31.573c-4.142 0-7.5 3.358-7.5 7.5s3.358 7.5 7.5 7.5h29.271l-23.38 52.972h-107.072l-23.38-52.972h89.563c4.142 0 7.5-3.358 7.5-7.5s-3.358-7.499-7.5-7.499zm116.875-253.532c0-4.142-3.358-7.5-7.5-7.5s-7.5 3.358-7.5 7.5 3.358 7.5 7.5 7.5 7.5-3.358 7.5-7.5zm111.979 22.5h-48.5v-22.5c0-20.678-16.822-37.5-37.5-37.5h-25.979v-14.5c0-15.164-12.336-27.5-27.5-27.5h-204.042c-15.164 0-27.5 12.336-27.5 27.5v14.5h-25.979c-20.678 0-37.5 16.822-37.5 37.5v22.5h-48.5c-7.995 0-14.5 6.505-14.5 14.5v92c0 7.995 6.505 14.5 14.5 14.5h16c7.995 0 14.5-6.505 14.5-14.5v-91.5h18v61.349c0 4.142 3.358 7.5 7.5 7.5s7.5-3.358 7.5-7.5v-98.849c0-12.407 10.093-22.5 22.5-22.5h311c12.407 0 22.5 10.093 22.5 22.5v277.767h-51.112c-5.805 0-11.035 3.446-13.324 8.78l-15.759 36.71c-1.264 2.944-.965 6.299.798 8.975 1.763 2.675 4.728 4.272 7.932 4.272h71.465v10.496c0 12.407-10.093 22.5-22.5 22.5h-311c-12.407 0-22.5-10.093-22.5-22.5v-10.496h71.465c3.204 0 6.169-1.597 7.932-4.272s2.062-6.03.797-8.975l-15.758-36.709c-2.29-5.334-7.52-8.78-13.324-8.78h-51.112v-143.919c0-4.142-3.358-7.5-7.5-7.5s-7.5 3.358-7.5 7.5v213.151c0 17.302 11.781 31.897 27.741 36.204v21.796c0 15.164 12.336 27.5 27.5 27.5h50.52c15.164 0 27.5-12.336 27.5-27.5v-20.5h119.48v20.5c0 15.164 12.336 27.5 27.5 27.5h50.52c15.164 0 27.5-12.336 27.5-27.5v-21.796c15.958-4.307 27.739-18.902 27.739-36.204v-309.5h18v91.5c0 7.995 6.505 14.5 14.5 14.5h16c7.995 0 14.5-6.505 14.5-14.5v-92c0-7.995-6.505-14.5-14.5-14.5zm-467.5 106h-15v-91h15zm340.521-166h-229.042v-14.5c0-6.893 5.607-12.5 12.5-12.5h204.043c6.893 0 12.5 5.607 12.5 12.5v14.5zm-292.521 330.267h50.783l12.336 28.737h-63.119zm103.26 112.233c0 6.893-5.607 12.5-12.5 12.5h-50.52c-6.893 0-12.5-5.607-12.5-12.5v-20.5h75.52zm225 0c0 6.893-5.607 12.5-12.5 12.5h-50.52c-6.893 0-12.5-5.607-12.5-12.5v-20.5h75.52zm27.74-83.496h-63.119l12.336-28.737h50.783zm63-193.004h-15v-91h15zm-161.184-121c4.142 0 7.5-3.358 7.5-7.5s-3.358-7.5-7.5-7.5h-159.632c-4.142 0-7.5 3.358-7.5 7.5s3.358 7.5 7.5 7.5zm-122.047 287.518c0 4.142 3.358 7.5 7.5 7.5h69.462c4.142 0 7.5-3.358 7.5-7.5s-3.358-7.5-7.5-7.5h-69.462c-4.142 0-7.5 3.358-7.5 7.5zm-72.29-295.018c0-4.142-3.358-7.5-7.5-7.5s-7.5 3.358-7.5 7.5 3.358 7.5 7.5 7.5 7.5-3.358 7.5-7.5zm-48.479 40v166.032c0 9.649 7.851 17.5 17.5 17.5h291c9.649 0 17.5-7.851 17.5-17.5v-166.032c0-9.649-7.851-17.5-17.5-17.5h-291c-9.65 0-17.5 7.851-17.5 17.5zm311 0v166.032c0 1.378-1.122 2.5-2.5 2.5h-291c-1.378 0-2.5-1.122-2.5-2.5v-166.032c0-1.378 1.122-2.5 2.5-2.5h291c1.379 0 2.5 1.122 2.5 2.5z" fill="#ffffff" data-original="#000000" class=""></path></g></g></svg>